<svg width="172" height="51" viewBox="0 0 172 51" fill="none" xmlns="http://www.w3.org/2000/svg">
<path d="M59.4587 15.253H63.4073C64.4015 15.253 65.0548 15.4803 65.5662 15.9632C65.8502 16.2473 66.0775 16.6734 66.0775 17.1847C66.0775 18.1221 65.5662 18.6334 64.856 18.9175C65.7934 19.2016 66.3615 19.7697 66.3615 20.7923C66.3615 22.1559 65.2821 22.9512 63.4073 22.9512H59.4587V15.253ZM62.8959 18.3494C63.5493 18.3494 63.8902 18.1221 63.8902 17.696C63.8902 17.2699 63.5209 17.0427 62.8959 17.0427H61.5324V18.4062H62.8959V18.3494ZM63.18 21.3036C63.8334 21.3036 64.1742 21.0196 64.1742 20.5935C64.1742 20.1674 63.8049 19.8833 63.0948 19.8833H61.4472V21.3321H63.18V21.3036ZM71.3895 15.253H73.5484V21.1332H77.2697V23.008H71.3895V15.253ZM81.5023 19.1448C81.5023 16.929 83.2919 15.0542 85.678 15.0542C88.0642 15.0542 89.8538 16.8438 89.8538 19.0879C89.8538 21.3037 88.0642 23.1217 85.678 23.1217C83.2919 23.1501 81.5023 21.3605 81.5023 19.1448ZM87.6949 19.1448C87.6949 18.0085 86.8995 16.9859 85.678 16.9859C84.5418 16.9859 83.7464 17.9233 83.7464 19.0595C83.7464 20.1958 84.5418 21.1332 85.7632 21.1332C86.8995 21.2184 87.6949 20.281 87.6949 19.1448ZM94.7113 19.1448C94.7113 16.8438 96.4441 15.0542 98.8019 15.0542C100.393 15.0542 101.387 15.7076 102.097 16.7018L100.449 17.9233C100.023 17.3551 99.512 16.9859 98.7167 16.9859C97.6372 16.9859 96.8418 17.9233 96.8418 19.0595C96.8418 20.1958 97.6372 21.1332 98.7167 21.1332C99.512 21.1332 100.023 20.7639 100.449 20.1958L102.097 21.3321C101.387 22.3263 100.364 23.0649 98.6598 23.0649C96.5293 23.1501 94.7113 21.5025 94.7113 19.1448ZM107.153 15.253H109.312V18.4062L111.983 15.253H114.568L111.613 18.6334L114.624 23.0933H112.039L110.108 20.2242L109.312 21.0764V23.0933H107.153V15.253ZM118.346 19.1448C118.346 16.8438 120.078 15.0542 122.436 15.0542C124.027 15.0542 125.021 15.7076 125.731 16.7018L124.084 17.9233C123.658 17.3551 123.146 16.9859 122.351 16.9859C121.271 16.9859 120.476 17.9233 120.476 19.0595C120.476 20.1958 121.271 21.1332 122.351 21.1332C123.146 21.1332 123.658 20.7639 124.084 20.1958L125.731 21.3321C125.021 22.3263 123.999 23.0649 122.294 23.0649C120.135 23.1501 118.346 21.5025 118.346 19.1448ZM130.702 15.253H132.861V18.1221H135.588V15.253H137.747V23.008H135.588V20.0538H132.861V23.008H130.702V15.253V15.253ZM145.872 15.1962H147.945L151.24 23.0365H148.94L148.371 21.6729H145.36L144.792 23.0365H142.491L145.872 15.1962ZM147.718 19.9401L146.866 17.7244L146.014 19.9401H147.718ZM155.984 15.253H158.143V23.008H155.984V15.253ZM163.597 15.253H165.614L168.853 19.3436V15.253H171.011V23.008H169.137L165.841 18.7755V23.008H163.683V15.253H163.597ZM59.5156 33.8594C59.5156 31.6437 61.1631 29.8256 63.4641 29.8256C64.9128 29.8256 65.6798 30.337 66.4752 31.0471L65.907 31.7005C65.1969 31.0471 64.4583 30.621 63.4641 30.621C61.7313 30.621 60.453 31.9845 60.453 33.7742C60.453 35.5638 61.7597 37.0125 63.4641 37.0125C64.5435 37.0125 65.2537 36.5864 65.9638 35.8762L66.532 36.4444C65.7366 37.2398 64.7992 37.8079 63.4357 37.8079C61.1915 37.8931 59.5156 36.1035 59.5156 33.8594ZM74.9687 29.9109H75.7641L79.2865 37.7511H78.3491L77.4117 35.6774H73.1791L72.2417 37.7511H71.3043L74.9687 29.9109ZM77.1276 34.882L75.338 30.9335L73.5484 34.882H77.1276ZM84.7974 29.9961H87.6665C89.3993 29.9961 90.5356 30.9335 90.5356 32.439C90.5356 34.0866 89.172 34.9388 87.4392 34.9388H85.5928V37.6658H84.7406V29.9677H84.7974V29.9961ZM87.6097 34.2286C88.9164 34.2286 89.7686 33.5185 89.7686 32.4959C89.7686 31.4164 88.9164 30.8483 87.6949 30.8483H85.7632V34.2855H87.6381V34.2286H87.6097ZM96.3021 29.9961H97.1543V37.7511H96.3021V29.9961ZM105.506 30.7631H102.921V29.9677H109.028V30.7631H106.443V37.7227H105.591V30.7631H105.506ZM116.556 29.9109H117.351L120.874 37.7511H119.936L118.999 35.6774H114.766L113.829 37.7511H112.892L116.556 29.9109ZM118.715 34.882L116.925 30.9335L115.136 34.882H118.715ZM126.385 29.9961H127.237V36.9557H131.611V37.7511H126.356V29.9961H126.385Z" fill="#ABB8EB"/>
<path d="M29.5751 32.8084C30.5321 32.8084 31.3079 32.0326 31.3079 31.0756C31.3079 30.1186 30.5321 29.3428 29.5751 29.3428C28.6181 29.3428 27.8423 30.1186 27.8423 31.0756C27.8423 32.0326 28.6181 32.8084 29.5751 32.8084Z" fill="#ABB8EB"/>
<path opacity="0.9" d="M32.444 36.1037C33.3226 36.1037 34.0348 35.3914 34.0348 34.5129C34.0348 33.6343 33.3226 32.9221 32.444 32.9221C31.5655 32.9221 30.8533 33.6343 30.8533 34.5129C30.8533 35.3914 31.5655 36.1037 32.444 36.1037Z" fill="#ABB8EB"/>
<path opacity="0.8" d="M34.887 39.2566C35.6871 39.2566 36.3357 38.608 36.3357 37.8079C36.3357 37.0078 35.6871 36.3591 34.887 36.3591C34.0869 36.3591 33.4382 37.0078 33.4382 37.8079C33.4382 38.608 34.0869 39.2566 34.887 39.2566Z" fill="#ABB8EB"/>
<path opacity="0.7" d="M36.7618 42.1824C37.3893 42.1824 37.898 41.6737 37.898 41.0462C37.898 40.4186 37.3893 39.9099 36.7618 39.9099C36.1342 39.9099 35.6255 40.4186 35.6255 41.0462C35.6255 41.6737 36.1342 42.1824 36.7618 42.1824Z" fill="#ABB8EB"/>
<path opacity="0.6" d="M38.2672 45.0799C38.785 45.0799 39.2047 44.6602 39.2047 44.1425C39.2047 43.6248 38.785 43.2051 38.2672 43.2051C37.7495 43.2051 37.3298 43.6248 37.3298 44.1425C37.3298 44.6602 37.7495 45.0799 38.2672 45.0799Z" fill="#ABB8EB"/>
<path opacity="0.5" d="M39.2616 48.0628C39.7323 48.0628 40.1138 47.6813 40.1138 47.2106C40.1138 46.7399 39.7323 46.3584 39.2616 46.3584C38.791 46.3584 38.4094 46.7399 38.4094 47.2106C38.4094 47.6813 38.791 48.0628 39.2616 48.0628Z" fill="#ABB8EB"/>
<path opacity="0.4" d="M39.8582 50.7613C40.219 50.7613 40.5115 50.4688 40.5115 50.1079C40.5115 49.7471 40.219 49.4546 39.8582 49.4546C39.4974 49.4546 39.2048 49.7471 39.2048 50.1079C39.2048 50.4688 39.4974 50.7613 39.8582 50.7613Z" fill="#ABB8EB"/>
<path d="M30.0011 26.9851C30.9581 26.9851 31.7339 26.2093 31.7339 25.2523C31.7339 24.2953 30.9581 23.5195 30.0011 23.5195C29.0441 23.5195 28.2683 24.2953 28.2683 25.2523C28.2683 26.2093 29.0441 26.9851 30.0011 26.9851Z" fill="#ABB8EB"/>
<path opacity="0.9" d="M34.177 25.1955C35.0555 25.1955 35.7677 24.4832 35.7677 23.6047C35.7677 22.7261 35.0555 22.0139 34.177 22.0139C33.2984 22.0139 32.5862 22.7261 32.5862 23.6047C32.5862 24.4832 33.2984 25.1955 34.177 25.1955Z" fill="#ABB8EB"/>
<path opacity="0.8" d="M38.04 23.69C38.8402 23.69 39.4888 23.0413 39.4888 22.2412C39.4888 21.4411 38.8402 20.7925 38.04 20.7925C37.2399 20.7925 36.5913 21.4411 36.5913 22.2412C36.5913 23.0413 37.2399 23.69 38.04 23.69Z" fill="#ABB8EB"/>
<path opacity="0.7" d="M41.6477 22.5821C42.2753 22.5821 42.784 22.0734 42.784 21.4458C42.784 20.8183 42.2753 20.3096 41.6477 20.3096C41.0202 20.3096 40.5115 20.8183 40.5115 21.4458C40.5115 22.0734 41.0202 22.5821 41.6477 22.5821Z" fill="#ABB8EB"/>
<path opacity="0.6" d="M45.0849 21.9571C45.6026 21.9571 46.0223 21.5374 46.0223 21.0197C46.0223 20.502 45.6026 20.0823 45.0849 20.0823C44.5672 20.0823 44.1475 20.502 44.1475 21.0197C44.1475 21.5374 44.5672 21.9571 45.0849 21.9571Z" fill="#ABB8EB"/>
<path opacity="0.5" d="M48.3231 21.8719C48.7938 21.8719 49.1753 21.4903 49.1753 21.0197C49.1753 20.549 48.7938 20.1675 48.3231 20.1675C47.8525 20.1675 47.4709 20.549 47.4709 21.0197C47.4709 21.4903 47.8525 21.8719 48.3231 21.8719Z" fill="#ABB8EB"/>
<path opacity="0.4" d="M51.2776 21.9571C51.6385 21.9571 51.931 21.6646 51.931 21.3037C51.931 20.9429 51.6385 20.6504 51.2776 20.6504C50.9168 20.6504 50.6243 20.9429 50.6243 21.3037C50.6243 21.6646 50.9168 21.9571 51.2776 21.9571Z" fill="#ABB8EB"/>
<path d="M24.547 24.741C25.504 24.741 26.2798 23.9652 26.2798 23.0082C26.2798 22.0512 25.504 21.2754 24.547 21.2754C23.59 21.2754 22.8142 22.0512 22.8142 23.0082C22.8142 23.9652 23.59 24.741 24.547 24.741Z" fill="#ABB8EB"/>
<path opacity="0.9" d="M24.2629 20.0822C25.1414 20.0822 25.8537 19.37 25.8537 18.4914C25.8537 17.6128 25.1414 16.9006 24.2629 16.9006C23.3843 16.9006 22.6721 17.6128 22.6721 18.4914C22.6721 19.37 23.3843 20.0822 24.2629 20.0822Z" fill="#ABB8EB"/>
<path opacity="0.8" d="M24.1777 15.8496C24.9779 15.8496 25.6265 15.201 25.6265 14.4009C25.6265 13.6008 24.9779 12.9521 24.1777 12.9521C23.3776 12.9521 22.729 13.6008 22.729 14.4009C22.729 15.201 23.3776 15.8496 24.1777 15.8496Z" fill="#ABB8EB"/>
<path opacity="0.7" d="M24.5472 11.8726C25.1747 11.8726 25.6834 11.3639 25.6834 10.7364C25.6834 10.1088 25.1747 9.6001 24.5472 9.6001C23.9196 9.6001 23.4109 10.1088 23.4109 10.7364C23.4109 11.3639 23.9196 11.8726 24.5472 11.8726Z" fill="#ABB8EB"/>
<path opacity="0.6" d="M25.2004 8.29329C25.7181 8.29329 26.1378 7.8736 26.1378 7.35588C26.1378 6.83816 25.7181 6.41846 25.2004 6.41846C24.6826 6.41846 24.2629 6.83816 24.2629 7.35588C24.2629 7.8736 24.6826 8.29329 25.2004 8.29329Z" fill="#ABB8EB"/>
<path opacity="0.5" d="M26.1378 5.11187C26.6085 5.11187 26.99 4.73032 26.99 4.25967C26.99 3.78901 26.6085 3.40747 26.1378 3.40747C25.6672 3.40747 25.2856 3.78901 25.2856 4.25967C25.2856 4.73032 25.6672 5.11187 26.1378 5.11187Z" fill="#ABB8EB"/>
<path opacity="0.4" d="M27.3594 2.1861C27.7202 2.1861 28.0128 1.89358 28.0128 1.53275C28.0128 1.17191 27.7202 0.879395 27.3594 0.879395C26.9986 0.879395 26.7061 1.17191 26.7061 1.53275C26.7061 1.89358 26.9986 2.1861 27.3594 2.1861Z" fill="#ABB8EB"/>
<path d="M20.7406 29.2859C21.6976 29.2859 22.4734 28.5101 22.4734 27.5531C22.4734 26.5961 21.6976 25.8203 20.7406 25.8203C19.7836 25.8203 19.0078 26.5961 19.0078 27.5531C19.0078 28.5101 19.7836 29.2859 20.7406 29.2859Z" fill="#ABB8EB"/>
<path opacity="0.9" d="M16.3659 27.9794C17.2445 27.9794 17.9567 27.2672 17.9567 26.3886C17.9567 25.5101 17.2445 24.7979 16.3659 24.7979C15.4874 24.7979 14.7751 25.5101 14.7751 26.3886C14.7751 27.2672 15.4874 27.9794 16.3659 27.9794Z" fill="#ABB8EB"/>
<path opacity="0.8" d="M12.4741 26.6157C13.2742 26.6157 13.9229 25.9671 13.9229 25.167C13.9229 24.3669 13.2742 23.7183 12.4741 23.7183C11.674 23.7183 11.0254 24.3669 11.0254 25.167C11.0254 25.9671 11.674 26.6157 12.4741 26.6157Z" fill="#ABB8EB"/>
<path opacity="0.7" d="M9.09378 24.7977C9.72132 24.7977 10.23 24.289 10.23 23.6614C10.23 23.0339 9.72132 22.5251 9.09378 22.5251C8.46624 22.5251 7.95752 23.0339 7.95752 23.6614C7.95752 24.289 8.46624 24.7977 9.09378 24.7977Z" fill="#ABB8EB"/>
<path opacity="0.6" d="M6.0258 22.9513C6.54352 22.9513 6.96321 22.5316 6.96321 22.0138C6.96321 21.4961 6.54352 21.0764 6.0258 21.0764C5.50808 21.0764 5.08838 21.4961 5.08838 22.0138C5.08838 22.5316 5.50808 22.9513 6.0258 22.9513Z" fill="#ABB8EB"/>
<path opacity="0.5" d="M3.44082 20.9913C3.91148 20.9913 4.29302 20.6097 4.29302 20.1391C4.29302 19.6684 3.91148 19.2869 3.44082 19.2869C2.97017 19.2869 2.58862 19.6684 2.58862 20.1391C2.58862 20.6097 2.97017 20.9913 3.44082 20.9913Z" fill="#ABB8EB"/>
<path opacity="0.4" d="M1.19681 18.8607C1.55764 18.8607 1.85016 18.5681 1.85016 18.2073C1.85016 17.8465 1.55764 17.554 1.19681 17.554C0.835972 17.554 0.543457 17.8465 0.543457 18.2073C0.543457 18.5681 0.835972 18.8607 1.19681 18.8607Z" fill="#ABB8EB"/>
<path d="M23.8368 34.2288C24.7938 34.2288 25.5696 33.453 25.5696 32.496C25.5696 31.539 24.7938 30.7632 23.8368 30.7632C22.8798 30.7632 22.104 31.539 22.104 32.496C22.104 33.453 22.8798 34.2288 23.8368 34.2288Z" fill="#ABB8EB"/>
<path opacity="0.9" d="M21.4506 37.8932C22.3292 37.8932 23.0414 37.181 23.0414 36.3024C23.0414 35.4239 22.3292 34.7117 21.4506 34.7117C20.5721 34.7117 19.8599 35.4239 19.8599 36.3024C19.8599 37.181 20.5721 37.8932 21.4506 37.8932Z" fill="#ABB8EB"/>
<path opacity="0.8" d="M19.093 41.1314C19.8931 41.1314 20.5418 40.4827 20.5418 39.6826C20.5418 38.8825 19.8931 38.2339 19.093 38.2339C18.2929 38.2339 17.6443 38.8825 17.6443 39.6826C17.6443 40.4827 18.2929 41.1314 19.093 41.1314Z" fill="#ABB8EB"/>
<path opacity="0.7" d="M16.5647 43.546C17.1923 43.546 17.701 43.0372 17.701 42.4097C17.701 41.7822 17.1923 41.2734 16.5647 41.2734C15.9372 41.2734 15.4285 41.7822 15.4285 42.4097C15.4285 43.0372 15.9372 43.546 16.5647 43.546Z" fill="#ABB8EB"/>
<path opacity="0.6" d="M14.1217 45.7332C14.6395 45.7332 15.0592 45.3135 15.0592 44.7958C15.0592 44.2781 14.6395 43.8584 14.1217 43.8584C13.604 43.8584 13.1843 44.2781 13.1843 44.7958C13.1843 45.3135 13.604 45.7332 14.1217 45.7332Z" fill="#ABB8EB"/>
<path opacity="0.5" d="M11.5368 47.5796C12.0074 47.5796 12.389 47.1981 12.389 46.7274C12.389 46.2568 12.0074 45.8752 11.5368 45.8752C11.0661 45.8752 10.6846 46.2568 10.6846 46.7274C10.6846 47.1981 11.0661 47.5796 11.5368 47.5796Z" fill="#ABB8EB"/>
<path opacity="0.4" d="M8.95169 48.8013C9.31253 48.8013 9.60504 48.5088 9.60504 48.148C9.60504 47.7871 9.31253 47.4946 8.95169 47.4946C8.59086 47.4946 8.29834 47.7871 8.29834 48.148C8.29834 48.5088 8.59086 48.8013 8.95169 48.8013Z" fill="#ABB8EB"/>
</svg>
