<svg width="40" height="40" viewBox="0 0 40 40" fill="none" xmlns="http://www.w3.org/2000/svg">
<circle cx="20" cy="20" r="20" fill="white"/>
<circle cx="20" cy="20" r="17" fill="url(#paint0_linear_0_1397)"/>
<g clip-path="url(#clip0_0_1397)">
<path d="M12.4742 33.0764L12.4548 22.4377L19.4011 26.1129C20.4089 26.6472 20.4605 28.0722 19.4937 28.6778L12.4741 33.0764H12.4742Z" fill="white"/>
<path d="M12.4365 12.3648L12.4268 7L35 18.9619L32.1175 20.768C31.033 21.4476 29.6677 21.4954 28.5385 20.8932L12.4365 12.3648Z" fill="white" fill-opacity="0.6"/>
<path d="M24.5187 26.3299L9 18.2089V12.8459L22.2398 19.7505C24.9599 21.2332 24.6774 22.4638 24.5187 26.3297V26.3299Z" fill="white"/>
</g>
<defs>
<linearGradient id="paint0_linear_0_1397" x1="38" y1="3" x2="13" y2="28" gradientUnits="userSpaceOnUse">
<stop stop-color="#6260FD"/>
<stop offset="1" stop-color="#6866F6"/>
</linearGradient>
<clipPath id="clip0_0_1397">
<rect width="26" height="26.0763" fill="white" transform="translate(9 7)"/>
</clipPath>
</defs>
</svg>
