<svg width="40" height="40" viewBox="0 0 40 40" fill="none" xmlns="http://www.w3.org/2000/svg">
<circle cx="20" cy="20" r="20" fill="white"/>
<circle cx="20" cy="20" r="17" fill="#F0B90B"/>
<path d="M11 25.9799L13.55 25.9899C14.46 25.9899 15.31 25.5399 15.81 24.7899L22.2 15.2099C22.7 14.4599 23.55 13.9999 24.46 14.0099L29.01 14.0299" stroke="white" stroke-width="1.5" stroke-linecap="round" stroke-linejoin="round"/>
<path d="M27 27.98L29 25.98" stroke="white" stroke-width="1.5" stroke-linecap="round" stroke-linejoin="round"/>
<path d="M16.89 16.6197L15.81 15.1197C15.3 14.4097 14.48 13.9897 13.61 13.9997L11 14.0097" stroke="white" stroke-width="1.5" stroke-linecap="round" stroke-linejoin="round"/>
<path d="M20.97 23.3804L22.19 24.9504C22.7 25.6104 23.5 26.0004 24.34 26.0004L29.01 25.9803" stroke="white" stroke-width="1.5" stroke-linecap="round" stroke-linejoin="round"/>
<path d="M29 14.02L27 12.02" stroke="white" stroke-width="1.5" stroke-linecap="round" stroke-linejoin="round"/>
</svg>
