<svg width="19" height="19" viewBox="0 0 19 19" fill="none" xmlns="http://www.w3.org/2000/svg">
<g clip-path="url(#clip0_0_1564)">
<path d="M5.5571 4.5625C8.36085 4.5625 10.6335 6.85107 10.6335 9.67397C10.6335 12.4969 8.36068 14.7853 5.5571 14.7853C2.75352 14.7853 0.480469 12.4969 0.480469 9.67397C0.480469 6.85107 2.75334 4.5625 5.5571 4.5625ZM13.6641 4.86192C15.066 4.86192 16.2024 7.01613 16.2024 9.67397H16.2026C16.2026 12.3311 15.0662 14.486 13.6643 14.486C12.2624 14.486 11.126 12.3311 11.126 9.67397C11.126 7.01682 12.2622 4.86192 13.6641 4.86192ZM17.5877 5.36313C18.0807 5.36313 18.4805 7.29312 18.4805 9.67397C18.4805 12.0541 18.0808 13.9848 17.5877 13.9848C17.0946 13.9848 16.6952 12.0546 16.6952 9.67397C16.6952 7.2933 17.0948 5.36313 17.5877 5.36313Z" fill="#ABB8EB"/>
</g>
<defs>
<clipPath id="clip0_0_1564">
<rect width="18" height="18" fill="white" transform="translate(0.480469 0.660156)"/>
</clipPath>
</defs>
</svg>
