<svg width="38" height="38" viewBox="0 0 38 38" fill="none" xmlns="http://www.w3.org/2000/svg">
<path fill-rule="evenodd" clip-rule="evenodd" d="M19 38C8.5066 38 0 29.4934 0 19C0 8.50658 8.5066 0 19 0C29.4934 0 38 8.50658 38 19C38 29.4934 29.4934 38 19 38ZM11.5188 13.8938C11.6375 14.0125 11.7562 14.25 11.7562 14.4875V22.8C11.875 23.1562 11.7562 23.3938 11.5188 23.6313L9.5 26.0063V26.3625H15.0813V26.0063L13.0625 23.6313C12.9437 23.3938 12.825 23.1562 12.825 22.8V15.5563L17.8125 26.3625H18.2875L22.5625 15.5563V24.225C22.5625 24.4625 22.5625 24.5813 22.4437 24.7L20.9 26.2438V26.6H28.3812V26.2438L26.9563 24.8188C26.8375 24.7 26.8375 24.4625 26.8375 24.3438V13.6562C26.7188 13.4188 26.8375 13.3 26.9563 13.1813L28.5 11.7563V11.4H23.275L19.475 20.7812L15.2 11.4H9.73751V11.7563L11.5188 13.8938Z" fill="#ABB8EB"/>
</svg>
