<svg width="19" height="19" viewBox="0 0 19 19" fill="none" xmlns="http://www.w3.org/2000/svg">
<path fill-rule="evenodd" clip-rule="evenodd" d="M18.4805 9.66016C18.4805 14.6307 14.451 18.6602 9.48047 18.6602C4.50991 18.6602 0.480469 14.6307 0.480469 9.66016C0.480469 4.68959 4.50991 0.660156 9.48047 0.660156C14.451 0.660156 18.4805 4.68959 18.4805 9.66016ZM9.80298 7.30435C8.9276 7.66846 7.17806 8.42206 4.55438 9.56515C4.12833 9.73458 3.90515 9.90032 3.88484 10.0624C3.8505 10.3363 4.1935 10.4441 4.66056 10.591C4.7241 10.611 4.78993 10.6317 4.85741 10.6536C5.31694 10.803 5.93508 10.9777 6.25643 10.9847C6.54792 10.991 6.87325 10.8708 7.23244 10.6242C9.68383 8.96941 10.9492 8.13302 11.0287 8.11499C11.0847 8.10226 11.1624 8.08627 11.215 8.13304C11.2677 8.17982 11.2625 8.2684 11.2569 8.29216C11.2229 8.43701 9.87657 9.68872 9.17981 10.3365C8.96259 10.5384 8.80851 10.6817 8.77702 10.7144C8.70646 10.7877 8.63456 10.857 8.56545 10.9236C8.13854 11.3352 7.8184 11.6438 8.58317 12.1478C8.95067 12.3899 9.24475 12.5902 9.53814 12.79C9.85857 13.0082 10.1782 13.2259 10.5917 13.4969C10.697 13.566 10.7976 13.6377 10.8956 13.7076C11.2685 13.9734 11.6035 14.2122 12.0174 14.1741C12.2579 14.152 12.5063 13.9259 12.6325 13.2514C12.9306 11.6575 13.5167 8.204 13.6521 6.78089C13.664 6.65621 13.6491 6.49664 13.6371 6.42659C13.6251 6.35654 13.6 6.25674 13.509 6.18286C13.4012 6.09536 13.2347 6.07691 13.1602 6.07822C12.8217 6.08418 12.3024 6.26477 9.80298 7.30435Z" fill="#ABB8EB"/>
</svg>
