<svg width="38" height="38" viewBox="0 0 38 38" fill="none" xmlns="http://www.w3.org/2000/svg">
<path fill-rule="evenodd" clip-rule="evenodd" d="M0 19C0 8.50659 8.50659 0 19 0C29.4934 0 38 8.50659 38 19C38 29.4934 29.4934 38 19 38C8.50659 38 0 29.4934 0 19ZM26.2437 13.6562C27.075 13.5375 27.7875 13.4187 28.5 13.0625C28.025 13.8938 27.3125 14.6062 26.4812 15.0813C26.7188 20.6625 22.6812 26.7188 15.4375 26.7188C13.3 26.7188 11.2812 26.0063 9.5 24.9375C11.5188 25.175 13.6562 24.5812 15.0813 23.5125C13.3 23.5125 11.875 22.325 11.4 20.7812C11.9938 20.9 12.5875 20.7812 13.1813 20.6625C11.4 20.1875 10.0938 18.525 10.0938 16.7437C10.6875 16.9813 11.2812 17.2188 11.875 17.2188C10.2125 16.0312 9.61875 13.775 10.6875 11.9938C12.7063 14.3688 15.5563 15.9125 18.7625 16.0312C18.1688 13.6562 20.0688 11.2812 22.5625 11.2812C23.6313 11.2812 24.7 11.7562 25.4125 12.4688C26.3625 12.2312 27.1938 11.9937 27.9062 11.5188C27.6687 12.4688 27.075 13.1813 26.2437 13.6562Z" fill="#ABB8EB"/>
</svg>
