<svg width="19" height="19" viewBox="0 0 19 19" fill="none" xmlns="http://www.w3.org/2000/svg">
<path d="M16.6377 5.90604C16.6487 6.06878 16.6487 6.23152 16.6487 6.39575C16.6487 11.4001 12.9339 17.1717 6.14116 17.1717V17.1687C4.13458 17.1717 2.16968 16.5822 0.480469 15.4708C0.772242 15.5068 1.06548 15.5248 1.35945 15.5256C3.02233 15.5271 4.63769 14.9549 5.94592 13.9012C4.36566 13.8704 2.97992 12.8138 2.49583 11.2711C3.04939 11.3806 3.61977 11.3581 4.1631 11.2059C2.44025 10.8489 1.20076 9.29654 1.20076 7.49367C1.20076 7.47717 1.20076 7.46142 1.20076 7.44567C1.71411 7.7389 2.28888 7.90164 2.87681 7.91964C1.25414 6.80747 0.753961 4.59364 1.73385 2.86277C3.60881 5.22884 6.37517 6.66723 9.34482 6.81947C9.0472 5.50407 9.45378 4.12567 10.4132 3.20099C11.9006 1.7671 14.2399 1.8406 15.6381 3.36523C16.4651 3.19799 17.2578 2.88677 17.9832 2.4458C17.7075 3.32249 17.1306 4.06718 16.3598 4.54039C17.0918 4.4519 17.807 4.25092 18.4805 3.94419C17.9847 4.70613 17.3602 5.36983 16.6377 5.90604Z" fill="#ABB8EB"/>
</svg>
