<svg width="51" height="51" viewBox="0 0 51 51" fill="none" xmlns="http://www.w3.org/2000/svg">
<rect x="0.333008" y="0.210754" width="50" height="50" rx="4" fill="url(#paint0_linear_364_4570)"/>
<path d="M21.172 25.2748C21.172 22.9717 23.038 21.1041 25.3405 21.1041C27.643 21.1041 29.51 22.9717 29.51 25.2748C29.51 27.578 27.643 29.4455 25.3405 29.4455C23.038 29.4455 21.172 27.578 21.172 25.2748ZM18.9181 25.2748C18.9181 28.823 21.7934 31.6992 25.3405 31.6992C28.8876 31.6992 31.763 28.823 31.763 25.2748C31.763 21.7267 28.8876 18.8505 25.3405 18.8505C21.7934 18.8505 18.9181 21.7267 18.9181 25.2748ZM30.5163 18.5958C30.5162 18.8927 30.6041 19.1831 30.7689 19.43C30.9337 19.677 31.1681 19.8695 31.4423 19.9832C31.7165 20.097 32.0183 20.1268 32.3094 20.069C32.6006 20.0112 32.8681 19.8683 33.0781 19.6584C33.2881 19.4486 33.4311 19.1811 33.4892 18.8899C33.5472 18.5987 33.5176 18.2968 33.4041 18.0224C33.2906 17.7481 33.0983 17.5135 32.8516 17.3484C32.6048 17.1834 32.3147 17.0952 32.0178 17.0951H32.0172C31.6193 17.0953 31.2377 17.2534 30.9563 17.5348C30.6749 17.8162 30.5167 18.1978 30.5163 18.5958ZM20.2875 35.4586C19.068 35.403 18.4052 35.1999 17.9648 35.0282C17.3808 34.8008 16.9642 34.53 16.5261 34.0924C16.0881 33.6548 15.8169 33.2384 15.5906 32.6543C15.4189 32.2139 15.2157 31.5507 15.1603 30.3309C15.0997 29.0122 15.0876 28.616 15.0876 25.2749C15.0876 21.9339 15.1007 21.5388 15.1603 20.219C15.2158 18.9992 15.4205 18.3373 15.5906 17.8956C15.8179 17.3115 16.0887 16.8947 16.5261 16.4565C16.9636 16.0183 17.3798 15.7471 17.9648 15.5207C18.405 15.3489 19.068 15.1457 20.2875 15.0903C21.6059 15.0296 22.0019 15.0175 25.3405 15.0175C28.6791 15.0175 29.0755 15.0306 30.395 15.0903C31.6145 15.1458 32.2762 15.3505 32.7177 15.5207C33.3017 15.7471 33.7183 16.0189 34.1564 16.4565C34.5945 16.8941 34.8646 17.3115 35.092 17.8956C35.2637 18.336 35.4668 18.9992 35.5222 20.219C35.5829 21.5388 35.595 21.9339 35.595 25.2749C35.595 28.616 35.5829 29.0111 35.5222 30.3309C35.4667 31.5507 35.2626 32.2137 35.092 32.6543C34.8646 33.2384 34.5939 33.6552 34.1564 34.0924C33.7189 34.5296 33.3017 34.8008 32.7177 35.0282C32.2775 35.2 31.6145 35.4031 30.395 35.4586C29.0766 35.5192 28.6806 35.5314 25.3405 35.5314C22.0004 35.5314 21.6055 35.5192 20.2875 35.4586ZM20.1839 12.8395C18.8524 12.9002 17.9426 13.1113 17.148 13.4206C16.3251 13.74 15.6285 14.1685 14.9324 14.8637C14.2362 15.5589 13.809 16.2568 13.4897 17.08C13.1805 17.8753 12.9694 18.7849 12.9088 20.1168C12.8471 21.4507 12.833 21.8772 12.833 25.2748C12.833 28.6725 12.8471 29.0989 12.9088 30.4329C12.9694 31.7649 13.1805 32.6744 13.4897 33.4697C13.809 34.2924 14.2363 34.9911 14.9324 35.686C15.6284 36.3809 16.3251 36.8088 17.148 37.1291C17.9441 37.4383 18.8524 37.6495 20.1839 37.7102C21.5182 37.7708 21.9439 37.786 25.3405 37.786C28.7371 37.786 29.1635 37.7718 30.4971 37.7102C31.8287 37.6495 32.7379 37.4383 33.533 37.1291C34.3554 36.8088 35.0525 36.3812 35.7486 35.686C36.4448 34.9908 36.8711 34.2924 37.1913 33.4697C37.5005 32.6744 37.7126 31.7648 37.7723 30.4329C37.8329 29.0979 37.847 28.6725 37.847 25.2748C37.847 21.8772 37.8329 21.4507 37.7723 20.1168C37.7116 18.7848 37.5005 17.8748 37.1913 17.08C36.8711 16.2573 36.4437 15.56 35.7486 14.8637C35.0536 14.1674 34.3554 13.74 33.534 13.4206C32.7379 13.1113 31.8286 12.8992 30.4981 12.8395C29.1645 12.7788 28.7381 12.7637 25.3415 12.7637C21.9449 12.7637 21.5182 12.7778 20.1839 12.8395Z" fill="white"/>
<defs>
<linearGradient id="paint0_linear_364_4570" x1="49.372" y1="50.2108" x2="-0.627991" y2="0.210753" gradientUnits="userSpaceOnUse">
<stop stop-color="#FBE18A"/>
<stop offset="0.21" stop-color="#FCBB45"/>
<stop offset="0.38" stop-color="#F75274"/>
<stop offset="0.52" stop-color="#D53692"/>
<stop offset="0.74" stop-color="#8F39CE"/>
<stop offset="1" stop-color="#5B4FE9"/>
</linearGradient>
</defs>
</svg>
