<svg width="51" height="51" viewBox="0 0 51 51" fill="none" xmlns="http://www.w3.org/2000/svg">
<rect x="0.333008" y="0.210754" width="50" height="50" rx="6" fill="#34AADF"/>
<path d="M14.2431 24.3252C14.2431 24.3252 24.4154 20.0407 27.9434 18.5321C29.2958 17.9287 33.8822 15.9976 33.8822 15.9976C33.8822 15.9976 35.999 15.1528 35.8226 17.2045C35.7637 18.0494 35.2934 21.0062 34.823 24.2045C34.1173 28.7303 33.353 33.6786 33.353 33.6786C33.353 33.6786 33.2354 35.0665 32.2358 35.3079C31.2362 35.5493 29.5898 34.4631 29.2958 34.2217C29.0606 34.0407 24.8858 31.3251 23.357 29.9975C22.9454 29.6355 22.4751 28.9114 23.4158 28.0666C25.5326 26.0752 28.061 23.6011 29.5898 22.0321C30.2954 21.3079 31.0009 19.6183 28.061 21.67C23.8862 24.6269 19.7703 27.4028 19.7703 27.4028C19.7703 27.4028 18.8294 28.0062 17.0655 27.4631C15.3014 26.92 13.2434 26.1959 13.2434 26.1959C13.2434 26.1959 11.8323 25.2907 14.2431 24.3252Z" fill="white"/>
</svg>
