<svg width="51" height="51" viewBox="0 0 51 51" fill="none" xmlns="http://www.w3.org/2000/svg">
<rect x="0.333008" y="0.210754" width="50" height="50" rx="4" fill="#33CCFF"/>
<path d="M37.7425 17.2948C36.9169 17.6504 36.049 17.8981 35.1601 18.0316C35.5757 17.9603 36.1871 17.2116 36.4305 16.9086C36.8003 16.4515 37.0821 15.9297 37.2616 15.3697C37.2616 15.3281 37.3032 15.2687 37.2616 15.239C37.2407 15.2275 37.2172 15.2216 37.1933 15.2216C37.1695 15.2216 37.146 15.2275 37.1251 15.239C36.1599 15.7621 35.1328 16.1614 34.0678 16.4273C34.0307 16.4387 33.9912 16.4397 33.9536 16.4303C33.9159 16.4208 33.8815 16.4013 33.8541 16.3738C33.7712 16.2751 33.682 16.1818 33.587 16.0946C33.1526 15.7051 32.6598 15.3863 32.1266 15.1499C31.4069 14.8543 30.6294 14.7263 29.853 14.7755C29.0996 14.8232 28.3641 15.0254 27.6921 15.3697C27.0305 15.7327 26.4489 16.2258 25.9825 16.8195C25.4918 17.4305 25.1376 18.1396 24.9436 18.8991C24.7836 19.6215 24.7655 20.3681 24.8902 21.0975C24.8902 21.2223 24.8902 21.2401 24.7833 21.2223C20.5507 20.5984 17.0779 19.0951 14.2403 15.8688C14.1156 15.7262 14.0503 15.7262 13.9494 15.8688C12.7146 17.7464 13.3142 20.7172 14.8577 22.1848C15.0654 22.3809 15.2791 22.571 15.5047 22.7493C14.797 22.699 14.1067 22.507 13.4745 22.1848C13.3557 22.1076 13.2904 22.1492 13.2845 22.2918C13.2677 22.4895 13.2677 22.6882 13.2845 22.8859C13.4084 23.8334 13.7814 24.7309 14.3655 25.4867C14.9496 26.2426 15.7238 26.8296 16.6089 27.1877C16.8247 27.2802 17.0495 27.3499 17.2797 27.3957C16.6246 27.5247 15.9527 27.5448 15.291 27.4551C15.1485 27.4254 15.0951 27.5026 15.1485 27.6393C16.0212 30.0159 17.9149 30.7408 19.304 31.1449C19.494 31.1746 19.6839 31.1746 19.8977 31.2221C19.8977 31.2221 19.8977 31.2221 19.862 31.2577C19.4524 32.0064 17.7962 32.5114 17.0363 32.7729C15.6494 33.2715 14.1706 33.4621 12.7027 33.3314C12.4712 33.2957 12.4178 33.3017 12.3584 33.3314C12.2991 33.3611 12.3584 33.4265 12.4237 33.4859C12.7205 33.6819 13.0174 33.8543 13.3261 34.0206C14.245 34.5223 15.2166 34.9208 16.223 35.209C21.4352 36.6468 27.3003 35.5892 31.2124 31.6974C34.2875 28.6434 35.3679 24.4308 35.3679 20.2122C35.3679 20.0517 35.5638 19.9567 35.6766 19.8735C36.4546 19.2668 37.1404 18.5503 37.7128 17.7464C37.8119 17.6265 37.8627 17.474 37.8553 17.3186C37.8553 17.2295 37.8553 17.2473 37.7425 17.2948Z" fill="white"/>
</svg>
