<svg width="51" height="51" viewBox="0 0 51 51" fill="none" xmlns="http://www.w3.org/2000/svg">
<rect x="0.333008" y="0.210754" width="50" height="50" rx="4" fill="#FF0000"/>
<path d="M39.24 18.3336C38.9136 17.1063 37.9479 16.1381 36.7192 15.8063C34.4976 15.2109 25.584 15.2109 25.584 15.2109C25.584 15.2109 16.6749 15.2109 14.4488 15.8063C13.2246 16.1336 12.2589 17.1018 11.9279 18.3336C11.334 20.5609 11.334 25.2109 11.334 25.2109C11.334 25.2109 11.334 29.8609 11.9279 32.0882C12.2544 33.3154 13.2201 34.2836 14.4488 34.6154C16.6749 35.2109 25.584 35.2109 25.584 35.2109C25.584 35.2109 34.4976 35.2109 36.7192 34.6154C37.9434 34.2881 38.9091 33.32 39.24 32.0882C39.834 29.8609 39.834 25.2109 39.834 25.2109C39.834 25.2109 39.834 20.5609 39.24 18.3336Z" fill="white"/>
<path d="M22.7367 29.4972L30.1405 25.2109L22.7367 20.9245V29.4972Z" fill="#FF0000"/>
</svg>
