<svg width="21" height="21" viewBox="0 0 21 21" fill="none" xmlns="http://www.w3.org/2000/svg">
<g clip-path="url(#clip0_352_4107)">
<path d="M10.1689 20.2349C15.6918 20.2349 20.1689 15.7577 20.1689 10.2349C20.1689 4.71202 15.6918 0.234863 10.1689 0.234863C4.6461 0.234863 0.168945 4.71202 0.168945 10.2349C0.168945 15.7577 4.6461 20.2349 10.1689 20.2349Z" fill="#F0F0F0"/>
<path d="M20.169 10.2348C20.169 6.27018 17.8618 2.84455 14.5168 1.22705V19.2425C17.8618 17.625 20.169 14.1994 20.169 10.2348Z" fill="#D80027"/>
<path d="M0.168945 10.2348C0.168945 14.1994 2.47617 17.625 5.82113 19.2425V1.22705C2.47617 2.84455 0.168945 6.27018 0.168945 10.2348Z" fill="#D80027"/>
<path d="M11.9081 11.5392L13.6472 10.6696L12.7776 10.2349V9.36531L11.0385 10.2349L11.9081 8.49574H11.0385L10.1689 7.19141L9.29935 8.49574H8.42978L9.29935 10.2349L7.5602 9.36531V10.2349L6.69067 10.6696L8.42978 11.5392L7.99501 12.4088H9.73415V13.7131H10.6037V12.4088H12.3428L11.9081 11.5392Z" fill="#D80027"/>
</g>
<defs>
<clipPath id="clip0_352_4107">
<rect width="20" height="20" fill="white" transform="translate(0.168945 0.234863)"/>
</clipPath>
</defs>
</svg>
