<svg width="21" height="21" viewBox="0 0 21 21" fill="none" xmlns="http://www.w3.org/2000/svg">
<g clip-path="url(#clip0_352_4135)">
<path d="M10.1689 20.2349C15.6918 20.2349 20.1689 15.7577 20.1689 10.2349C20.1689 4.71202 15.6918 0.234863 10.1689 0.234863C4.6461 0.234863 0.168945 4.71202 0.168945 10.2349C0.168945 15.7577 4.6461 20.2349 10.1689 20.2349Z" fill="#D80027"/>
<path d="M9.75938 8.40625L10.5799 9.53691L11.9087 9.10605L11.0869 10.2357L11.9073 11.3664L10.5789 10.9339L9.75719 12.0636L9.75805 10.6666L8.42969 10.2341L9.75852 9.80328L9.75938 8.40625Z" fill="#F0F0F0"/>
<path d="M7.52027 13.061C5.95949 13.061 4.69418 11.7957 4.69418 10.2349C4.69418 8.67409 5.95949 7.40878 7.52027 7.40878C8.00691 7.40878 8.4648 7.53187 8.86457 7.74847C8.23742 7.13511 7.37973 6.75659 6.43332 6.75659C4.5123 6.75659 2.95508 8.31386 2.95508 10.2348C2.95508 12.1558 4.51234 13.7131 6.43332 13.7131C7.3798 13.7131 8.23746 13.3345 8.86457 12.7212C8.4648 12.9379 8.00691 13.061 7.52027 13.061Z" fill="#F0F0F0"/>
</g>
<defs>
<clipPath id="clip0_352_4135">
<rect width="20" height="20" fill="white" transform="translate(0.168945 0.234863)"/>
</clipPath>
</defs>
</svg>
