<svg width="21" height="21" viewBox="0 0 21 21" fill="none" xmlns="http://www.w3.org/2000/svg">
<g clip-path="url(#clip0_350_5405)">
<path d="M10.1689 20.2349C15.6918 20.2349 20.1689 15.7577 20.1689 10.2349C20.1689 4.71202 15.6918 0.234863 10.1689 0.234863C4.6461 0.234863 0.168945 4.71202 0.168945 10.2349C0.168945 15.7577 4.6461 20.2349 10.1689 20.2349Z" fill="#F0F0F0"/>
<path d="M20.169 10.2349C20.169 5.93529 17.4552 2.26986 13.6472 0.856934V19.613C17.4552 18.2 20.169 14.5346 20.169 10.2349Z" fill="#D80027"/>
<path d="M0.168945 10.2349C0.168945 14.5346 2.88273 18.2 6.6907 19.6129V0.856934C2.88273 2.26986 0.168945 5.93529 0.168945 10.2349Z" fill="#0052B4"/>
</g>
<defs>
<clipPath id="clip0_350_5405">
<rect width="20" height="20" fill="white" transform="translate(0.168945 0.234863)"/>
</clipPath>
</defs>
</svg>
