<svg width="21" height="21" viewBox="0 0 21 21" fill="none" xmlns="http://www.w3.org/2000/svg">
<g clip-path="url(#clip0_350_5390)">
<path d="M10.1689 20.2349C15.6918 20.2349 20.1689 15.7577 20.1689 10.2349C20.1689 4.71202 15.6918 0.234863 10.1689 0.234863C4.6461 0.234863 0.168945 4.71202 0.168945 10.2349C0.168945 15.7577 4.6461 20.2349 10.1689 20.2349Z" fill="#F0F0F0"/>
<path d="M19.547 13.7131C19.9489 12.6298 20.1689 11.458 20.1689 10.2348C20.1689 9.01163 19.9489 7.83991 19.547 6.75659H0.790938C0.388984 7.83991 0.168945 9.01163 0.168945 10.2348C0.168945 11.458 0.388984 12.6298 0.790938 13.7131L10.1689 14.5826L19.547 13.7131Z" fill="#0052B4"/>
<path d="M10.169 20.2349C14.4687 20.2349 18.1341 17.5211 19.547 13.7131H0.791016C2.20395 17.5211 5.86937 20.2349 10.169 20.2349Z" fill="#D80027"/>
</g>
<defs>
<clipPath id="clip0_350_5390">
<rect width="20" height="20" fill="white" transform="translate(0.168945 0.234863)"/>
</clipPath>
</defs>
</svg>
