<svg width="21" height="21" viewBox="0 0 21 21" fill="none" xmlns="http://www.w3.org/2000/svg">
<g clip-path="url(#clip0_352_4155)">
<path d="M10.1689 20.2349C15.6918 20.2349 20.1689 15.7577 20.1689 10.2349C20.1689 4.71202 15.6918 0.234863 10.1689 0.234863C4.6461 0.234863 0.168945 4.71202 0.168945 10.2349C0.168945 15.7577 4.6461 20.2349 10.1689 20.2349Z" fill="#F0F0F0"/>
<path d="M10.1689 0.234863C6.20426 0.234863 2.77863 2.54209 1.16113 5.88705H19.1766C17.5591 2.54209 14.1334 0.234863 10.1689 0.234863V0.234863Z" fill="#FF9811"/>
<path d="M10.1689 20.235C14.1334 20.235 17.5591 17.9277 19.1766 14.5828H1.16113C2.77863 17.9277 6.20426 20.235 10.1689 20.235Z" fill="#6DA544"/>
<path d="M10.1689 13.7131C12.0899 13.7131 13.6472 12.1558 13.6472 10.2348C13.6472 8.31385 12.0899 6.75659 10.1689 6.75659C8.24794 6.75659 6.69067 8.31385 6.69067 10.2348C6.69067 12.1558 8.24794 13.7131 10.1689 13.7131Z" fill="#0052B4"/>
<path d="M10.169 12.4088C11.3696 12.4088 12.3429 11.4356 12.3429 10.2349C12.3429 9.03433 11.3696 8.06104 10.169 8.06104C8.96841 8.06104 7.99512 9.03433 7.99512 10.2349C7.99512 11.4356 8.96841 12.4088 10.169 12.4088Z" fill="#F0F0F0"/>
<path d="M10.1689 7.55225L10.8395 9.07326L12.492 8.89353L11.5102 10.2348L12.492 11.5761L10.8395 11.3964L10.1689 12.9174L9.4982 11.3964L7.8457 11.5761L8.82758 10.2348L7.8457 8.89353L9.4982 9.07326L10.1689 7.55225Z" fill="#0052B4"/>
</g>
<defs>
<clipPath id="clip0_352_4155">
<rect width="20" height="20" fill="white" transform="translate(0.168945 0.234863)"/>
</clipPath>
</defs>
</svg>
