<svg width="21" height="21" viewBox="0 0 21 21" fill="none" xmlns="http://www.w3.org/2000/svg">
<g clip-path="url(#clip0_350_5363)">
<path d="M10.1689 20.2349C15.6918 20.2349 20.1689 15.7577 20.1689 10.2349C20.1689 4.71202 15.6918 0.234863 10.1689 0.234863C4.6461 0.234863 0.168945 4.71202 0.168945 10.2349C0.168945 15.7577 4.6461 20.2349 10.1689 20.2349Z" fill="#F0F0F0"/>
<path d="M9.73413 10.2347H20.1689C20.1689 9.33211 20.0486 8.45773 19.8244 7.62598H9.73413V10.2347Z" fill="#D80027"/>
<path d="M9.73413 5.0174H18.7012C18.089 4.0185 17.3063 3.13557 16.3937 2.40869H9.73413V5.0174Z" fill="#D80027"/>
<path d="M10.1689 20.2347C12.5224 20.2347 14.6856 19.4213 16.3938 18.0608H3.94409C5.65229 19.4213 7.81546 20.2347 10.1689 20.2347Z" fill="#D80027"/>
<path d="M1.63667 15.4522H18.7012C19.1926 14.6503 19.5738 13.7737 19.8244 12.8435H0.513428C0.764092 13.7737 1.14522 14.6503 1.63667 15.4522Z" fill="#D80027"/>
<path d="M4.80113 1.7965H5.71242L4.86477 2.41232L5.18855 3.40877L4.34094 2.79295L3.49332 3.40877L3.77301 2.54795C3.02668 3.16963 2.37254 3.89799 1.83348 4.70955H2.12547L1.5859 5.10154C1.50184 5.24178 1.42121 5.38424 1.34395 5.52881L1.6016 6.32182L1.1209 5.97256C1.00141 6.22572 0.892109 6.48459 0.793867 6.74885L1.07773 7.6226H2.12547L1.27781 8.23842L1.6016 9.23486L0.753984 8.61904L0.24625 8.98795C0.19543 9.39646 0.168945 9.81256 0.168945 10.2349H10.1689C10.1689 4.71205 10.1689 4.06096 10.1689 0.234863C8.19348 0.234863 6.35195 0.80791 4.80113 1.7965ZM5.18855 9.23486L4.34094 8.61904L3.49332 9.23486L3.81711 8.23842L2.96945 7.6226H4.01719L4.34094 6.62615L4.66469 7.6226H5.71242L4.86477 8.23842L5.18855 9.23486ZM4.86477 5.32537L5.18855 6.32182L4.34094 5.706L3.49332 6.32182L3.81711 5.32537L2.96945 4.70955H4.01719L4.34094 3.71311L4.66469 4.70955H5.71242L4.86477 5.32537ZM8.77551 9.23486L7.92789 8.61904L7.08027 9.23486L7.40406 8.23842L6.55641 7.6226H7.60414L7.92789 6.62615L8.25164 7.6226H9.29937L8.45172 8.23842L8.77551 9.23486ZM8.45172 5.32537L8.77551 6.32182L7.92789 5.706L7.08027 6.32182L7.40406 5.32537L6.55641 4.70955H7.60414L7.92789 3.71311L8.25164 4.70955H9.29937L8.45172 5.32537ZM8.45172 2.41232L8.77551 3.40877L7.92789 2.79295L7.08027 3.40877L7.40406 2.41232L6.55641 1.7965H7.60414L7.92789 0.800059L8.25164 1.7965H9.29937L8.45172 2.41232Z" fill="#0052B4"/>
</g>
<defs>
<clipPath id="clip0_350_5363">
<rect width="20" height="20" fill="white" transform="translate(0.168945 0.234863)"/>
</clipPath>
</defs>
</svg>
