<svg width="21" height="21" viewBox="0 0 21 21" fill="none" xmlns="http://www.w3.org/2000/svg">
<g clip-path="url(#clip0_352_4121)">
<path d="M0.791016 13.713C2.20395 17.521 5.86937 20.2348 10.169 20.2348C14.4687 20.2348 18.1341 17.521 19.547 13.713L10.169 12.8435L0.791016 13.713Z" fill="#FFDA44"/>
<path d="M10.169 0.234863C5.86937 0.234863 2.20395 2.94861 0.791016 6.75662L10.169 7.62615L19.547 6.75658C18.1341 2.94861 14.4687 0.234863 10.169 0.234863Z" fill="black"/>
<path d="M0.790938 6.75659C0.388984 7.83991 0.168945 9.01163 0.168945 10.2348C0.168945 11.458 0.388984 12.6298 0.790938 13.7131H19.547C19.9489 12.6298 20.1689 11.458 20.1689 10.2348C20.1689 9.01163 19.9489 7.83991 19.547 6.75659H0.790938Z" fill="#D80027"/>
</g>
<defs>
<clipPath id="clip0_352_4121">
<rect width="20" height="20" fill="white" transform="translate(0.168945 0.234863)"/>
</clipPath>
</defs>
</svg>
