<svg width="94" height="94" viewBox="0 0 94 94" fill="none" xmlns="http://www.w3.org/2000/svg">
<path d="M82.4347 64.652L56.8103 18.8386C54.869 14.9561 50.9866 13.0149 46.7158 13.0149C42.4451 13.0149 38.5626 14.9561 36.6214 18.8386L10.9969 64.652C9.0557 68.1462 9.0557 72.8052 10.9969 76.2994C12.9382 79.7937 16.8207 82.1232 21.0914 82.1232H72.3402C76.611 82.1232 80.1052 79.7937 82.4347 76.2994C84.7642 72.8052 84.376 68.5345 82.4347 64.652ZM75.8345 72.4169C75.4462 72.8052 74.6697 74.3582 72.3402 74.3582H21.0914C19.1502 74.3582 17.9854 73.1934 17.5972 72.4169C17.2089 71.6404 16.4324 70.4757 17.5972 68.5345L43.2216 22.3329C44.3863 20.3916 45.9393 20.3916 46.7158 20.3916C47.4923 20.3916 49.0453 20.3916 50.2101 22.3329L75.8345 68.5345C76.611 70.4757 75.8345 72.0287 75.8345 72.4169Z" fill="#F0B90B"/>
<path d="M46.7155 35.5332C44.386 35.5332 42.833 37.0862 42.833 39.4157V51.0632C42.833 53.3926 44.386 54.9456 46.7155 54.9456C49.045 54.9456 50.598 53.3926 50.598 51.0632V39.4157C50.598 37.0862 49.045 35.5332 46.7155 35.5332Z" fill="#F0B90B"/>
<path d="M46.7155 66.5931C48.8597 66.5931 50.598 64.8549 50.598 62.7106C50.598 60.5664 48.8597 58.8281 46.7155 58.8281C44.5713 58.8281 42.833 60.5664 42.833 62.7106C42.833 64.8549 44.5713 66.5931 46.7155 66.5931Z" fill="#F0B90B"/>
</svg>
