<svg width="25" height="25" viewBox="0 0 25 25" fill="none" xmlns="http://www.w3.org/2000/svg">
<path d="M4.8125 17.2545V19.3075C4.8125 20.4125 5.7075 21.3075 6.8125 21.3075H18.8125C19.9175 21.3075 20.8125 20.4125 20.8125 19.3075V11.0515" stroke="#6866F6" stroke-width="1.5" stroke-linecap="round" stroke-linejoin="round"/>
<path d="M4.8125 13.7545V5.3075C4.8125 4.2025 5.7075 3.3075 6.8125 3.3075H18.8125C19.9175 3.3075 20.8125 4.2025 20.8125 5.3075V7.5515" stroke="#6866F6" stroke-width="1.5" stroke-linecap="round" stroke-linejoin="round"/>
<path d="M6.04407 14.2671C6.72749 14.9505 6.72749 16.0585 6.04407 16.742C5.36066 17.4254 4.25261 17.4254 3.5692 16.742C2.88579 16.0585 2.88579 14.9505 3.5692 14.2671C4.25262 13.5837 5.36066 13.5837 6.04407 14.2671" stroke="#6866F6" stroke-width="1.5" stroke-linecap="round" stroke-linejoin="round"/>
<path fill-rule="evenodd" clip-rule="evenodd" d="M13.7617 15.3045C13.7617 14.3385 14.5447 13.5545 15.5117 13.5545C16.4787 13.5545 17.2617 14.3375 17.2617 15.3045C17.2617 16.2715 16.4787 17.0545 15.5117 17.0545C14.5487 17.0585 13.7657 16.2815 13.7617 15.3185C13.7617 15.3135 13.7617 15.3095 13.7617 15.3045Z" stroke="#6866F6" stroke-width="1.5" stroke-linecap="round" stroke-linejoin="round"/>
<path d="M11.4376 8.06408C12.121 8.7475 12.121 9.85554 11.4376 10.5389C10.7542 11.2224 9.64617 11.2224 8.96276 10.5389C8.27934 9.85553 8.27934 8.74749 8.96276 8.06408C9.64618 7.38066 10.7542 7.38066 11.4376 8.06408" stroke="#6866F6" stroke-width="1.5" stroke-linecap="round" stroke-linejoin="round"/>
<path d="M22.0558 8.06408C22.7392 8.7475 22.7392 9.85554 22.0558 10.5389C21.3724 11.2224 20.2643 11.2224 19.5809 10.5389C18.8975 9.85553 18.8975 8.74749 19.5809 8.06408C20.2643 7.38066 21.3724 7.38066 22.0558 8.06408" stroke="#6866F6" stroke-width="1.5" stroke-linecap="round" stroke-linejoin="round"/>
<path d="M19.6021 10.5575L16.7021 14.0275" stroke="#6866F6" stroke-width="1.5" stroke-linecap="round" stroke-linejoin="round"/>
<path d="M5.99219 14.2175L9.01219 10.5775" stroke="#6866F6" stroke-width="1.5" stroke-linecap="round" stroke-linejoin="round"/>
<path d="M14.3226 14.0275L11.3926 10.5775" stroke="#6866F6" stroke-width="1.5" stroke-linecap="round" stroke-linejoin="round"/>
</svg>
