<svg width="31" height="31" viewBox="0 0 31 31" fill="none" xmlns="http://www.w3.org/2000/svg">
<path fill-rule="evenodd" clip-rule="evenodd" d="M16.3274 22.793V27.7979C16.3274 28.3157 15.9077 28.7354 15.3899 28.7354C14.8721 28.7354 14.4524 28.3157 14.4524 27.7979V22.793H16.3274Z" fill="#6866F6"/>
<path opacity="0.4" d="M4.13989 6.54785H26.6399V20.2979C26.6399 21.6786 25.5206 22.7979 24.1399 22.7979H6.63989C5.25918 22.7979 4.13989 21.6786 4.13989 20.2979V6.54785Z" fill="#6866F6"/>
<path d="M2.88989 5.29785C2.88989 3.91714 4.00918 2.79785 5.38989 2.79785H25.3899C26.7706 2.79785 27.8899 3.91714 27.8899 5.29785C27.8899 6.67856 26.7706 7.79785 25.3899 7.79785H5.38989C4.00918 7.79785 2.88989 6.67856 2.88989 5.29785Z" fill="#6866F6"/>
<path fill-rule="evenodd" clip-rule="evenodd" d="M20.8724 11.9941C21.3164 12.2605 21.4603 12.8364 21.1939 13.2803L19.8411 15.535C18.7068 17.4255 16.0352 17.6052 14.658 15.8836C14.097 15.1824 13.0088 15.2556 12.5467 16.0256L11.1939 18.2803C10.9275 18.7243 10.3517 18.8683 9.90769 18.6019C9.46371 18.3355 9.31975 17.7596 9.58613 17.3157L10.9389 15.061C12.0732 13.1705 14.7449 12.9908 16.1221 14.7123C16.6831 15.4136 17.7713 15.3404 18.2333 14.5703L19.5861 12.3157C19.8525 11.8717 20.4284 11.7277 20.8724 11.9941Z" fill="#6866F6"/>
</svg>
