<svg width="31" height="31" viewBox="0 0 31 31" fill="none" xmlns="http://www.w3.org/2000/svg">
<path opacity="0.4" d="M24.6399 2.79785H6.13989C5.03532 2.79785 4.13989 3.69328 4.13989 4.79785V26.1399C4.13989 27.2413 5.2873 27.9671 6.28251 27.4953L9.55497 25.9437C10.0847 25.6926 10.6979 25.6865 11.2325 25.927L14.5692 27.4285C15.0911 27.6634 15.6887 27.6634 16.2106 27.4285L19.5473 25.927C20.0819 25.6865 20.6951 25.6926 21.2248 25.9437L24.4973 27.4953C25.4925 27.9671 26.6399 27.2413 26.6399 26.1399V4.79785C26.6399 3.69328 25.7445 2.79785 24.6399 2.79785Z" fill="#6866F6"/>
<path fill-rule="evenodd" clip-rule="evenodd" d="M9.45239 9.04785C9.45239 8.53008 9.87213 8.11035 10.3899 8.11035H15.3899C15.9077 8.11035 16.3274 8.53008 16.3274 9.04785C16.3274 9.56562 15.9077 9.98535 15.3899 9.98535H10.3899C9.87213 9.98535 9.45239 9.56562 9.45239 9.04785ZM9.45239 14.0479C9.45239 13.5301 9.87213 13.1104 10.3899 13.1104H20.3899C20.9077 13.1104 21.3274 13.5301 21.3274 14.0479C21.3274 14.5656 20.9077 14.9854 20.3899 14.9854H10.3899C9.87213 14.9854 9.45239 14.5656 9.45239 14.0479ZM9.45239 19.0479C9.45239 18.5301 9.87213 18.1104 10.3899 18.1104H20.3899C20.9077 18.1104 21.3274 18.5301 21.3274 19.0479C21.3274 19.5656 20.9077 19.9854 20.3899 19.9854H10.3899C9.87213 19.9854 9.45239 19.5656 9.45239 19.0479Z" fill="#6866F6"/>
</svg>
