<svg width="31" height="31" viewBox="0 0 31 31" fill="none" xmlns="http://www.w3.org/2000/svg">
<path opacity="0.4" d="M22.8899 25.2979H7.88989C5.12847 25.2979 2.88989 23.0593 2.88989 20.2979V17.7979C2.88989 10.8943 8.48633 5.29785 15.3899 5.29785C22.2935 5.29785 27.8899 10.8943 27.8899 17.7979V20.2979C27.8899 23.0593 25.6513 25.2979 22.8899 25.2979Z" fill="#6866F6"/>
<path fill-rule="evenodd" clip-rule="evenodd" d="M15.3896 9.98535C12.3395 9.98535 10.5674 11.4817 9.38607 13.3072C9.10477 13.7419 8.52435 13.8662 8.08966 13.5849C7.65497 13.3036 7.53062 12.7232 7.81191 12.2885C9.2456 10.073 11.5492 8.11035 15.3896 8.11035C19.2299 8.11035 21.5335 10.073 22.9672 12.2885C23.2485 12.7232 23.1242 13.3036 22.6895 13.5849C22.2548 13.8662 21.6744 13.7419 21.3931 13.3072C20.2118 11.4817 18.4396 9.98535 15.3896 9.98535Z" fill="#6866F6"/>
<path fill-rule="evenodd" clip-rule="evenodd" d="M19.9784 15.7171C20.2099 15.254 20.0222 14.6908 19.5591 14.4593C19.096 14.2277 18.5329 14.4154 18.3013 14.8786L14.9541 21.573C13.0884 21.7889 11.6399 23.3742 11.6399 25.2979H19.1399C19.1399 23.7656 18.2208 22.4479 16.9039 21.8661L19.9784 15.7171Z" fill="#6866F6"/>
</svg>
