<svg width="31" height="31" viewBox="0 0 31 31" fill="none" xmlns="http://www.w3.org/2000/svg">
<path opacity="0.4" d="M2.31274 4.81653C2.31274 3.43582 3.43203 2.31653 4.81274 2.31653H10.9669C12.3476 2.31653 13.4669 3.43582 13.4669 4.81653V10.9707C13.4669 12.3514 12.3476 13.4707 10.9669 13.4707H4.81274C3.43203 13.4707 2.31274 12.3514 2.31274 10.9707V4.81653Z" fill="#6866F6"/>
<path opacity="0.4" d="M17.2168 19.7207C17.2168 18.34 18.3361 17.2207 19.7168 17.2207H25.871C27.2517 17.2207 28.371 18.34 28.371 19.7207V25.8749C28.371 27.2556 27.2517 28.3749 25.871 28.3749H19.7168C18.3361 28.3749 17.2168 27.2556 17.2168 25.8749V19.7207Z" fill="#6866F6"/>
<circle cx="22.7939" cy="7.89361" r="5.57708" fill="#6866F6"/>
<circle cx="7.88982" cy="22.7978" r="5.57708" fill="#6866F6"/>
</svg>
