<svg width="24" height="24" viewBox="0 0 24 24" fill="none" xmlns="http://www.w3.org/2000/svg">
<path d="M21.25 0.543335H2.75C1.64543 0.543335 0.75 1.43877 0.75 2.54333V21.0433C0.75 22.1479 1.64543 23.0433 2.75 23.0433H21.25C22.3546 23.0433 23.25 22.1479 23.25 21.0433V2.54333C23.25 1.43877 22.3546 0.543335 21.25 0.543335Z" stroke="#6866F6" stroke-linejoin="round"/>
<path d="M12 0.543335V23.0433" stroke="#6866F6" stroke-linejoin="round"/>
<path d="M0.75 11.7933H23.25" stroke="#6866F6" stroke-linejoin="round"/>
<path d="M6 3.54333V9.54333" stroke="#6866F6" stroke-linejoin="round"/>
<path d="M9 6.54333H3" stroke="#6866F6" stroke-linejoin="round"/>
<path d="M4.5 15.5433L9 20.0433" stroke="#6866F6" stroke-linejoin="round"/>
<path d="M9 15.5433L4.5 20.0433" stroke="#6866F6" stroke-linejoin="round"/>
<path d="M20.25 6.54333H15" stroke="#6866F6" stroke-linejoin="round"/>
<path d="M20.25 16.2933H15" stroke="#6866F6" stroke-linejoin="round"/>
<path d="M20.25 19.2933H15" stroke="#6866F6" stroke-linejoin="round"/>
</svg>
