<svg width="78" height="49" viewBox="0 0 78 49" fill="none" xmlns="http://www.w3.org/2000/svg">
<circle cx="54.755" cy="24.7007" r="22.755" fill="#6866F6"/>
<g clip-path="url(#clip0_184_3823)">
<path d="M46.9095 39.0225L46.8877 27.0864L54.7039 31.2098C55.838 31.8092 55.896 33.4081 54.8082 34.0875L46.9093 39.0225H46.9095Z" fill="white"/>
<path d="M46.8669 15.7851L46.856 9.76611L72.2564 23.1868L69.0129 25.2132C67.7926 25.9756 66.2563 26.0292 64.9856 25.3536L46.8669 15.7851Z" fill="white" fill-opacity="0.6"/>
<path d="M60.4624 31.4531L43 22.3418V16.3248L57.8981 24.0714C60.9589 25.735 60.641 27.1156 60.4624 31.4529V31.4531Z" fill="white"/>
</g>
<path d="M25.0731 48.1186C38.0654 48.1186 48.5982 37.5858 48.5982 24.5935C48.5982 11.6012 38.0654 1.06847 25.0731 1.06847C12.0808 1.06847 1.54808 11.6012 1.54808 24.5935C1.54808 37.5858 12.0808 48.1186 25.0731 48.1186Z" fill="#24A980" stroke="url(#paint0_linear_184_3823)" stroke-width="1.543"/>
<path d="M27.8976 26.8614L25.1175 26.9348C23.6539 26.9348 22.6664 26.898 22.3002 26.8614C16.7766 26.6418 12.6061 25.6541 12.6061 24.5203C12.6061 23.3496 16.7399 22.3987 22.3002 22.1423V25.9099C22.6664 25.9467 23.6905 25.9833 25.1535 25.9833C26.8729 25.9833 27.751 25.9099 27.8976 25.9099V22.1423C33.4578 22.3987 37.5916 23.3496 37.5916 24.5203C37.5916 25.6541 33.4578 26.6418 27.8976 26.8614ZM27.8976 21.7402V18.3747H35.6526V13.2167H14.5818V18.3747H22.3368V21.7402C16.0448 22.0325 11.3262 23.2764 11.3262 24.7766C11.3262 26.2766 16.0448 27.5199 22.3368 27.8129V38.6411H27.9342V27.8125C34.2257 27.5199 38.9448 26.2761 38.9448 24.776C38.9082 23.2764 34.1895 22.0325 27.8976 21.7396V21.7402Z" fill="#FFFDFA"/>
<defs>
<linearGradient id="paint0_linear_184_3823" x1="25.0731" y1="1.83997" x2="25.0731" y2="47.3471" gradientUnits="userSpaceOnUse">
<stop stop-color="#BE4259"/>
<stop offset="1" stop-color="#743F73"/>
</linearGradient>
<clipPath id="clip0_184_3823">
<rect width="29.2564" height="29.2564" fill="white" transform="translate(43 9.76611)"/>
</clipPath>
</defs>
</svg>
