<svg width="78" height="49" viewBox="0 0 78 49" fill="none" xmlns="http://www.w3.org/2000/svg">
<circle cx="54.755" cy="24.7007" r="22.755" fill="#6866F6"/>
<g clip-path="url(#clip0_184_3777)">
<path d="M46.9095 39.0225L46.8877 27.0864L54.7039 31.2098C55.838 31.8092 55.896 33.4081 54.8082 34.0875L46.9093 39.0225H46.9095Z" fill="white"/>
<path d="M46.8669 15.7851L46.856 9.76611L72.2564 23.1868L69.0129 25.2132C67.7926 25.9756 66.2563 26.0292 64.9856 25.3536L46.8669 15.7851Z" fill="white" fill-opacity="0.6"/>
<path d="M60.4624 31.4531L43 22.3418V16.3248L57.8981 24.0714C60.9589 25.735 60.641 27.1156 60.4624 31.4529V31.4531Z" fill="white"/>
</g>
<path d="M25.1434 48.1186C38.1358 48.1186 48.6685 37.5858 48.6685 24.5935C48.6685 11.6012 38.1358 1.06847 25.1434 1.06847C12.1511 1.06847 1.61839 11.6012 1.61839 24.5935C1.61839 37.5858 12.1511 48.1186 25.1434 48.1186Z" fill="#24A980" stroke="url(#paint0_linear_184_3777)" stroke-width="1.543"/>
<path d="M27.9679 26.8614L25.1878 26.9348C23.7242 26.9348 22.7367 26.898 22.3705 26.8614C16.8469 26.6418 12.6764 25.6541 12.6764 24.5203C12.6764 23.3496 16.8103 22.3987 22.3705 22.1423V25.9099C22.7367 25.9467 23.7608 25.9833 25.2238 25.9833C26.9432 25.9833 27.8213 25.9099 27.9679 25.9099V22.1423C33.5281 22.3987 37.6619 23.3496 37.6619 24.5203C37.6619 25.6541 33.5281 26.6418 27.9679 26.8614ZM27.9679 21.7402V18.3747H35.7229V13.2167H14.6521V18.3747H22.4071V21.7402C16.1151 22.0325 11.3965 23.2764 11.3965 24.7766C11.3965 26.2766 16.1151 27.5199 22.4071 27.8129V38.6411H28.0045V27.8125C34.296 27.5199 39.0151 26.2761 39.0151 24.776C38.9785 23.2764 34.2598 22.0325 27.9679 21.7396V21.7402Z" fill="#FFFDFA"/>
<defs>
<linearGradient id="paint0_linear_184_3777" x1="25.1434" y1="1.83997" x2="25.1434" y2="47.3471" gradientUnits="userSpaceOnUse">
<stop stop-color="#6160E7"/>
<stop offset="1" stop-color="#464BAC"/>
</linearGradient>
<clipPath id="clip0_184_3777">
<rect width="29.2564" height="29.2564" fill="white" transform="translate(43 9.76611)"/>
</clipPath>
</defs>
</svg>
