<svg width="71" height="50" viewBox="0 0 71 50" fill="none" xmlns="http://www.w3.org/2000/svg">
<ellipse cx="48.0402" cy="25.024" rx="22.6722" ry="22.0968" fill="#6866F6"/>
<g clip-path="url(#clip0_46_830)">
<path d="M38.0796 41.6879L38.0542 28.0952L47.1603 32.7908C48.4816 33.4734 48.5492 35.2942 47.2819 36.0679L38.0794 41.6879H38.0796Z" fill="white"/>
<path d="M38.0315 15.2252L38.0188 8.37085L67.6111 23.6542L63.8324 25.9619C62.4106 26.8301 60.6209 26.8912 59.1404 26.1218L38.0315 15.2252Z" fill="white" fill-opacity="0.6"/>
<path d="M53.8694 33.0681L33.5251 22.6921V15.84L50.8819 24.6618C54.4478 26.5562 54.0775 28.1285 53.8694 33.0678V33.0681Z" fill="white"/>
</g>
<path d="M25.1832 48.47C38.1755 48.47 48.7083 37.9373 48.7083 24.945C48.7083 11.9526 38.1755 1.41991 25.1832 1.41991C12.1909 1.41991 1.65819 11.9526 1.65819 24.945C1.65819 37.9373 12.1909 48.47 25.1832 48.47Z" fill="#24A980" stroke="url(#paint0_linear_46_830)" stroke-width="1.543"/>
<path d="M28.0077 27.2129L25.2276 27.2863C23.764 27.2863 22.7765 27.2495 22.4103 27.2129C16.8867 26.9933 12.7162 26.0056 12.7162 24.8718C12.7162 23.7011 16.8501 22.7502 22.4103 22.4938V26.2614C22.7765 26.2982 23.8006 26.3348 25.2636 26.3348C26.983 26.3348 27.8611 26.2614 28.0077 26.2614V22.4938C33.5679 22.7502 37.7017 23.7011 37.7017 24.8718C37.7017 26.0056 33.5679 26.9933 28.0077 27.2129ZM28.0077 22.0917V18.7262H35.7627V13.5682H14.6919V18.7262H22.4469V22.0917C16.1549 22.384 11.4363 23.6279 11.4363 25.1281C11.4363 26.6281 16.1549 27.8714 22.4469 28.1644V38.9926H28.0443V28.164C34.3358 27.8714 39.0549 26.6276 39.0549 25.1276C39.0183 23.6279 34.2996 22.384 28.0077 22.0911V22.0917Z" fill="#FFFDFA"/>
<defs>
<linearGradient id="paint0_linear_46_830" x1="25.1832" y1="2.19141" x2="25.1832" y2="47.6985" gradientUnits="userSpaceOnUse">
<stop stop-color="#D96D42"/>
<stop offset="1" stop-color="#966046"/>
</linearGradient>
<clipPath id="clip0_46_830">
<rect width="34.1258" height="33.3642" fill="white" transform="translate(33.5029 8.34198)"/>
</clipPath>
</defs>
</svg>
