<svg width="138" height="42" viewBox="0 0 138 42" fill="none" xmlns="http://www.w3.org/2000/svg">
<path d="M14.0787 21.2374L6.32128 39.2006C6.00488 39.9333 5.28322 40.4077 4.48518 40.4077H135C136.105 40.4077 137 39.5123 137 38.4077V35.6153C137 34.5107 136.105 33.6153 135 33.6153H134.313C133.516 33.6153 132.795 33.1421 132.478 32.4109L126.212 17.9609C125.953 17.3655 125.422 16.9323 124.787 16.7992L119.412 15.6722C118.892 15.5633 118.437 15.2522 118.147 14.8075L114.101 8.60514C113.258 7.31275 111.331 7.42142 110.639 8.80039L105.444 19.146C105.164 19.7033 104.64 20.0982 104.028 20.2138L97.6374 21.4195C97.2231 21.4977 96.7947 21.4429 96.4133 21.2631L84.8449 15.8063C84.4278 15.6095 84.0916 15.2747 83.893 14.8585L77.8573 2.20507C77.3832 1.21116 76.1949 0.787479 75.199 1.25727L69.7201 3.84163C69.2577 4.05975 68.8964 4.44669 68.7104 4.92295L63.7082 17.7317C63.5112 18.2361 63.118 18.6391 62.6186 18.8486L56.4313 21.4428C56.2777 21.5072 56.1328 21.5905 55.9998 21.6909L49.3667 26.697C48.6718 27.2214 47.7175 27.2361 47.0067 26.7332L43.1366 23.9949C42.3592 23.4449 41.3017 23.5193 40.609 24.1728L36.5264 28.0243C35.8632 28.6499 34.8609 28.7479 34.0892 28.2625L21.4881 20.3374C21.1692 20.1368 20.8001 20.0304 20.4234 20.0304H15.9148C15.1168 20.0304 14.3951 20.5048 14.0787 21.2374Z" fill="url(#paint0_linear_447_5882)"/>
<path d="M1 40.4077H4.48518C5.28322 40.4077 6.00488 39.9333 6.32128 39.2006L14.0787 21.2374C14.3951 20.5048 15.1168 20.0304 15.9148 20.0304H20.4234C20.8001 20.0304 21.1692 20.1368 21.4881 20.3374L34.0892 28.2625C34.8609 28.7479 35.8632 28.6499 36.5264 28.0243L40.609 24.1728C41.3017 23.5193 42.3592 23.4449 43.1366 23.9949L47.0067 26.7332C47.7175 27.2361 48.6718 27.2214 49.3667 26.697L55.9998 21.6909C56.1328 21.5905 56.2777 21.5072 56.4313 21.4428L62.6186 18.8486C63.118 18.6391 63.5112 18.2361 63.7082 17.7317L68.7104 4.92295C68.8964 4.44669 69.2577 4.05975 69.7201 3.84163L75.199 1.25727C76.1949 0.787479 77.3832 1.21116 77.8573 2.20507L83.893 14.8585C84.0915 15.2747 84.4278 15.6095 84.8449 15.8063L96.4133 21.2631C96.7947 21.4429 97.2231 21.4977 97.6374 21.4195L104.028 20.2138C104.64 20.0982 105.164 19.7033 105.444 19.146L110.639 8.80039C111.331 7.42142 113.258 7.31275 114.101 8.60514L118.147 14.8075C118.437 15.2522 118.892 15.5633 119.412 15.6722L124.787 16.7992C125.422 16.9323 125.953 17.3655 126.212 17.9609L132.478 32.4109C132.795 33.1421 133.516 33.6153 134.313 33.6153H137" stroke="#66F6A8" stroke-width="2" stroke-linecap="round" stroke-linejoin="round"/>
<defs>
<linearGradient id="paint0_linear_447_5882" x1="69.8" y1="-72.7998" x2="69.088" y2="40.4083" gradientUnits="userSpaceOnUse">
<stop stop-color="#45B36B"/>
<stop offset="1" stop-color="#45B36B" stop-opacity="0"/>
</linearGradient>
</defs>
</svg>
