<svg width="138" height="42" viewBox="0 0 138 42" fill="none" xmlns="http://www.w3.org/2000/svg">
<path d="M137 40.4077H133.096C132.526 40.4077 131.983 40.1647 131.604 39.7397L124.071 31.3028C123.84 31.0439 123.546 30.8496 123.217 30.739L116.64 28.5282C116.403 28.4486 116.153 28.4141 115.903 28.4265L104.136 29.0107C103.23 29.0557 102.408 28.486 102.132 27.6225L98.3261 15.7256C97.7541 13.9375 95.2561 13.8516 94.5626 15.5962L90.497 25.824C90.1057 26.8085 89.0145 27.317 88.0089 26.9835L81.75 24.9077L75.1014 22.0197C74.9305 21.9454 74.7708 21.8476 74.6269 21.7291L67.6021 15.944C66.8695 15.3407 65.8137 15.3353 65.075 15.9313L59.3875 20.5195C59.074 20.7724 58.6914 20.9248 58.2899 20.9566L51.0507 21.5308C50.9766 21.5367 50.9053 21.5621 50.8442 21.6044V21.6044C50.6206 21.7592 50.3112 21.6649 50.2121 21.4117L47.1275 13.5318C46.8569 12.8405 46.2256 12.356 45.4878 12.2733L25.0013 9.97789C24.5936 9.93221 24.1818 10.013 23.8216 10.2092L14.547 15.2629C14.3708 15.3589 14.1813 15.4278 13.9846 15.4674L7.79269 16.7136C6.9167 16.8899 6.26393 17.6259 6.19352 18.5167L5.14563 31.7729C5.06341 32.8131 4.1953 33.6153 3.15185 33.6153H1" stroke="#F66666" stroke-width="2" stroke-linecap="round" stroke-linejoin="round"/>
<path d="M133.096 40.4077H137L3.00735 40.9003C1.89992 40.9044 1 40.0078 1 38.9003V35.6153C1 34.5107 1.89543 33.6153 3 33.6153H3.15186C4.1953 33.6153 5.0634 32.8131 5.14563 31.7729L6.19351 18.5167C6.26393 17.6259 6.9167 16.8899 7.79269 16.7136L13.9846 15.4674C14.1813 15.4278 14.3708 15.3589 14.547 15.2629L23.8216 10.2092C24.1818 10.013 24.5936 9.93221 25.0013 9.97789L45.5669 12.2822C46.2625 12.3601 46.8667 12.796 47.1601 13.4315L48.8125 17.0115L50.3492 20.2862C50.7031 21.0404 51.4875 21.4962 52.3179 21.4303L58.2899 20.9566C58.6914 20.9248 59.074 20.7724 59.3875 20.5195L65.075 15.9313C65.8137 15.3353 66.8695 15.3407 67.6021 15.944L74.6269 21.7291C74.7708 21.8476 74.9305 21.9454 75.1014 22.0197L81.75 24.9077L87.9913 26.9777C89.0041 27.3136 90.1021 26.7953 90.4866 25.8L94.557 15.2618C95.2397 13.4943 97.7686 13.5786 98.3321 15.3875L102.11 27.5131C102.394 28.4271 103.287 29.0112 104.238 28.9062L115.741 27.6371C116.095 27.5981 116.453 27.6542 116.777 27.7997L123.329 30.7331C123.586 30.8482 123.816 31.0163 124.003 31.2265L131.604 39.7397C131.983 40.1647 132.526 40.4077 133.096 40.4077Z" fill="url(#paint0_linear_447_5910)"/>
<defs>
<linearGradient id="paint0_linear_447_5910" x1="68.2" y1="-46.8281" x2="68.6277" y2="40.9095" gradientUnits="userSpaceOnUse">
<stop stop-color="#EF466F"/>
<stop offset="1" stop-color="#EF466F" stop-opacity="0"/>
</linearGradient>
</defs>
</svg>
