<svg width="40" height="40" viewBox="0 0 40 40" fill="none" xmlns="http://www.w3.org/2000/svg">
<path fill-rule="evenodd" clip-rule="evenodd" d="M12.1278 33.394L5.86582 27.1321C5.25239 26.5186 4.90723 25.686 4.90723 24.819V14.4413C4.90723 13.5743 5.25239 12.7416 5.86582 12.1282L12.1278 5.86622C12.7412 5.25278 13.5739 4.90762 14.4409 4.90762H24.817C25.6839 4.90762 26.5166 5.25278 27.13 5.86622L33.392 12.1282C34.0071 12.7416 34.3522 13.5743 34.3522 14.4413V24.8174C34.3522 25.6843 34.0071 26.517 33.3936 27.1304L26.1731 34.3526H14.4409C13.5739 34.3526 12.7412 34.0075 12.1278 33.394V33.394Z" stroke="#F66666" stroke-width="2" stroke-linecap="round" stroke-linejoin="round"/>
<path d="M14.7227 24.5376L24.5377 14.7226" stroke="#F66666" stroke-width="2" stroke-linecap="round" stroke-linejoin="round"/>
<path d="M24.5377 24.5376L14.7227 14.7226" stroke="#F66666" stroke-width="2" stroke-linecap="round" stroke-linejoin="round"/>
</svg>
