<svg width="19" height="25" viewBox="0 0 19 25" fill="none" xmlns="http://www.w3.org/2000/svg">
<g clip-path="url(#clip0_33_2455)">
<path d="M10.8604 1.95315C10.8604 0.837529 9.42363 0.41706 8.79082 1.3419C2.98535 9.82768 11.2354 10.2097 11.2354 14.3347C11.2354 16.0049 9.87082 17.3563 8.19551 17.3342C6.54691 17.3132 5.23535 15.9388 5.23535 14.2902V10.2819C5.23535 9.26472 3.99457 8.77112 3.29332 9.50847C2.03848 10.8266 0.735352 13.0846 0.735352 15.8347C0.735352 20.7974 4.7727 24.8347 9.73535 24.8347C14.698 24.8347 18.7354 20.7974 18.7354 15.8347C18.7354 7.85237 10.8604 6.78784 10.8604 1.95315Z" fill="#E84142"/>
</g>
<defs>
<clipPath id="clip0_33_2455">
<rect width="18" height="24" fill="white" transform="translate(0.735352 0.834717)"/>
</clipPath>
</defs>
</svg>
