<svg width="24" height="25" viewBox="0 0 24 25" fill="none" xmlns="http://www.w3.org/2000/svg">
<path fill-rule="evenodd" clip-rule="evenodd" d="M19 21.217H16C14.895 21.217 14 20.322 14 19.217V14.217C14 13.112 14.895 12.217 16 12.217H19C20.105 12.217 21 13.112 21 14.217V19.217C21 20.322 20.105 21.217 19 21.217Z"  stroke-width="1.5" stroke-linecap="round" stroke-linejoin="round"/>
<path fill-rule="evenodd" clip-rule="evenodd" d="M19 9.21704H16C14.895 9.21704 14 8.32204 14 7.21704V5.21704C14 4.11204 14.895 3.21704 16 3.21704H19C20.105 3.21704 21 4.11204 21 5.21704V7.21704C21 8.32204 20.105 9.21704 19 9.21704Z"  stroke-width="1.5" stroke-linecap="round" stroke-linejoin="round"/>
<path fill-rule="evenodd" clip-rule="evenodd" d="M5 3.21704H8C9.105 3.21704 10 4.11204 10 5.21704V10.217C10 11.322 9.105 12.217 8 12.217H5C3.895 12.217 3 11.322 3 10.217V5.21704C3 4.11204 3.895 3.21704 5 3.21704Z"  stroke-width="1.5" stroke-linecap="round" stroke-linejoin="round"/>
<path fill-rule="evenodd" clip-rule="evenodd" d="M5 15.217H8C9.105 15.217 10 16.112 10 17.217V19.217C10 20.322 9.105 21.217 8 21.217H5C3.895 21.217 3 20.322 3 19.217V17.217C3 16.112 3.895 15.217 5 15.217Z"  stroke-width="1.5" stroke-linecap="round" stroke-linejoin="round"/>
</svg>
