<svg width="25" height="25" viewBox="0 0 25 25" fill="none" xmlns="http://www.w3.org/2000/svg">
<path d="M2.8125 19.3075C2.8125 17.1075 4.6125 15.3075 6.8125 15.3075H10.8125C13.0125 15.3075 14.8125 17.1075 14.8125 19.3075" stroke="#6866F6" stroke-width="1.5" stroke-linecap="round" stroke-linejoin="round"/>
<path d="M11.3124 6.30749C12.7124 7.70749 12.7124 9.90749 11.3124 11.2075C9.91243 12.5075 7.71243 12.6075 6.41243 11.2075C5.11243 9.80749 5.01243 7.70749 6.31243 6.30749C7.61243 4.90749 9.91243 5.00749 11.3124 6.30749" stroke="#6866F6" stroke-width="1.5" stroke-linecap="round" stroke-linejoin="round"/>
<path d="M16.8125 14.3075H19.8125C21.5125 14.3075 22.8125 15.6075 22.8125 17.3075" stroke="#6866F6" stroke-width="1.5" stroke-linecap="round" stroke-linejoin="round"/>
<path d="M20.1124 7.0075C21.1124 8.0075 21.1124 9.6075 20.1124 10.5075C19.1124 11.4075 17.5124 11.5075 16.6124 10.5075C15.7124 9.5075 15.6124 7.9075 16.6124 7.0075C17.5124 6.1075 19.1124 6.1075 20.1124 7.0075" stroke="#6866F6" stroke-width="1.5" stroke-linecap="round" stroke-linejoin="round"/>
</svg>
