<svg width="25" height="25" viewBox="0 0 25 25" fill="none" xmlns="http://www.w3.org/2000/svg">
<path d="M12.8125 12.3075V17.3075" stroke="#6866F6" stroke-width="1.5" stroke-linecap="round" stroke-linejoin="round"/>
<path d="M12.8115 8.3075C12.6735 8.3075 12.5615 8.4195 12.5625 8.5575C12.5625 8.6955 12.6745 8.8075 12.8125 8.8075C12.9505 8.8075 13.0625 8.6955 13.0625 8.5575C13.0625 8.4195 12.9505 8.3075 12.8115 8.3075" stroke="#6866F6" stroke-width="1.5" stroke-linecap="round" stroke-linejoin="round"/>
<path fill-rule="evenodd" clip-rule="evenodd" d="M19.8125 21.3075H5.8125C4.7075 21.3075 3.8125 20.4125 3.8125 19.3075V5.3075C3.8125 4.2025 4.7075 3.3075 5.8125 3.3075H19.8125C20.9175 3.3075 21.8125 4.2025 21.8125 5.3075V19.3075C21.8125 20.4125 20.9175 21.3075 19.8125 21.3075Z" stroke="#6866F6" stroke-width="1.5" stroke-linecap="round" stroke-linejoin="round"/>
</svg>
