<svg width="25" height="25" viewBox="0 0 25 25" fill="none" xmlns="http://www.w3.org/2000/svg">
<path fill-rule="evenodd" clip-rule="evenodd" d="M20.2265 6.4355L17.6835 3.8925C17.3085 3.5185 16.8005 3.3075 16.2695 3.3075H9.8125C8.7075 3.3075 7.8125 4.2025 7.8125 5.3075V16.0215C7.8125 17.1265 8.7075 18.0215 9.8125 18.0215H18.8125C19.9175 18.0215 20.8125 17.1265 20.8125 16.0215V7.8505C20.8125 7.3195 20.6015 6.8115 20.2265 6.4355V6.4355Z" stroke="#6866F6" stroke-width="1.5" stroke-linecap="round" stroke-linejoin="round"/>
<path d="M20.8125 8.3075H16.8125C16.2605 8.3075 15.8125 7.8595 15.8125 7.3075V3.3075" stroke="#6866F6" stroke-width="1.5" stroke-linecap="round" stroke-linejoin="round"/>
<path d="M17.8125 18.0215V19.3075C17.8125 20.4125 16.9175 21.3075 15.8125 21.3075H6.8125C5.7075 21.3075 4.8125 20.4125 4.8125 19.3075V8.3075C4.8125 7.2025 5.7075 6.3075 6.8125 6.3075H7.8125" stroke="#6866F6" stroke-width="1.5" stroke-linecap="round" stroke-linejoin="round"/>
</svg>
