<svg width="176" height="13" viewBox="0 0 176 13" fill="none" xmlns="http://www.w3.org/2000/svg">
<g clip-path="url(#clip0_445_3608)">
<rect x="0.939941" y="0.0656738" width="1.29032" height="12.9032" rx="0.64516"  fill-opacity="0.04"/>
<rect x="7.3916" y="0.0654297" width="1.29032" height="12.9032" rx="0.64516"  fill-opacity="0.08"/>
<rect x="13.8433" y="0.0654297" width="1.29032" height="12.9032" rx="0.64516"  fill-opacity="0.12"/>
<rect x="20.2949" y="0.0654297" width="1.29032" height="12.9032" rx="0.64516"  fill-opacity="0.16"/>
<rect x="26.7466" y="0.0654297" width="1.29032" height="12.9032" rx="0.64516"  fill-opacity="0.2"/>
<rect x="33.1978" y="0.0654297" width="1.29032" height="12.9032" rx="0.64516"  fill-opacity="0.24"/>
<rect x="39.6494" y="0.0654297" width="1.29032" height="12.9032" rx="0.64516"  fill-opacity="0.28"/>
<rect opacity="0.32" x="46.1011" y="0.0654297" width="1.29032" height="12.9032" rx="0.64516" />
<rect opacity="0.36" x="52.5527" y="0.0654297" width="1.29032" height="12.9032" rx="0.64516" />
<rect opacity="0.4" x="59.0044" y="0.0654297" width="1.29032" height="12.9032" rx="0.64516" />
<rect opacity="0.44" x="65.4561" y="0.0654297" width="1.29032" height="12.9032" rx="0.64516" />
<rect opacity="0.48" x="71.9077" y="0.0654297" width="1.29032" height="12.9032" rx="0.64516" />
<rect opacity="0.52" x="78.3594" y="0.0654297" width="1.29032" height="12.9032" rx="0.64516" />
<rect opacity="0.56" x="84.8105" y="0.0654297" width="1.29032" height="12.9032" rx="0.64516" />
<rect opacity="0.6" x="91.2622" y="0.0654297" width="1.29032" height="12.9032" rx="0.64516" />
<rect opacity="0.64" x="97.7139" y="0.0654297" width="1.29032" height="12.9032" rx="0.64516" />
<rect opacity="0.68" x="104.166" y="0.0654297" width="1.29032" height="12.9032" rx="0.64516" />
<rect opacity="0.72" x="110.617" y="0.0654297" width="1.29032" height="12.9032" rx="0.64516" />
<rect opacity="0.76" x="117.069" y="0.0654297" width="1.29032" height="12.9032" rx="0.64516" />
<rect opacity="0.8" x="123.521" y="0.0654297" width="1.29032" height="12.9032" rx="0.64516" />
<rect opacity="0.84" x="129.972" y="0.0654297" width="1.29032" height="12.9032" rx="0.64516" />
<rect opacity="0.88" x="136.423" y="0.0654297" width="1.29032" height="12.9032" rx="0.64516" />
<rect opacity="0.92" x="142.875" y="0.0654297" width="1.29032" height="12.9032" rx="0.64516" />
<rect opacity="0.96" x="149.327" y="0.0654297" width="1.29032" height="12.9032" rx="0.64516" />
<rect x="155.778" y="0.0654297" width="1.29032" height="12.9032" rx="0.64516" />
<rect x="162.23" y="0.0654297" width="1.29032" height="12.9032" rx="0.64516" />
<rect x="168.682" y="0.0654297" width="1.29032" height="12.9032" rx="0.64516" />
<rect x="174.488" y="0.0654297" width="1.29032" height="12.9032" rx="0.64516" />
</g>
<defs>
<clipPath id="clip0_445_3608">
<rect width="174.838" height="12.9032" fill="white" transform="translate(0.939941 0.0656738)"/>
</clipPath>
</defs>
</svg>
