<svg width="24" height="25" viewBox="0 0 24 25" fill="none" xmlns="http://www.w3.org/2000/svg">
<path fill-rule="evenodd" clip-rule="evenodd" d="M20 7.21704H11C10.448 7.21704 10 6.76904 10 6.21704V4.21704C10 3.66504 10.448 3.21704 11 3.21704H20C20.552 3.21704 21 3.66504 21 4.21704V6.21704C21 6.76904 20.552 7.21704 20 7.21704Z"  stroke-width="1.5" stroke-linecap="round" stroke-linejoin="round"/>
<path fill-rule="evenodd" clip-rule="evenodd" d="M20 14.217H11C10.448 14.217 10 13.769 10 13.217V11.217C10 10.665 10.448 10.217 11 10.217H20C20.552 10.217 21 10.665 21 11.217V13.217C21 13.769 20.552 14.217 20 14.217Z"  stroke-width="1.5" stroke-linecap="round" stroke-linejoin="round"/>
<path fill-rule="evenodd" clip-rule="evenodd" d="M20 21.217H11C10.448 21.217 10 20.769 10 20.217V18.217C10 17.665 10.448 17.217 11 17.217H20C20.552 17.217 21 17.665 21 18.217V20.217C21 20.769 20.552 21.217 20 21.217Z"  stroke-width="1.5" stroke-linecap="round" stroke-linejoin="round"/>
<path fill-rule="evenodd" clip-rule="evenodd" d="M6 7.21704H4C3.448 7.21704 3 6.76904 3 6.21704V4.21704C3 3.66504 3.448 3.21704 4 3.21704H6C6.552 3.21704 7 3.66504 7 4.21704V6.21704C7 6.76904 6.552 7.21704 6 7.21704Z"  stroke-width="1.5" stroke-linecap="round" stroke-linejoin="round"/>
<path fill-rule="evenodd" clip-rule="evenodd" d="M6 14.217H4C3.448 14.217 3 13.769 3 13.217V11.217C3 10.665 3.448 10.217 4 10.217H6C6.552 10.217 7 10.665 7 11.217V13.217C7 13.769 6.552 14.217 6 14.217Z"  stroke-width="1.5" stroke-linecap="round" stroke-linejoin="round"/>
<path fill-rule="evenodd" clip-rule="evenodd" d="M6 21.217H4C3.448 21.217 3 20.769 3 20.217V18.217C3 17.665 3.448 17.217 4 17.217H6C6.552 17.217 7 17.665 7 18.217V20.217C7 20.769 6.552 21.217 6 21.217Z"  stroke-width="1.5" stroke-linecap="round" stroke-linejoin="round"/>
</svg>
