<svg width="142" height="36" viewBox="0 0 142 36" fill="none" xmlns="http://www.w3.org/2000/svg">
<g clip-path="url(#clip0_223_14253)">
<path d="M5.14185 35.3256L5.11597 21.1308L14.3841 26.0344C15.7289 26.7473 15.7977 28.6487 14.5078 29.4567L5.14161 35.3256H5.14185Z" fill="#6866F6"/>
<path d="M5.09131 7.69075L5.07837 0.532715L35.1971 16.4931L31.3512 18.903C29.9041 19.8097 28.0825 19.8734 26.5757 19.07L5.09131 7.69075Z" fill="#6866F6" fill-opacity="0.6"/>
<path d="M21.2122 26.3238L0.506104 15.4883V8.33266L18.1716 17.5452C21.801 19.5236 21.424 21.1655 21.2122 26.3236V26.3238Z" fill="white"/>
</g>
<path d="M50.0823 24.9291H46.7638V16.2001H44.7679V13.3866H46.7638V12.2564C46.7638 11.4227 46.8921 10.7013 47.1486 10.0921C47.4211 9.48295 47.7818 9.01804 48.2307 8.69742C48.6796 8.36076 49.1525 8.12029 49.6495 7.97601C50.1625 7.83173 50.7155 7.75959 51.3087 7.75959C52.3668 7.75959 53.3126 7.9199 54.1463 8.24053V11.054C53.5852 10.7334 52.9199 10.5731 52.1504 10.5731C50.7717 10.5731 50.0823 11.1823 50.0823 12.4007V13.3866H53.6172V16.2001H50.0823V24.9291ZM55.8613 7.37483H59.2038V24.9291H55.8613V7.37483ZM65.9308 24.9291H62.5882V13.3866H65.9308V24.9291ZM66.2193 9.56311C66.2193 10.1883 66.035 10.6613 65.6663 10.9819C65.2975 11.3025 64.8246 11.4628 64.2475 11.4628C63.6864 11.4628 63.2215 11.3025 62.8528 10.9819C62.484 10.6613 62.2997 10.1883 62.2997 9.56311C62.2997 8.95392 62.484 8.48901 62.8528 8.16838C63.2215 7.84776 63.6864 7.68745 64.2475 7.68745C64.8086 7.68745 65.2735 7.84776 65.6422 8.16838C66.027 8.48901 66.2193 8.95392 66.2193 9.56311ZM76.578 13.3866H80.3533L76.1932 19.1098L80.5938 24.9291H76.8184L74.2694 21.3942L71.6964 24.9291H67.921L72.3216 19.1098L68.1375 13.3866H71.9128L74.2694 16.8493L76.578 13.3866ZM82.0192 16.6089C82.0192 15.3745 82.476 14.4767 83.3898 13.9156C84.3036 13.3385 85.4499 13.0499 86.8286 13.0499C88.3195 13.0499 89.7382 13.3786 91.0849 14.0359V16.7772C90.5879 16.4405 89.9547 16.16 89.1852 15.9356C88.4317 15.7111 87.7183 15.5989 87.045 15.5989C85.9709 15.5989 85.4338 15.9035 85.4338 16.5127C85.4338 16.8654 85.6583 17.1539 86.1071 17.3784C86.556 17.6028 87.1011 17.8032 87.7423 17.9796C88.3836 18.1399 89.0168 18.3403 89.6421 18.5807C90.2833 18.8212 90.8284 19.206 91.2772 19.735C91.7261 20.264 91.9506 20.9213 91.9506 21.7068C91.9506 22.5725 91.6941 23.2779 91.1811 23.823C90.6841 24.368 90.0589 24.7448 89.3054 24.9532C88.568 25.1616 87.7023 25.2658 86.7083 25.2658C84.8647 25.2658 83.3337 24.9051 82.1153 24.1837V21.4183C83.3658 22.2359 84.8327 22.6447 86.5159 22.6447C87.8626 22.6447 88.5359 22.3561 88.5359 21.779C88.5359 21.4423 88.3115 21.1618 87.8626 20.9373C87.4137 20.7129 86.8686 20.5125 86.2274 20.3362C85.6022 20.1598 84.9689 19.9514 84.3277 19.7109C83.6864 19.4544 83.1413 19.0697 82.6925 18.5567C82.2436 18.0277 82.0192 17.3784 82.0192 16.6089ZM108.611 13.3866H112.146L108.442 24.9291H104.908L102.623 17.4024L100.339 24.9291H96.7797L93.0765 13.3866H96.6354L98.7275 21.298L101.036 13.3866H104.21L106.495 21.298L108.611 13.3866ZM124.401 21.9473C124.401 22.4603 124.674 22.7168 125.219 22.7168C125.443 22.7168 125.651 22.6848 125.844 22.6206V24.8089C125.235 25.0333 124.617 25.1456 123.992 25.1456C122.774 25.1456 121.924 24.7127 121.443 23.847C120.241 24.7929 118.854 25.2658 117.283 25.2658C116.145 25.2658 115.183 24.9532 114.397 24.328C113.628 23.6867 113.243 22.821 113.243 21.7309C113.243 20.8171 113.516 20.0556 114.061 19.4464C114.606 18.8372 115.239 18.4284 115.961 18.22C116.682 17.9956 117.467 17.8834 118.317 17.8834C119.263 17.8834 120.177 17.9876 121.059 18.196V17.7872C121.059 17.194 120.826 16.7211 120.361 16.3684C119.896 16.0157 119.223 15.8394 118.341 15.8394C117.059 15.8394 115.696 16.1279 114.253 16.7051V13.8194C115.792 13.3064 117.283 13.0499 118.726 13.0499C122.509 13.0499 124.401 14.7893 124.401 18.2681V21.9473ZM119.087 19.8793C118.397 19.8793 117.82 20.0075 117.355 20.264C116.89 20.5205 116.658 20.9213 116.658 21.4664C116.658 21.8832 116.826 22.2279 117.163 22.5004C117.516 22.7569 117.948 22.8851 118.461 22.8851C119.471 22.8851 120.337 22.5725 121.059 21.9473V20.1438C120.321 19.9674 119.664 19.8793 119.087 19.8793ZM130.862 15.0699C131.808 13.7232 133.203 13.0499 135.046 13.0499C136.794 13.0499 138.164 13.6511 139.158 14.8534C140.168 16.0398 140.673 17.4746 140.673 19.1579C140.673 20.8411 140.168 22.284 139.158 23.4863C138.164 24.6726 136.794 25.2658 135.046 25.2658C133.459 25.2658 132.193 24.7448 131.247 23.7027V30.2195H127.904V13.3866H130.862V15.0699ZM136.441 21.5145C136.986 20.8732 137.259 20.0877 137.259 19.1579C137.259 18.228 136.986 17.4505 136.441 16.8253C135.896 16.184 135.159 15.8634 134.229 15.8634C133.539 15.8634 132.922 16.0478 132.377 16.4165C131.848 16.7852 131.463 17.2421 131.223 17.7872V20.5285C131.463 21.0736 131.848 21.5305 132.377 21.8992C132.922 22.2679 133.539 22.4523 134.229 22.4523C135.159 22.4523 135.896 22.1397 136.441 21.5145Z" fill="white"/>
<defs>
<clipPath id="clip0_223_14253">
<rect width="34.691" height="34.7928" fill="white" transform="translate(0.506104 0.532715)"/>
</clipPath>
</defs>
</svg>
