<svg width="94" height="25" viewBox="0 0 94 25" fill="none" xmlns="http://www.w3.org/2000/svg">
<path d="M18.0901 3.08103L10.7723 0.834229L3.463 3.08103C3.34461 3.1216 3.24695 3.20824 3.19149 3.3221C3.13591 3.43583 3.12708 3.56741 3.16695 3.68789C3.20671 3.80836 3.29197 3.90774 3.40374 3.96429C3.51564 4.02072 3.64495 4.02971 3.76334 3.98926L10.7934 1.83709L17.8447 3.98926C17.9583 4.00848 18.0747 3.98414 18.1718 3.92109C18.2687 3.85805 18.3392 3.76055 18.3698 3.64769C18.4002 3.53471 18.3886 3.41436 18.3369 3.30961C18.2853 3.205 18.1973 3.1236 18.0901 3.08103Z" fill="white"/>
<path fill-rule="evenodd" clip-rule="evenodd" d="M21.1912 4.14087C21.2627 4.21278 21.31 4.30579 21.3266 4.40666C21.7213 7.13398 21.5877 9.91372 20.9332 12.5888C19.8926 16.794 17.2574 21.6793 11.0098 24.7826L10.8026 24.8816L10.5996 24.7826C4.34351 21.6793 1.71669 16.794 0.676143 12.5846C0.013231 9.91262 -0.13045 7.1346 0.253148 4.40666C0.270901 4.30154 0.321793 4.20529 0.398103 4.13226C0.474413 4.05922 0.572013 4.01353 0.676143 4.00205C0.770993 3.9948 0.865863 4.01565 0.949223 4.06234C1.03257 4.10891 1.10082 4.1792 1.14565 4.26459L5.37557 12.6792H16.1999L20.4298 4.26459C20.4757 4.17358 20.5486 4.09967 20.6382 4.05323C20.7277 4.00679 20.8293 3.99031 20.9286 4.00604C21.0279 4.02177 21.1198 4.06896 21.1912 4.14087ZM0.993373 6.06807C0.867243 8.18079 1.05548 10.3008 1.55173 12.3564C2.09169 14.6439 3.09283 16.7922 4.4916 18.6652C5.89037 20.5382 7.65622 22.0953 9.67735 23.2374L4.68189 13.3851L0.993373 6.06807ZM5.85773 13.6476L10.7729 23.3278L15.7304 13.6476H5.85773ZM17.0563 18.6587C18.4554 16.7874 19.4586 14.6416 20.0026 12.3564C20.5071 10.2964 20.6984 8.1698 20.5695 6.05084L16.8851 13.3679L11.8727 23.2288C13.8922 22.0859 15.657 20.5298 17.0563 18.6587Z" fill="white"/>
<path fill-rule="evenodd" clip-rule="evenodd" d="M28.6966 22.2171C28.8195 22.3453 28.9667 22.4466 29.1292 22.5149C29.2916 22.5831 29.466 22.6169 29.6416 22.614H36.2831V21.6945H29.6416C29.5844 21.6966 29.5273 21.6866 29.474 21.6653C29.4207 21.6439 29.3723 21.6114 29.3318 21.57C29.2913 21.5286 29.2596 21.4791 29.2386 21.4246C29.2177 21.3702 29.208 21.3119 29.2101 21.2533V15.8016C29.2092 15.7447 29.2195 15.6881 29.2407 15.6354C29.2619 15.5827 29.2933 15.5349 29.3331 15.495C29.3734 15.4524 29.4216 15.4186 29.475 15.3955C29.5284 15.3724 29.5859 15.3605 29.6438 15.3605H36.2831V14.4387H29.6416C29.4664 14.4378 29.2928 14.4724 29.1309 14.5404C28.9688 14.6085 28.8216 14.7086 28.6976 14.8351C28.5736 14.9616 28.4754 15.112 28.4086 15.2775C28.3417 15.443 28.3076 15.6204 28.3082 15.7994V21.2533C28.3057 21.4325 28.3388 21.6103 28.4056 21.7759C28.4723 21.9416 28.5714 22.0917 28.6966 22.2171ZM41.4272 14.4409V22.614H48.7268V21.6945H42.3291V18.9928H47.4688V18.0621H42.3291V15.3605H48.7268V14.4387L41.4272 14.4409ZM53.8622 22.614V14.4541H60.5274C60.8802 14.457 61.2177 14.6015 61.4672 14.8565C61.7166 15.1115 61.858 15.4565 61.8608 15.8171V18.2099C61.8625 18.3893 61.829 18.5671 61.7623 18.7331C61.6956 18.8989 61.5971 19.0495 61.4725 19.1759C61.3495 19.3041 61.2023 19.4054 61.0399 19.4737C60.8774 19.5419 60.703 19.5757 60.5274 19.5728H59.3061L61.8155 22.5986H60.6267L58.1302 19.5728L54.7641 19.5596V22.614H53.8622ZM55.1956 18.6444H60.5274C60.5831 18.645 60.6383 18.6341 60.6898 18.6126C60.7413 18.5909 60.7881 18.559 60.8273 18.5187C60.8672 18.4789 60.8987 18.4312 60.9199 18.3784C60.941 18.3257 60.9514 18.2691 60.9503 18.2121V15.8148C60.9514 15.7579 60.941 15.7013 60.9199 15.6486C60.8987 15.5958 60.8672 15.5481 60.8273 15.5083C60.79 15.4647 60.7438 15.4299 60.692 15.4063C60.6403 15.3827 60.5841 15.3709 60.5274 15.3716H55.1956C55.1375 15.3718 55.08 15.384 55.0266 15.4075C54.9732 15.431 54.9251 15.4653 54.8849 15.5083C54.8457 15.5485 54.8148 15.5964 54.7941 15.649C54.7733 15.7017 54.7631 15.7581 54.7641 15.8148V18.2099C54.7631 18.2667 54.7733 18.323 54.7941 18.3757C54.8148 18.4284 54.8457 18.4763 54.8849 18.5164C54.9694 18.5967 55.0803 18.6416 55.1956 18.6422V18.6444ZM70.157 15.3605V22.614H71.0595V15.3605H74.6043V14.4387H66.606V15.3584L70.157 15.3605ZM79.3514 14.4387H80.262V22.6119H79.3514V14.4387ZM85.747 14.4387V22.6119H86.6576V18.9928H89.2336L92.2114 22.614H93.3767L90.0259 18.5275L93.3767 14.4519H92.222L89.2448 18.0732H86.6594V14.4387H85.747Z" fill="white"/>
<path d="M32.8746 8.91441L30.9062 4.21899H30.3243L28.3525 8.91441H28.9961L29.4376 7.85103H31.7894L32.231 8.91441H32.8746ZM30.5913 5.07866L30.6118 4.99925H30.6187L30.6358 5.07866L31.5737 7.33315H29.6533L30.5913 5.07866Z" fill="white"/>
<path d="M36.4539 9.01113C37.5801 9.01113 38.3812 8.2274 38.3812 7.09498V4.21558H37.7753V7.057C37.7753 7.82346 37.2823 8.44491 36.4539 8.44491C35.6049 8.44491 35.1291 7.8131 35.1291 7.0501V4.21558H34.5266V7.09498C34.5266 8.25848 35.3687 9.01113 36.4539 9.01113Z" fill="white"/>
<path d="M42.6725 8.91441C44.1411 8.91441 45.1167 7.97532 45.1167 6.56324C45.1167 5.15807 44.1342 4.21899 42.6622 4.21899H40.9609V8.91441H42.6725ZM41.5565 4.76448H42.6451C43.8022 4.76448 44.5039 5.48606 44.5039 6.57705C44.5039 7.6646 43.7988 8.362 42.6588 8.362H41.5565V4.76448Z" fill="white"/>
<path d="M48.0422 8.91441V4.21899H47.4363V8.91441H48.0422Z" fill="white"/>
<path d="M52.3267 8.91441V4.76794H53.8021V4.21899H50.2488V4.76794H51.7208V8.91441H52.3267Z" fill="white"/>
<path d="M59.1376 8.91441V8.362H56.6181V6.78766H58.7816V6.26287H56.6181V4.77484H59.1068V4.21899H56.0122V8.91441H59.1376Z" fill="white"/>
<path d="M63.131 8.91441C64.5995 8.91441 65.5751 7.97532 65.5751 6.56324C65.5751 5.15807 64.5927 4.21899 63.1207 4.21899H61.4194V8.91441H63.131ZM62.015 4.76448H63.1036C64.2606 4.76448 64.9624 5.48606 64.9624 6.57705C64.9624 7.6646 64.2572 8.362 63.1173 8.362H62.015V4.76448Z" fill="white"/>
<path d="M73.2131 8.91441C73.9389 8.91441 74.6167 8.43796 74.6167 7.58864C74.6167 7.03969 74.223 6.57705 73.7301 6.43205C74.0758 6.28014 74.3462 5.88655 74.3462 5.45499C74.3462 4.7196 73.7917 4.21899 73.018 4.21899H71.0291V8.91441H73.2131ZM71.6419 4.75067H72.9941C73.4048 4.75067 73.7335 5.08211 73.7335 5.49987C73.7335 5.92453 73.4048 6.25597 72.9906 6.25597H71.6419V4.75067ZM71.6419 6.72896H73.1721C73.6342 6.72896 73.9936 7.09493 73.9936 7.54376C73.9936 8.0202 73.6308 8.37581 73.1652 8.37581H71.6419V6.72896Z" fill="white"/>
<path d="M78.6615 8.91441L78.6581 7.11219L80.5409 4.21899H79.822L78.3603 6.5667H78.3569L76.8883 4.21899H76.1729L78.0556 7.11565V8.91441H78.6615Z" fill="white"/>
<path fill-rule="evenodd" clip-rule="evenodd" d="M85.9407 3.50071C87.3597 3.05879 88.8876 2.46956 89.4333 1.84351C89.9791 2.46956 91.5071 3.05879 92.9261 3.50071C93.0352 5.12109 92.4894 8.69329 89.4333 10.019C86.3773 8.69329 85.8316 5.12109 85.9407 3.50071ZM88.7698 6.54721L90.9168 4.38179C91.0592 4.23817 91.2929 4.23817 91.4353 4.38179C91.5777 4.52542 91.5777 4.75743 91.4353 4.90105L89.029 7.32794C88.8866 7.47156 88.6566 7.47156 88.5142 7.32794L87.5684 6.37412C87.426 6.2305 87.426 5.99849 87.5684 5.85487C87.7108 5.71124 87.9409 5.71124 88.0833 5.85487L88.7698 6.54721Z" fill="#1DC872"/>
</svg>
