<svg width="54" height="32" viewBox="0 0 54 32" fill="none" xmlns="http://www.w3.org/2000/svg">
<path d="M37.8814 31.4372C46.3875 31.4372 53.2833 24.5414 53.2833 16.0353C53.2833 7.52922 46.3875 0.633423 37.8814 0.633423C29.3753 0.633423 22.4795 7.52922 22.4795 16.0353C22.4795 24.5414 29.3753 31.4372 37.8814 31.4372Z" fill="#24A980"/>
<path d="M39.7934 17.5705L37.9115 17.6201C36.9208 17.6201 36.2523 17.5952 36.0045 17.5705C32.2655 17.4218 29.4426 16.7533 29.4426 15.9858C29.4426 15.1933 32.2408 14.5497 36.0045 14.3761V16.9264C36.2523 16.9513 36.9456 16.9761 37.9359 16.9761C39.0998 16.9761 39.6942 16.9264 39.7934 16.9264V14.3761C43.5571 14.5497 46.3552 15.1933 46.3552 15.9858C46.3552 16.7533 43.5571 17.4218 39.7934 17.5705ZM39.7934 14.1039V11.8258H45.0427V8.33435H30.7799V11.8258H36.0293V14.1039C31.7702 14.3018 28.5762 15.1438 28.5762 16.1593C28.5762 17.1746 31.7702 18.0162 36.0293 18.2145V25.5442H39.8181V18.2143C44.0769 18.0162 47.2712 17.1743 47.2712 16.1589C47.2465 15.1438 44.0524 14.3018 39.7934 14.1035V14.1039Z" fill="#FFFDFA"/>
<g clip-path="url(#clip0_67_1157)">
<path d="M16.0826 31.4371C24.5888 31.4371 31.4844 24.5415 31.4844 16.0353C31.4844 7.52907 24.5888 0.633423 16.0826 0.633423C7.57632 0.633423 0.680664 7.52907 0.680664 16.0353C0.680664 24.5415 7.57632 31.4371 16.0826 31.4371Z" fill="white"/>
<path d="M28.013 6.42786C26.9449 6.639 25.9263 6.93711 25.088 7.12342C23.1752 7.55194 21.3865 9.01759 20.9953 11.7005C20.6475 14.0977 21.4548 15.1287 21.1008 17.9171C20.4799 22.7861 15.8096 24.4629 13.6297 25.4815C12.369 26.0652 9.30723 27.4067 6.94727 28.4314C9.50597 30.3193 12.6609 31.4372 16.0829 31.4372C24.5911 31.4372 31.4846 24.5436 31.4846 16.0353C31.4846 12.4085 30.2301 9.07349 28.131 6.44648C28.0938 6.44027 28.0566 6.43407 28.013 6.42786Z" fill="url(#paint0_linear_67_1157)"/>
<path d="M14.3498 13.7747C15.536 11.2098 15.1075 11.2036 16.008 8.79392C17.1445 5.73839 20.6782 6.60785 21.6533 6.73827C23.2618 6.95564 23.6842 6.38428 27.075 5.83776C27.2426 5.81292 27.4041 5.78807 27.5657 5.76944C24.7461 2.62075 20.6472 0.633423 16.0826 0.633423C9.95284 0.633423 4.66155 4.21063 2.18359 9.39634C7.26373 10.657 12.7475 13.3958 14.3498 13.7747ZM10.9838 3.31633C11.4309 3.38464 13.6045 6.08618 14.0145 13.0232C14.0145 13.0232 11.2198 12.3525 10.6174 10.9117C10.1205 9.72549 10.7664 8.16667 10.9838 3.31633ZM28.1059 6.41533C28.1122 6.42775 28.1245 6.43397 28.1308 6.44638C28.0935 6.44017 28.0501 6.44017 28.0127 6.43397C28.0438 6.42154 28.0748 6.42154 28.1059 6.41533ZM0.680664 16.0353C0.680664 14.8056 0.823504 13.6132 1.09676 12.4705C1.6557 12.9363 2.2519 13.4517 2.88537 14.0418C6.8973 17.7617 13.4245 20.6993 15.803 17.9667C15.8093 17.9729 15.8155 17.9729 15.8155 17.9792C15.3807 18.5504 13.7226 20.3577 10.5553 19.7988L5.54964 27.27C2.55622 24.4628 0.680664 20.4695 0.680664 16.0353Z" fill="url(#paint1_linear_67_1157)"/>
</g>
<defs>
<linearGradient id="paint0_linear_67_1157" x1="25.3323" y1="10.4618" x2="21.6988" y2="30.4797" gradientUnits="userSpaceOnUse">
<stop stop-color="#FF496A"/>
<stop offset="1" stop-color="#E42648"/>
</linearGradient>
<linearGradient id="paint1_linear_67_1157" x1="8.11468" y1="23.3213" x2="16.1487" y2="0.633416" gradientUnits="userSpaceOnUse">
<stop offset="0.00181229" stop-color="#1158F1"/>
<stop offset="1" stop-color="#119BED"/>
</linearGradient>
<clipPath id="clip0_67_1157">
<rect width="30.8038" height="30.8038" fill="white" transform="translate(0.680664 0.633423)"/>
</clipPath>
</defs>
</svg>
