<svg width="104" height="13" viewBox="0 0 104 13" fill="none" xmlns="http://www.w3.org/2000/svg">
<g clip-path="url(#clip0_157_3764)">
<rect x="0.626953" y="0.998871" width="1.18967" height="11.8967" rx="0.594833" fill="#2DD84A" fill-opacity="0.04"/>
<rect x="6.57422" y="0.998871" width="1.18967" height="11.8967" rx="0.594833" fill="#2DD84A" fill-opacity="0.08"/>
<rect x="12.5234" y="0.998871" width="1.18967" height="11.8967" rx="0.594833" fill="#2DD84A" fill-opacity="0.12"/>
<rect x="18.4707" y="0.998871" width="1.18967" height="11.8967" rx="0.594833" fill="#2DD84A" fill-opacity="0.16"/>
<rect x="24.4199" y="0.998871" width="1.18967" height="11.8967" rx="0.594833" fill="#2DD84A" fill-opacity="0.2"/>
<rect x="30.3691" y="0.998871" width="1.18967" height="11.8967" rx="0.594833" fill="#2DD84A" fill-opacity="0.24"/>
<rect x="36.3164" y="0.998871" width="1.18967" height="11.8967" rx="0.594833" fill="#2DD84A" fill-opacity="0.28"/>
<rect opacity="0.32" x="42.2656" y="0.998871" width="1.18967" height="11.8967" rx="0.594833" fill="#2DD84A"/>
<rect opacity="0.36" x="48.2129" y="0.998871" width="1.18967" height="11.8967" rx="0.594833" fill="#2DD84A"/>
<rect opacity="0.4" x="54.1621" y="0.998871" width="1.18967" height="11.8967" rx="0.594833" fill="#2DD84A"/>
<rect opacity="0.44" x="60.1094" y="0.998871" width="1.18967" height="11.8967" rx="0.594833" fill="#2DD84A"/>
<rect opacity="0.48" x="66.0586" y="0.998871" width="1.18967" height="11.8967" rx="0.594833" fill="#2DD84A"/>
<rect opacity="0.52" x="72.0059" y="0.998871" width="1.18967" height="11.8967" rx="0.594833" fill="#2DD84A"/>
<rect opacity="0.56" x="77.9551" y="0.998871" width="1.18967" height="11.8967" rx="0.594833" fill="#2DD84A"/>
<rect opacity="0.6" x="83.9023" y="0.998871" width="1.18967" height="11.8967" rx="0.594833" fill="#2DD84A"/>
<rect opacity="0.64" x="89.8516" y="0.998871" width="1.18967" height="11.8967" rx="0.594833" fill="#2DD84A"/>
<rect opacity="0.68" x="95.8008" y="0.998871" width="1.18967" height="11.8967" rx="0.594833" fill="#2DD84A"/>
<rect opacity="0.72" x="101.748" y="0.998871" width="1.18967" height="11.8967" rx="0.594833" fill="#2DD84A"/>
</g>
<defs>
<clipPath id="clip0_157_3764">
<rect width="103" height="12" fill="white" transform="translate(0.626953 0.60434)"/>
</clipPath>
</defs>
</svg>
