<svg width="103" height="12" viewBox="0 0 103 12" fill="none" xmlns="http://www.w3.org/2000/svg">
<rect width="1.18967" height="11.8967" rx="0.594833" fill="#2282F3" fill-opacity="0.04"/>
<rect x="5.94727" width="1.18967" height="11.8967" rx="0.594833" fill="#2282F3" fill-opacity="0.08"/>
<rect x="11.8965" width="1.18967" height="11.8967" rx="0.594833" fill="#2282F3" fill-opacity="0.12"/>
<rect x="17.8438" width="1.18967" height="11.8967" rx="0.594833" fill="#2282F3" fill-opacity="0.16"/>
<rect x="23.793" width="1.18967" height="11.8967" rx="0.594833" fill="#2282F3" fill-opacity="0.2"/>
<rect x="29.7422" width="1.18967" height="11.8967" rx="0.594833" fill="#2282F3" fill-opacity="0.24"/>
<rect x="35.6895" width="1.18967" height="11.8967" rx="0.594833" fill="#2282F3" fill-opacity="0.28"/>
<rect opacity="0.32" x="41.6387" width="1.18967" height="11.8967" rx="0.594833" fill="#2282F3"/>
<rect opacity="0.36" x="47.5859" width="1.18967" height="11.8967" rx="0.594833" fill="#2282F3"/>
<rect opacity="0.4" x="53.5352" width="1.18967" height="11.8967" rx="0.594833" fill="#2282F3"/>
<rect opacity="0.44" x="59.4824" width="1.18967" height="11.8967" rx="0.594833" fill="#2282F3"/>
<rect opacity="0.48" x="65.4316" width="1.18967" height="11.8967" rx="0.594833" fill="#2282F3"/>
<rect opacity="0.52" x="71.3789" width="1.18967" height="11.8967" rx="0.594833" fill="#2282F3"/>
<rect opacity="0.56" x="77.3281" width="1.18967" height="11.8967" rx="0.594833" fill="#2282F3"/>
<rect opacity="0.6" x="83.2754" width="1.18967" height="11.8967" rx="0.594833" fill="#2282F3"/>
<rect opacity="0.64" x="89.2246" width="1.18967" height="11.8967" rx="0.594833" fill="#2282F3"/>
<rect opacity="0.68" x="95.1738" width="1.18967" height="11.8967" rx="0.594833" fill="#2282F3"/>
<rect opacity="0.72" x="101.121" width="1.18967" height="11.8967" rx="0.594833" fill="#2282F3"/>
</svg>
