<svg width="24" height="25" viewBox="0 0 24 25" fill="none" xmlns="http://www.w3.org/2000/svg">
<path d="M22.1994 14.9005L20.9994 14.2005C19.6994 13.4005 19.6994 11.5005 20.9994 10.7005L22.1994 10.0005C23.1994 9.40049 23.4994 8.20049 22.8994 7.30049L21.8994 5.60049C21.2994 4.60049 20.0994 4.30049 19.1994 4.90049L17.9994 5.60049C16.6994 6.40049 14.9994 5.40049 14.9994 3.90049V2.50049C14.9994 1.40049 14.0994 0.500488 12.9994 0.500488H10.9994C9.89936 0.500488 8.99936 1.40049 8.99936 2.50049V3.80049C8.99936 5.30049 7.29936 6.30049 5.99936 5.50049L4.79936 4.90049C3.79936 4.30049 2.59936 4.70049 2.09936 5.60049L1.09936 7.30049C0.599356 8.30049 0.899356 9.50049 1.79936 10.1005L2.99936 10.8005C4.29936 11.5005 4.29936 13.5005 2.99936 14.2005L1.79936 14.9005C0.799356 15.5005 0.499356 16.7005 1.09936 17.6005L2.09936 19.3005C2.69936 20.3005 3.89936 20.6005 4.79936 20.0005L5.99936 19.4005C7.29936 18.6005 8.99936 19.6005 8.99936 21.1005V22.5005C8.99936 23.6005 9.89936 24.5005 10.9994 24.5005H12.9994C14.0994 24.5005 14.9994 23.6005 14.9994 22.5005V21.2005C14.9994 19.7005 16.6994 18.7005 17.9994 19.5005L19.1994 20.2005C20.1994 20.8005 21.3994 20.4005 21.8994 19.5005L22.8994 17.8005C23.3994 16.7005 23.0994 15.5005 22.1994 14.9005ZM11.9994 16.5005C9.79936 16.5005 7.99936 14.7005 7.99936 12.5005C7.99936 10.3005 9.79936 8.50049 11.9994 8.50049C14.1994 8.50049 15.9994 10.3005 15.9994 12.5005C15.9994 14.7005 14.1994 16.5005 11.9994 16.5005Z" fill="#6866F6"/>
</svg>
