<svg width="33" height="33" viewBox="0 0 33 33" fill="none" xmlns="http://www.w3.org/2000/svg">
<path fill-rule="evenodd" clip-rule="evenodd" d="M16.6104 32.9194C7.7738 32.9194 0.610352 25.756 0.610352 16.9194C0.610352 8.08287 7.7738 0.919434 16.6104 0.919434C25.4469 0.919434 32.6104 8.08287 32.6104 16.9194C32.6104 25.756 25.4469 32.9194 16.6104 32.9194ZM10.3104 12.6194C10.4103 12.7194 10.5103 12.9194 10.5103 13.1194V20.1194C10.6104 20.4194 10.5103 20.6194 10.3104 20.8194L8.61035 22.8194V23.1194H13.3104V22.8194L11.6104 20.8194C11.5103 20.6194 11.4103 20.4194 11.4103 20.1194V14.0194L15.6104 23.1194H16.0103L19.6104 14.0194V21.3194C19.6104 21.5194 19.6104 21.6194 19.5103 21.7194L18.2104 23.0194V23.3194H24.5103V23.0194L23.3104 21.8194C23.2104 21.7194 23.2104 21.5194 23.2104 21.4194V12.4194C23.1104 12.2194 23.2104 12.1194 23.3104 12.0194L24.6104 10.8194V10.5194H20.2104L17.0103 18.4194L13.4103 10.5194H8.81036V10.8194L10.3104 12.6194Z" />
</svg>
