<svg width="33" height="33" viewBox="0 0 33 33" fill="none" xmlns="http://www.w3.org/2000/svg">
<path fill-rule="evenodd" clip-rule="evenodd" d="M0.610352 16.9194C0.610352 8.08288 7.7738 0.919434 16.6104 0.919434C25.4469 0.919434 32.6104 8.08288 32.6104 16.9194C32.6104 25.756 25.4469 32.9194 16.6104 32.9194C7.7738 32.9194 0.610352 25.756 0.610352 16.9194ZM16.6104 8.91943C21.0104 8.91943 24.6104 12.5194 24.6104 16.9194C24.6104 20.9194 21.7104 24.3194 17.7104 24.9194V19.2194H19.6104L20.0104 16.9194H17.8104V15.4194C17.8104 14.8194 18.1104 14.2194 19.1104 14.2194H20.1104V12.2194C20.1104 12.2194 19.2104 12.0194 18.3104 12.0194C16.5104 12.0194 15.3104 13.1194 15.3104 15.1194V16.9194H13.3104V19.2194H15.3104V24.8194C11.5104 24.2194 8.61035 20.9194 8.61035 16.9194C8.61035 12.5194 12.2104 8.91943 16.6104 8.91943Z" />
</svg>
