<svg width="33" height="33" viewBox="0 0 33 33" fill="none" xmlns="http://www.w3.org/2000/svg">
<path fill-rule="evenodd" clip-rule="evenodd" d="M16.6104 32.9194C7.7738 32.9194 0.610352 25.756 0.610352 16.9194C0.610352 8.08288 7.7738 0.919434 16.6104 0.919434C25.4469 0.919434 32.6104 8.08288 32.6104 16.9194C32.6104 25.756 25.4469 32.9194 16.6104 32.9194ZM17.3022 12.9268C15.8692 13.5228 13.0052 14.7565 8.71027 16.6277C8.01283 16.9051 7.64749 17.1764 7.61423 17.4417C7.55802 17.8901 8.1195 18.0666 8.88409 18.307C8.98809 18.3397 9.09585 18.3736 9.20633 18.4095C9.95857 18.6541 10.9705 18.9401 11.4965 18.9515C11.9737 18.9618 12.5063 18.7651 13.0942 18.3613C17.1072 15.6525 19.1786 14.2833 19.3087 14.2538C19.4004 14.233 19.5276 14.2068 19.6137 14.2834C19.6999 14.3599 19.6914 14.5049 19.6823 14.5438C19.6267 14.781 17.4226 16.83 16.2821 17.8904C15.9265 18.221 15.6743 18.4555 15.6227 18.509C15.5072 18.629 15.3895 18.7425 15.2764 18.8515C14.5775 19.5252 14.0534 20.0304 15.3054 20.8554C15.907 21.2519 16.3884 21.5798 16.8687 21.9068C17.3932 22.264 17.9164 22.6203 18.5933 23.064C18.7657 23.1771 18.9304 23.2945 19.0909 23.4088C19.7013 23.844 20.2497 24.235 20.9272 24.1726C21.3209 24.1364 21.7275 23.7662 21.9341 22.6622C22.4221 20.0529 23.3815 14.3995 23.6032 12.0699C23.6227 11.8658 23.5982 11.6046 23.5786 11.4899C23.559 11.3752 23.518 11.2119 23.3689 11.0909C23.1924 10.9477 22.9199 10.9175 22.798 10.9195C22.2439 10.9294 21.3937 11.225 17.3022 12.9268Z" />
</svg>
