<svg width="33" height="33" viewBox="0 0 33 33" fill="none" xmlns="http://www.w3.org/2000/svg">
<path fill-rule="evenodd" clip-rule="evenodd" d="M0.610352 16.9194C0.610352 8.08288 7.7738 0.919434 16.6104 0.919434C25.4469 0.919434 32.6104 8.08288 32.6104 16.9194C32.6104 25.756 25.4469 32.9194 16.6104 32.9194C7.7738 32.9194 0.610352 25.756 0.610352 16.9194ZM22.7104 12.4194C23.4104 12.3194 24.0104 12.2194 24.6104 11.9194C24.2104 12.6194 23.6104 13.2194 22.9104 13.6194C23.1104 18.3194 19.7104 23.4194 13.6104 23.4194C11.8104 23.4194 10.1104 22.8194 8.61035 21.9194C10.3104 22.1194 12.1104 21.6194 13.3104 20.7194C11.8104 20.7194 10.6104 19.7194 10.2104 18.4194C10.7104 18.5194 11.2104 18.4194 11.7104 18.3194C10.2104 17.9194 9.11035 16.5194 9.11035 15.0194C9.61035 15.2194 10.1104 15.4194 10.6104 15.4194C9.21035 14.4194 8.71035 12.5194 9.61035 11.0194C11.3104 13.0194 13.7104 14.3194 16.4104 14.4194C15.9104 12.4194 17.5104 10.4194 19.6104 10.4194C20.5104 10.4194 21.4104 10.8194 22.0104 11.4194C22.8104 11.2194 23.5104 11.0194 24.1104 10.6194C23.9104 11.4194 23.4104 12.0194 22.7104 12.4194Z" />
</svg>
