<svg width="33" height="33" viewBox="0 0 33 33" fill="none" xmlns="http://www.w3.org/2000/svg">
<path d="M19.2104 16.9194L15.0103 14.5194V19.3194L19.2104 16.9194Z" />
<path fill-rule="evenodd" clip-rule="evenodd" d="M0.610352 16.9194C0.610352 8.08288 7.7738 0.919434 16.6104 0.919434C25.4469 0.919434 32.6104 8.08288 32.6104 16.9194C32.6104 25.756 25.4469 32.9194 16.6104 32.9194C7.7738 32.9194 0.610352 25.756 0.610352 16.9194ZM22.8104 11.6194C23.5104 11.8194 24.0104 12.3194 24.2104 13.0194C24.6104 14.3194 24.6104 16.9194 24.6104 16.9194C24.6104 16.9194 24.6104 19.5194 24.3104 20.8194C24.1104 21.5194 23.6103 22.0194 22.9103 22.2194C21.6103 22.5194 16.6104 22.5194 16.6104 22.5194C16.6104 22.5194 11.5103 22.5194 10.3103 22.2194C9.61035 22.0194 9.11035 21.5194 8.91035 20.8194C8.61035 19.5194 8.61035 16.9194 8.61035 16.9194C8.61035 16.9194 8.61035 14.3194 8.81035 13.0194C9.01035 12.3194 9.51036 11.8194 10.2104 11.6194C11.5104 11.3194 16.5103 11.3194 16.5103 11.3194C16.5103 11.3194 21.6104 11.3194 22.8104 11.6194Z" />
</svg>
