<svg width="33" height="33" viewBox="0 0 33 33" fill="none" xmlns="http://www.w3.org/2000/svg">
<path d="M16.6104 19.7194C15.1104 19.7194 13.8104 18.5194 13.8104 16.9194C13.8104 15.4194 15.0104 14.1194 16.6104 14.1194C18.1104 14.1194 19.4104 15.3194 19.4104 16.9194C19.4104 18.4194 18.1104 19.7194 16.6104 19.7194Z" />
<path fill-rule="evenodd" clip-rule="evenodd" d="M20.0104 10.1194H13.2104C12.4104 10.2194 12.0104 10.3194 11.7104 10.4194C11.3104 10.5194 11.0104 10.7194 10.7104 11.0194C10.473 11.2568 10.3608 11.4942 10.2252 11.7811C10.1895 11.8568 10.1521 11.936 10.1104 12.0194C10.0949 12.0658 10.077 12.1146 10.0579 12.167C9.95326 12.4528 9.81035 12.8432 9.81035 13.5194V20.3194C9.91035 21.1194 10.0104 21.5194 10.1104 21.8194C10.2104 22.2194 10.4104 22.5194 10.7104 22.8194C10.9477 23.0568 11.1851 23.169 11.4721 23.3045C11.5477 23.3403 11.6269 23.3777 11.7104 23.4194C11.7568 23.4349 11.8056 23.4528 11.8579 23.4719C12.1437 23.5765 12.5341 23.7194 13.2104 23.7194H20.0104C20.8104 23.6194 21.2104 23.5194 21.5104 23.4194C21.9104 23.3194 22.2104 23.1194 22.5104 22.8194C22.7477 22.582 22.8599 22.3447 22.9955 22.0577C23.0312 21.9821 23.0686 21.9029 23.1104 21.8194C23.1258 21.773 23.1437 21.7242 23.1628 21.6719C23.2674 21.3861 23.4104 20.9957 23.4104 20.3194V13.5194C23.3104 12.7194 23.2104 12.3194 23.1104 12.0194C23.0104 11.6194 22.8104 11.3194 22.5104 11.0194C22.273 10.782 22.0356 10.6699 21.7486 10.5343C21.6731 10.4986 21.5937 10.4611 21.5104 10.4194C21.4639 10.404 21.4151 10.3861 21.3628 10.367C21.077 10.2623 20.6866 10.1194 20.0104 10.1194ZM16.6104 12.6194C14.2104 12.6194 12.3104 14.5194 12.3104 16.9194C12.3104 19.3194 14.2104 21.2194 16.6104 21.2194C19.0104 21.2194 20.9104 19.3194 20.9104 16.9194C20.9104 14.5194 19.0104 12.6194 16.6104 12.6194ZM22.0104 12.5194C22.0104 13.0717 21.5626 13.5194 21.0104 13.5194C20.4581 13.5194 20.0104 13.0717 20.0104 12.5194C20.0104 11.9671 20.4581 11.5194 21.0104 11.5194C21.5626 11.5194 22.0104 11.9671 22.0104 12.5194Z" />
<path fill-rule="evenodd" clip-rule="evenodd" d="M0.610352 16.9194C0.610352 8.08288 7.7738 0.919434 16.6104 0.919434C25.4469 0.919434 32.6104 8.08288 32.6104 16.9194C32.6104 25.756 25.4469 32.9194 16.6104 32.9194C7.7738 32.9194 0.610352 25.756 0.610352 16.9194ZM13.2104 8.61943H20.0104C20.9104 8.71943 21.5104 8.81943 22.0104 9.01943C22.6104 9.31943 23.0104 9.51943 23.5104 10.0194C24.0104 10.5194 24.3104 11.0194 24.5104 11.5194C24.7104 12.0194 24.9104 12.6194 24.9104 13.5194V20.3194C24.8104 21.2194 24.7104 21.8194 24.5104 22.3194C24.2104 22.9194 24.0104 23.3194 23.5104 23.8194C23.0104 24.3194 22.5104 24.6194 22.0104 24.8194C21.5104 25.0194 20.9104 25.2194 20.0104 25.2194H13.2104C12.3104 25.1194 11.7104 25.0194 11.2104 24.8194C10.6104 24.5194 10.2104 24.3194 9.71035 23.8194C9.21035 23.3194 8.91035 22.8194 8.71035 22.3194C8.51035 21.8194 8.31035 21.2194 8.31035 20.3194V13.5194C8.41035 12.6194 8.51035 12.0194 8.71035 11.5194C9.01035 10.9194 9.21035 10.5194 9.71035 10.0194C10.2104 9.51943 10.7104 9.21943 11.2104 9.01943C11.7104 8.81943 12.3104 8.61943 13.2104 8.61943Z" />
</svg>
