<svg width="24" height="25" viewBox="0 0 24 25" fill="none" xmlns="http://www.w3.org/2000/svg">
<path d="M18.5028 7.83004L16.137 4.67562C15.4998 3.8261 14.31 3.62229 13.4265 4.21133L7.92822 7.87682"  stroke-width="1.5" stroke-linecap="round" stroke-linejoin="round"/>
<path fill-rule="evenodd" clip-rule="evenodd" d="M18.5028 12.3787H21.0038C21.5563 12.3787 22.0042 12.8266 22.0042 13.3791V16.3804C22.0042 16.9329 21.5563 17.3808 21.0038 17.3808H18.5028C17.1215 17.3808 16.0017 16.261 16.0017 14.8797V14.8797C16.0017 13.4984 17.1215 12.3787 18.5028 12.3787V12.3787Z"  stroke-width="1.5" stroke-linecap="round" stroke-linejoin="round"/>
<path d="M12 21.8826H18.5027C19.884 21.8826 21.0037 20.7629 21.0037 19.3816V17.3808"  stroke-width="1.5" stroke-linecap="round" stroke-linejoin="round"/>
<circle cx="5.99752" cy="18.8814" r="4.00167"  stroke-width="1.5" stroke-linecap="round" stroke-linejoin="round"/>
<path d="M7.34322 18.0891L5.66252 19.7688L4.6521 18.7613"  stroke-width="1.5" stroke-linecap="round" stroke-linejoin="round"/>
<path d="M21.0038 12.3787V10.3779C21.0038 8.99657 19.8841 7.87682 18.5028 7.87682H5.49738C4.11609 7.87682 2.99634 8.99657 2.99634 10.3779V12.8789"  stroke-width="1.5" stroke-linecap="round" stroke-linejoin="round"/>
</svg>
