<svg width="35" height="35" viewBox="0 0 35 35" fill="none" xmlns="http://www.w3.org/2000/svg">
<path d="M17.5 35C27.1648 35 35 27.1648 35 17.5C35 7.83517 27.1648 0 17.5 0C7.83517 0 0 7.83517 0 17.5C0 27.1648 7.83517 35 17.5 35Z" fill="#24A980"/>
<path d="M19.672 19.2443L17.5338 19.3008C16.4081 19.3008 15.6486 19.2725 15.367 19.2443C11.1187 19.0754 7.91118 18.3158 7.91118 17.4437C7.91118 16.5433 11.0905 15.812 15.367 15.6148V18.5125C15.6486 18.5408 16.4363 18.569 17.5615 18.569C18.8839 18.569 19.5593 18.5125 19.672 18.5125V15.6148C23.9484 15.812 27.1277 16.5433 27.1277 17.4437C27.1277 18.3158 23.9484 19.0754 19.672 19.2443ZM19.672 15.3055V12.7171H25.6364V8.75H9.43067V12.7171H15.3952V15.3055C10.5559 15.5304 6.92676 16.487 6.92676 17.6409C6.92676 18.7946 10.5559 19.7508 15.3952 19.9761V28.3042H19.7002V19.9758C24.539 19.7508 28.1686 18.7941 28.1686 17.6404C28.1404 16.487 24.5112 15.5304 19.672 15.3051V15.3055Z" fill="#FFFDFA"/>
</svg>
