<svg width="35" height="35" viewBox="0 0 35 35" fill="none" xmlns="http://www.w3.org/2000/svg">
<circle cx="17.5" cy="17.5" r="17.5" fill="url(#paint0_linear_47_4096)"/>
<path fill-rule="evenodd" clip-rule="evenodd" d="M17.4482 29.121C14.0424 29.1184 11.2989 28.3012 9.38207 26.8333C7.4422 25.3477 6.41309 23.2396 6.41309 20.8542C6.41309 18.5557 7.43993 16.8983 8.60179 15.778C9.51234 14.9001 10.5171 14.3378 11.2168 14.0143C11.0586 13.5288 10.8611 12.8931 10.6845 12.2366C10.4483 11.358 10.2164 10.3272 10.2164 9.57186C10.2164 8.67779 10.4114 7.77989 10.9369 7.08219C11.4922 6.34508 12.3282 5.9502 13.3339 5.9502C14.1199 5.9502 14.7872 6.24172 15.3096 6.7447C15.809 7.22543 16.1413 7.86393 16.3708 8.52948C16.774 9.69895 16.9311 11.1683 16.9751 12.6345H17.9384C17.9824 11.1683 18.1394 9.69895 18.5427 8.52948C18.7722 7.86393 19.1045 7.22543 19.6039 6.7447C20.1263 6.24172 20.7936 5.9502 21.5796 5.9502C22.5853 5.9502 23.4213 6.34508 23.9766 7.08219C24.5021 7.77989 24.6971 8.67779 24.6971 9.57186C24.6971 10.3272 24.4652 11.358 24.2289 12.2366C24.0523 12.8931 23.8549 13.5288 23.6967 14.0143C24.3964 14.3378 25.4012 14.9001 26.3117 15.778C27.4736 16.8983 28.5004 18.5557 28.5004 20.8542C28.5004 23.2396 27.4713 25.3477 25.5314 26.8333C23.6146 28.3012 20.8711 29.1184 17.4653 29.121H17.4482Z" fill="#633001"/>
<path d="M13.3343 6.80029C11.8612 6.80029 11.1832 7.91041 11.1832 9.44571C11.1832 10.666 11.971 13.11 12.2943 14.0614C12.367 14.2754 12.2527 14.5098 12.0444 14.5928C10.8638 15.0631 7.37988 16.7848 7.37988 20.728C7.37988 24.8818 10.9204 28.0136 17.4493 28.0186C17.4519 28.0186 17.4545 28.0186 17.4571 28.0186C17.4597 28.0186 17.4623 28.0186 17.4649 28.0186C23.9938 28.0136 27.5343 24.8818 27.5343 20.728C27.5343 16.7848 24.0504 15.0631 22.8698 14.5928C22.6615 14.5098 22.5472 14.2754 22.6199 14.0614C22.9432 13.11 23.731 10.666 23.731 9.44571C23.731 7.91041 23.053 6.80029 21.58 6.80029C19.4596 6.80029 18.9311 9.83446 18.8934 13.0909C18.8909 13.3083 18.7169 13.4847 18.5017 13.4847H16.4125C16.1973 13.4847 16.0234 13.3083 16.0208 13.0909C15.9831 9.83446 15.4546 6.80029 13.3343 6.80029Z" fill="#D1884F"/>
<path d="M17.4649 26.6884C12.6678 26.6884 7.38816 24.0944 7.37988 20.7363C7.37988 20.7416 7.37988 20.7468 7.37988 20.752C7.37988 24.9091 10.926 28.0427 17.4649 28.0427C24.0038 28.0427 27.5499 24.9091 27.5499 20.752C27.5499 20.7468 27.5499 20.7416 27.5499 20.7363C27.5416 24.0944 22.2621 26.6884 17.4649 26.6884Z" fill="#FEDC90"/>
<path d="M14.799 19.7047C14.799 20.8384 14.2686 21.4289 13.6143 21.4289C12.96 21.4289 12.4297 20.8384 12.4297 19.7047C12.4297 18.5709 12.96 17.9805 13.6143 17.9805C14.2686 17.9805 14.799 18.5709 14.799 19.7047Z" fill="#633001"/>
<path d="M22.4992 19.7047C22.4992 20.8384 21.9688 21.4289 21.3145 21.4289C20.6603 21.4289 20.1299 20.8384 20.1299 19.7047C20.1299 18.5709 20.6603 17.9805 21.3145 17.9805C21.9688 17.9805 22.4992 18.5709 22.4992 19.7047Z" fill="#633001"/>
<defs>
<linearGradient id="paint0_linear_47_4096" x1="0" y1="0" x2="0" y2="35" gradientUnits="userSpaceOnUse">
<stop stop-color="#53DEE9"/>
<stop offset="1" stop-color="#1FC7D4"/>
</linearGradient>
</defs>
</svg>
