<svg width="25" height="25" viewBox="0 0 25 25" fill="none" xmlns="http://www.w3.org/2000/svg">
<g clip-path="url(#clip0_47_3961)">
<path d="M12.5 24.702C19.1274 24.702 24.5 19.3295 24.5 12.7021C24.5 6.07472 19.1274 0.702148 12.5 0.702148C5.87258 0.702148 0.5 6.07472 0.5 12.7021C0.5 19.3295 5.87258 24.702 12.5 24.702Z" fill="white"/>
<path d="M21.7947 5.2168C20.9625 5.38131 20.1689 5.61357 19.5157 5.75873C18.0254 6.0926 16.6318 7.23453 16.327 9.32485C16.056 11.1925 16.685 11.9958 16.4092 14.1683C15.9254 17.9619 12.2867 19.2683 10.5883 20.0619C9.60603 20.5167 7.22055 21.5619 5.38184 22.3603C7.37539 23.8312 9.83345 24.7022 12.4996 24.7022C19.1286 24.7022 24.4995 19.3312 24.4995 12.7022C24.4995 9.87646 23.5221 7.27808 21.8866 5.23131C21.8576 5.22647 21.8286 5.22164 21.7947 5.2168Z" fill="url(#paint0_linear_47_3961)"/>
<path d="M11.15 10.9408C12.0742 8.94246 11.7403 8.93762 12.4419 7.0602C13.3274 4.67956 16.0806 5.35698 16.8403 5.45859C18.0935 5.62795 18.4226 5.18279 21.0645 4.75698C21.1951 4.73763 21.3209 4.71827 21.4468 4.70375C19.25 2.25053 16.0564 0.702148 12.5 0.702148C7.72419 0.702148 3.60161 3.48924 1.67097 7.52956C5.62903 8.51181 9.9016 10.6457 11.15 10.9408ZM8.52741 2.79247C8.8758 2.84569 10.5693 4.95053 10.8887 10.3554C10.8887 10.3554 8.71128 9.83278 8.24193 8.7102C7.85483 7.78601 8.35806 6.57149 8.52741 2.79247ZM21.8677 5.20698C21.8726 5.21666 21.8822 5.2215 21.8871 5.23117C21.858 5.22633 21.8242 5.22633 21.7951 5.2215C21.8193 5.21182 21.8435 5.21182 21.8677 5.20698ZM0.5 12.7021C0.5 11.744 0.61129 10.815 0.824193 9.92471C1.25968 10.2876 1.72419 10.6892 2.21774 11.1489C5.34354 14.0472 10.429 16.3359 12.2822 14.2069C12.2871 14.2117 12.2919 14.2117 12.2919 14.2166C11.9532 14.6617 10.6613 16.0698 8.19354 15.6343L4.29354 21.4553C1.96129 19.2682 0.5 16.1569 0.5 12.7021Z" fill="url(#paint1_linear_47_3961)"/>
</g>
<defs>
<linearGradient id="paint0_linear_47_3961" x1="19.7061" y1="8.35975" x2="16.8751" y2="23.9562" gradientUnits="userSpaceOnUse">
<stop stop-color="#FF496A"/>
<stop offset="1" stop-color="#E42648"/>
</linearGradient>
<linearGradient id="paint1_linear_47_3961" x1="6.29203" y1="18.3788" x2="12.5515" y2="0.702143" gradientUnits="userSpaceOnUse">
<stop offset="0.00181229" stop-color="#1158F1"/>
<stop offset="1" stop-color="#119BED"/>
</linearGradient>
<clipPath id="clip0_47_3961">
<rect width="24" height="24" fill="white" transform="translate(0.5 0.702148)"/>
</clipPath>
</defs>
</svg>
