<svg width="25" height="25" viewBox="0 0 25 25" fill="none" xmlns="http://www.w3.org/2000/svg">
<path fill-rule="evenodd" clip-rule="evenodd" d="M12.5 24.7021C5.9 24.7021 0.5 19.3023 0.5 12.6424C0.56 6.04253 5.9 0.642645 12.56 0.702644C19.16 0.762642 24.5 6.10253 24.5 12.8224C24.44 19.3623 19.1 24.7021 12.5 24.7021Z" fill="#FC070C"/>
<path fill-rule="evenodd" clip-rule="evenodd" d="M21.0507 10.1633C20.7232 9.86087 20.3435 9.4922 19.9479 9.10804C19.3921 8.56844 18.8049 7.99827 18.2866 7.53827L18.2341 7.50152C18.1468 7.43137 18.0483 7.37636 17.9427 7.33877L17.5428 7.26414L17.5427 7.26414L17.5427 7.26413L17.5426 7.26412C14.7825 6.74912 5.83656 5.07989 5.65253 5.10227C5.5981 5.1099 5.54607 5.12963 5.50028 5.16002L5.45041 5.1994C5.38899 5.26177 5.34235 5.33712 5.31391 5.4199L5.30078 5.45402V5.6404V5.66927C5.90814 7.3605 7.48588 11.1374 8.94268 14.6248L8.94273 14.6249L8.94275 14.6249L8.94277 14.625L8.94279 14.625C10.1744 17.5734 11.3196 20.3148 11.7189 21.414L11.719 21.4144C11.7716 21.5773 11.8713 21.8865 12.0575 21.9022H12.0995C12.1993 21.9022 12.6245 21.3405 12.6245 21.3405C12.6245 21.3405 20.2265 12.1215 20.9956 11.1398C21.0952 11.0188 21.1831 10.8887 21.2581 10.7513C21.2971 10.5324 21.2183 10.3092 21.0507 10.1633ZM14.575 11.2368L17.8194 8.5462L19.7226 10.2997L14.575 11.2368ZM7.72876 6.48297L13.3147 11.061L16.7666 8.14984L7.72876 6.48297ZM13.8188 12.2606L19.536 11.3392L12.9998 19.2142L13.8188 12.2606ZM12.8476 11.9272L6.97021 6.9397L11.9971 19.2194L12.8476 11.9272Z" fill="white"/>
</svg>
