<svg width="24" height="25" viewBox="0 0 24 25" fill="none" xmlns="http://www.w3.org/2000/svg">
<path d="M12 24.7021C18.6273 24.7021 24 19.3294 24 12.7021C24 6.07484 18.6273 0.702148 12 0.702148C5.37269 0.702148 0 6.07484 0 12.7021C0 19.3294 5.37269 24.7021 12 24.7021Z" fill="#24A980"/>
<path d="M13.4896 13.8982L12.0234 13.9369C11.2515 13.9369 10.7307 13.9175 10.5376 13.8982C7.62448 13.7824 5.42503 13.2615 5.42503 12.6635C5.42503 12.0461 7.60517 11.5446 10.5376 11.4094V13.3964C10.7307 13.4158 11.2708 13.4351 12.0424 13.4351C12.9492 13.4351 13.4123 13.3964 13.4896 13.3964V11.4094C16.422 11.5446 18.6021 12.0461 18.6021 12.6635C18.6021 13.2615 16.422 13.7824 13.4896 13.8982ZM13.4896 11.1973V9.42243H17.5795V6.70215H6.46697V9.42243H10.5569V11.1973C7.23855 11.3515 4.75 12.0075 4.75 12.7987C4.75 13.5898 7.23855 14.2455 10.5569 14.4V20.1107H13.5089V14.3998C16.827 14.2455 19.3158 13.5895 19.3158 12.7984C19.2965 12.0075 16.8079 11.3515 13.4896 11.197V11.1973Z" fill="#FFFDFA"/>
</svg>
