<svg width="681" height="222" viewBox="0 0 681 222" fill="none" xmlns="http://www.w3.org/2000/svg">
<path d="M-301.201 204.7L-252.108 223.83M-252.108 223.83L-106.286 280.652M-252.108 223.83L-279.518 233.306M-252.108 223.83L-104.343 172.746M-106.286 280.652L39.5366 337.475M-106.286 280.652L-133.696 290.128M-106.286 280.652L41.4791 229.568M39.5366 337.475L89.358 356.888M39.5366 337.475L12.1262 346.951M39.5366 337.475L187.301 286.391M-153.436 153.616L-104.343 172.746M-104.343 172.746L41.4791 229.568M-104.343 172.746L43.4217 121.661M41.4791 229.568L187.301 286.391M41.4791 229.568L189.244 178.484M187.301 286.391L237.123 305.804M187.301 286.391L335.066 235.306M-5.67129 102.531L43.4217 121.661M43.4217 121.661L189.244 178.484M43.4217 121.661L191.187 70.5774M189.244 178.484L335.066 235.306M189.244 178.484L337.009 127.4M335.066 235.306L384.888 254.72M335.066 235.306L482.831 184.222M57.2396 19.2274L191.187 70.5774M191.187 70.5774L337.009 127.4M191.187 70.5774L338.951 19.4934M337.009 127.4L482.831 184.222M337.009 127.4L484.773 76.3158M482.831 184.222L532.652 203.636M482.831 184.222L630.596 133.138M289.858 0.363305L338.951 19.4934M338.951 19.4934L484.773 76.3158M338.951 19.4934L356.166 13.5421M484.773 76.3158L630.596 133.138M484.773 76.3158L501.988 70.3646M630.596 133.138L680.417 152.552M630.596 133.138L647.81 127.187" stroke="url(#paint0_linear_0_1045)" stroke-opacity="0.1" stroke-width="0.769082"/>
<defs>
<linearGradient id="paint0_linear_0_1045" x1="191.949" y1="57.7276" x2="191.873" y2="183.569" gradientUnits="userSpaceOnUse">
<stop stop-color="white" stop-opacity="0"/>
<stop offset="1" stop-color="white"/>
</linearGradient>
</defs>
</svg>
