<svg width="682" height="222" viewBox="0 0 682 222" fill="none" xmlns="http://www.w3.org/2000/svg">
<path d="M982.417 204.7L933.324 223.83M933.324 223.83L787.502 280.653M933.324 223.83L960.734 233.306M933.324 223.83L785.559 172.746M787.502 280.653L641.68 337.475M787.502 280.653L814.912 290.129M787.502 280.653L639.737 229.569M641.68 337.475L591.858 356.889M641.68 337.475L669.09 346.951M641.68 337.475L493.915 286.391M834.652 153.616L785.559 172.746M785.559 172.746L639.737 229.569M785.559 172.746L637.795 121.662M639.737 229.569L493.915 286.391M639.737 229.569L491.972 178.484M493.915 286.391L444.094 305.805M493.915 286.391L346.15 235.307M686.888 102.532L637.795 121.662M637.795 121.662L491.972 178.484M637.795 121.662L490.03 70.5779M491.972 178.484L346.15 235.307M491.972 178.484L344.208 127.4M346.15 235.307L296.329 254.721M346.15 235.307L198.385 184.223M623.977 19.2279L490.03 70.5779M490.03 70.5779L344.208 127.4M490.03 70.5779L342.265 19.4938M344.208 127.4L198.385 184.223M344.208 127.4L196.443 76.3163M198.385 184.223L148.564 203.637M198.385 184.223L50.6206 133.139M391.358 0.363793L342.265 19.4938M342.265 19.4938L196.443 76.3163M342.265 19.4938L325.051 13.5426M196.443 76.3163L50.6206 133.139M196.443 76.3163L179.228 70.365M50.6206 133.139L0.799228 152.553M50.6206 133.139L33.4061 127.188" stroke="url(#paint0_linear_0_1046)" stroke-opacity="0.1" stroke-width="0.769082"/>
<defs>
<linearGradient id="paint0_linear_0_1046" x1="489.267" y1="57.7281" x2="489.343" y2="183.57" gradientUnits="userSpaceOnUse">
<stop stop-color="white" stop-opacity="0"/>
<stop offset="1" stop-color="white"/>
</linearGradient>
</defs>
</svg>
