<svg width="29" height="29" viewBox="0 0 29 29" fill="none" xmlns="http://www.w3.org/2000/svg">
<g clip-path="url(#clip0_58_1331)">
<path d="M14.1729 28.9767C21.9048 28.9767 28.1729 22.7088 28.1729 14.9768C28.1729 7.2448 21.9048 0.976807 14.1729 0.976807C6.44086 0.976807 0.172852 7.2448 0.172852 14.9768C0.172852 22.7088 6.44086 28.9767 14.1729 28.9767Z" fill="white"/>
<path d="M25.0175 6.24377C24.0466 6.4357 23.1207 6.70667 22.3587 6.87603C20.62 7.26554 18.9941 8.59779 18.6385 11.0365C18.3224 13.2155 19.0562 14.1527 18.7344 16.6872C18.17 21.1131 13.9248 22.6372 11.9434 23.5631C10.7974 24.0937 8.0143 25.3131 5.86914 26.2446C8.19495 27.9606 11.0627 28.9768 14.1732 28.9768C21.9071 28.9768 28.1731 22.7106 28.1731 14.9768C28.1731 11.68 27.0328 8.6486 25.1247 6.2607C25.0909 6.25506 25.0571 6.24942 25.0175 6.24377Z" fill="url(#paint0_linear_58_1331)"/>
<path d="M12.5979 12.922C13.6761 10.5905 13.2865 10.5849 14.1051 8.39453C15.1382 5.61712 18.3502 6.40744 19.2365 6.52599C20.6986 6.72357 21.0826 6.20422 24.1648 5.70744C24.3171 5.68487 24.4639 5.66228 24.6108 5.64534C22.0479 2.78325 18.322 0.976807 14.1729 0.976807C8.60107 0.976807 3.7914 4.22841 1.53898 8.94212C6.15672 10.0881 11.1414 12.5776 12.5979 12.922ZM9.53816 3.41551C9.94462 3.4776 11.9204 5.93325 12.293 12.2389C12.293 12.2389 9.75268 11.6292 9.2051 10.3195C8.75349 9.24131 9.34059 7.82437 9.53816 3.41551ZM25.1018 6.23244C25.1076 6.24373 25.1188 6.24938 25.1245 6.26066C25.0905 6.25502 25.0511 6.25502 25.0171 6.24938C25.0454 6.23809 25.0736 6.23809 25.1018 6.23244ZM0.172852 14.9768C0.172852 13.859 0.30269 12.7752 0.551077 11.7365C1.05914 12.1598 1.60107 12.6284 2.17688 13.1647C5.82365 16.5461 11.7567 19.2162 13.9188 16.7324C13.9245 16.738 13.9301 16.738 13.9301 16.7437C13.5349 17.263 12.0277 18.9058 9.14865 18.3977L4.59865 25.1889C1.87769 22.6373 0.172852 19.0074 0.172852 14.9768Z" fill="url(#paint1_linear_58_1331)"/>
</g>
<defs>
<linearGradient id="paint0_linear_58_1331" x1="22.5808" y1="9.91055" x2="19.278" y2="28.1065" gradientUnits="userSpaceOnUse">
<stop stop-color="#FF496A"/>
<stop offset="1" stop-color="#E42648"/>
</linearGradient>
<linearGradient id="paint1_linear_58_1331" x1="6.93022" y1="21.5996" x2="14.2329" y2="0.976801" gradientUnits="userSpaceOnUse">
<stop offset="0.00181229" stop-color="#1158F1"/>
<stop offset="1" stop-color="#119BED"/>
</linearGradient>
<clipPath id="clip0_58_1331">
<rect width="28" height="28" fill="white" transform="translate(0.172852 0.976807)"/>
</clipPath>
</defs>
</svg>
