<svg width="29" height="29" viewBox="0 0 29 29" fill="none" xmlns="http://www.w3.org/2000/svg">
<path d="M14.1729 28.9768C21.9047 28.9768 28.1729 22.7087 28.1729 14.9768C28.1729 7.24495 21.9047 0.976807 14.1729 0.976807C6.44099 0.976807 0.172852 7.24495 0.172852 14.9768C0.172852 22.7087 6.44099 28.9768 14.1729 28.9768Z" fill="#24A980"/>
<path d="M15.911 16.3723L14.2005 16.4174C13.2999 16.4174 12.6923 16.3948 12.467 16.3723C9.0684 16.2372 6.50238 15.6294 6.50238 14.9318C6.50238 14.2115 9.04588 13.6264 12.467 13.4687V15.7868C12.6923 15.8095 13.3224 15.832 14.2226 15.832C15.2806 15.832 15.8209 15.7868 15.911 15.7868V13.4687C19.3322 13.6264 21.8756 14.2115 21.8756 14.9318C21.8756 15.6294 19.3322 16.2372 15.911 16.3723ZM15.911 13.2212V11.1505H20.6826V7.97681H7.71798V11.1505H12.4896V13.2212C8.61815 13.4011 5.71484 14.1664 5.71484 15.0895C5.71484 16.0125 8.61815 16.7774 12.4896 16.9577V23.6202H15.9336V16.9575C19.8047 16.7774 22.7083 16.0121 22.7083 15.0892C22.6858 14.1664 19.7824 13.4011 15.911 13.2209V13.2212Z" fill="#FFFDFA"/>
</svg>
