<svg width="140" height="140" viewBox="0 0 140 140" fill="none" xmlns="http://www.w3.org/2000/svg">
<g opacity="0.1">
<path d="M18.6958 66.5449L18.6958 73.4697L63.5132 71.7961L63.5132 68.7763L18.6958 66.5449Z" fill="url(#paint0_linear_0_1735)"/>
<path d="M120.482 66.5449L120.482 73.4697L75.6643 71.7961L75.6643 68.7763L120.482 66.5449Z" fill="url(#paint1_linear_0_1735)"/>
<path d="M73.0527 19.1152H66.128L67.8015 63.9326H70.8213L73.0527 19.1152Z" fill="url(#paint2_linear_0_1735)"/>
<path d="M73.0527 120.901L66.128 120.901L67.8015 76.084L70.8214 76.084L73.0527 120.901Z" fill="url(#paint3_linear_0_1735)"/>
<path d="M27.2471 41.5613L23.7847 47.5583L63.4344 68.5176L64.9443 65.9024L27.2471 41.5613Z" fill="url(#paint4_linear_0_1735)"/>
<path d="M115.396 92.4529L111.934 98.4499L73.9577 74.5919L75.4676 71.9766L115.396 92.4529Z" fill="url(#paint5_linear_0_1735)"/>
<path d="M98.04 27.6641L92.043 24.2017L71.0837 63.8514L73.6989 65.3613L98.04 27.6641Z" fill="url(#paint6_linear_0_1735)"/>
<path d="M47.1445 115.815L41.1475 112.353L65.0055 74.3769L67.6208 75.8868L47.1445 115.815Z" fill="url(#paint7_linear_0_1735)"/>
<path d="M46.9883 24.2629L41.0023 27.7443L64.9808 65.6446L67.5912 64.1264L46.9883 24.2629Z" fill="url(#paint8_linear_0_1735)"/>
<path d="M98.1582 112.25L92.1722 115.732L71.087 76.1486L73.6975 74.6304L98.1582 112.25Z" fill="url(#paint9_linear_0_1735)"/>
<path d="M115.312 47.4055L111.83 41.4195L73.9299 65.398L75.4481 68.0084L115.312 47.4055Z" fill="url(#paint10_linear_0_1735)"/>
<path d="M27.3262 98.5764L23.8448 92.5904L63.4278 71.5053L64.946 74.1157L27.3262 98.5764Z" fill="url(#paint11_linear_0_1735)"/>
</g>
<g clip-path="url(#clip0_0_1735)">
<path d="M53.5169 100.797L53.4702 75.2021L70.1817 84.044C72.6065 85.3294 72.7305 88.7579 70.4047 90.2148L53.5164 100.797H53.5169Z" fill="#6866F6" fill-opacity="0.44"/>
<path d="M53.4259 50.9683L53.4026 38.0615L107.71 66.8399L100.775 71.1852C98.1662 72.8201 94.8816 72.935 92.1647 71.4863L53.4259 50.9683Z" fill="#6866F6" fill-opacity="0.6"/>
<path d="M82.4936 84.5658L45.1582 65.0282V52.1257L77.0111 68.737C83.5552 72.3042 82.8756 75.2647 82.4936 84.5654V84.5658Z" fill="#6866F6"/>
</g>
<defs>
<linearGradient id="paint0_linear_0_1735" x1="18.6958" y1="70.0073" x2="49.8715" y2="73.1101" gradientUnits="userSpaceOnUse">
<stop offset="0.0672622" stop-color="white" stop-opacity="0"/>
<stop offset="0.718318" stop-color="white" stop-opacity="0.33"/>
<stop offset="1" stop-color="white" stop-opacity="0.12"/>
</linearGradient>
<linearGradient id="paint1_linear_0_1735" x1="120.482" y1="70.0073" x2="89.306" y2="73.1101" gradientUnits="userSpaceOnUse">
<stop offset="0.0672622" stop-color="white" stop-opacity="0"/>
<stop offset="0.718318" stop-color="white" stop-opacity="0.33"/>
<stop offset="1" stop-color="white" stop-opacity="0.12"/>
</linearGradient>
<linearGradient id="paint2_linear_0_1735" x1="69.5904" y1="19.1152" x2="66.4876" y2="50.291" gradientUnits="userSpaceOnUse">
<stop offset="0.0672622" stop-color="white" stop-opacity="0"/>
<stop offset="0.718318" stop-color="white" stop-opacity="0.33"/>
<stop offset="1" stop-color="white" stop-opacity="0.12"/>
</linearGradient>
<linearGradient id="paint3_linear_0_1735" x1="69.5904" y1="120.901" x2="66.4876" y2="89.7256" gradientUnits="userSpaceOnUse">
<stop offset="0.0672622" stop-color="white" stop-opacity="0"/>
<stop offset="0.718318" stop-color="white" stop-opacity="0.33"/>
<stop offset="1" stop-color="white" stop-opacity="0.12"/>
</linearGradient>
<linearGradient id="paint4_linear_0_1735" x1="25.5159" y1="44.5598" x2="50.9635" y2="62.8347" gradientUnits="userSpaceOnUse">
<stop offset="0.0672622" stop-color="white" stop-opacity="0"/>
<stop offset="0.718318" stop-color="white" stop-opacity="0.33"/>
<stop offset="1" stop-color="white" stop-opacity="0.12"/>
</linearGradient>
<linearGradient id="paint5_linear_0_1735" x1="113.665" y1="95.4514" x2="85.1147" y2="82.5506" gradientUnits="userSpaceOnUse">
<stop offset="0.0672622" stop-color="white" stop-opacity="0"/>
<stop offset="0.718318" stop-color="white" stop-opacity="0.33"/>
<stop offset="1" stop-color="white" stop-opacity="0.12"/>
</linearGradient>
<linearGradient id="paint6_linear_0_1735" x1="95.0415" y1="25.9329" x2="76.7666" y2="51.3805" gradientUnits="userSpaceOnUse">
<stop offset="0.0672622" stop-color="white" stop-opacity="0"/>
<stop offset="0.718318" stop-color="white" stop-opacity="0.33"/>
<stop offset="1" stop-color="white" stop-opacity="0.12"/>
</linearGradient>
<linearGradient id="paint7_linear_0_1735" x1="44.146" y1="114.084" x2="57.0468" y2="85.5339" gradientUnits="userSpaceOnUse">
<stop offset="0.0672622" stop-color="white" stop-opacity="0"/>
<stop offset="0.718318" stop-color="white" stop-opacity="0.33"/>
<stop offset="1" stop-color="white" stop-opacity="0.12"/>
</linearGradient>
<linearGradient id="paint8_linear_0_1735" x1="43.9953" y1="26.0036" x2="56.9867" y2="54.5129" gradientUnits="userSpaceOnUse">
<stop offset="0.0672622" stop-color="white" stop-opacity="0"/>
<stop offset="0.718318" stop-color="white" stop-opacity="0.33"/>
<stop offset="1" stop-color="white" stop-opacity="0.12"/>
</linearGradient>
<linearGradient id="paint9_linear_0_1735" x1="95.1652" y1="113.991" x2="76.8095" y2="88.6015" gradientUnits="userSpaceOnUse">
<stop offset="0.0672622" stop-color="white" stop-opacity="0"/>
<stop offset="0.718318" stop-color="white" stop-opacity="0.33"/>
<stop offset="1" stop-color="white" stop-opacity="0.12"/>
</linearGradient>
<linearGradient id="paint10_linear_0_1735" x1="113.571" y1="44.4125" x2="85.0616" y2="57.4039" gradientUnits="userSpaceOnUse">
<stop offset="0.0672622" stop-color="white" stop-opacity="0"/>
<stop offset="0.718318" stop-color="white" stop-opacity="0.33"/>
<stop offset="1" stop-color="white" stop-opacity="0.12"/>
</linearGradient>
<linearGradient id="paint11_linear_0_1735" x1="25.5855" y1="95.5834" x2="50.9749" y2="77.2278" gradientUnits="userSpaceOnUse">
<stop offset="0.0672622" stop-color="white" stop-opacity="0"/>
<stop offset="0.718318" stop-color="white" stop-opacity="0.33"/>
<stop offset="1" stop-color="white" stop-opacity="0.12"/>
</linearGradient>
<clipPath id="clip0_0_1735">
<rect width="62.5518" height="62.7354" fill="white" transform="translate(45.1582 38.0615)"/>
</clipPath>
</defs>
</svg>
