<svg width="14" height="13" viewBox="0 0 14 13" fill="none" xmlns="http://www.w3.org/2000/svg">
<path d="M12.5667 3.40435C12.5753 3.53092 12.5753 3.6575 12.5753 3.78524C12.5753 7.67753 9.68596 12.1665 4.40276 12.1665V12.1642C2.84209 12.1665 1.31383 11.7081 0 10.8436C0.226935 10.8716 0.455007 10.8856 0.683648 10.8862C1.97701 10.8874 3.23339 10.4423 4.2509 9.6228C3.02182 9.59888 1.94402 8.77703 1.5675 7.5772C1.99805 7.66236 2.44168 7.64486 2.86427 7.52646C1.52427 7.24881 0.560228 6.0414 0.560228 4.63917C0.560228 4.62634 0.560228 4.61409 0.560228 4.60184C0.959496 4.82991 1.40654 4.95648 1.86382 4.97048C0.601747 4.10546 0.212716 2.38359 0.974853 1.03736C2.43315 2.87764 4.58477 3.99639 6.8945 4.1148C6.66301 3.09171 6.97924 2.01962 7.72545 1.30043C8.88231 0.185177 10.7018 0.242339 11.7892 1.42817C12.4325 1.29809 13.049 1.05603 13.6132 0.713054C13.3988 1.39492 12.9501 1.97413 12.3506 2.34218C12.9199 2.27335 13.4762 2.11703 14 1.87847C13.6144 2.47109 13.1287 2.9873 12.5667 3.40435Z" fill="white"/>
</svg>
