<svg width="25" height="25" viewBox="0 0 25 25" fill="none" xmlns="http://www.w3.org/2000/svg">
<g clip-path="url(#clip0_353_4955)">
<circle cx="12" cy="12" r="12" transform="matrix(-1 0 0 1 24.5811 0.783569)" fill="black"/>
<path d="M10.0093 9.35503L3.83789 5.5836L4.5236 10.7265L4.69503 14.3265L4.86646 14.6693L6.58075 18.2693L10.1807 22.2122L12.0665 22.8979H13.6093L15.3236 22.2122L18.7522 18.6122L20.8093 14.4979L20.9807 10.8979L21.6665 5.41217L15.495 9.35503H10.0093Z" fill="white"/>
<path d="M17.2698 18.2193L19.334 15.3093L15.6309 17.2493L14.8721 18.8256L17.2698 18.2193Z" fill="#030303"/>
<path d="M8.28577 18.2193L6.22168 15.3093L9.92477 17.2493L10.6836 18.8256L8.28577 18.2193Z" fill="#030303"/>
<path d="M12.7781 21.8569L14.1136 20.5233H11.4424L12.7781 21.8569Z" fill="#030303"/>
<path d="M12.7783 15.4911L9.92506 17.2493L12.7783 15.4911ZM12.7783 15.4911L11.4426 20.5234L12.7783 15.4911ZM12.7783 15.4911L15.6314 17.2493L12.7783 15.4911ZM12.7783 15.4911L14.1138 20.5234L12.7783 15.4911ZM12.7783 15.4911L15.5099 9.36735L12.7783 15.4911ZM12.7783 15.4911L10.0464 9.36735L12.7783 15.4911ZM10.0464 9.36735H12.7783H15.5099H10.0464ZM10.0464 9.36735L8.46811 10.762L10.0464 9.36735ZM10.0464 9.36735L3.85449 5.42645L10.0464 9.36735ZM9.92506 17.2493L10.6839 18.8256L9.92506 17.2493ZM9.92506 17.2493L6.22199 15.3093L9.92506 17.2493ZM9.92506 17.2493L8.46811 10.762L9.92506 17.2493ZM11.4426 20.5234L10.6839 18.8256L11.4426 20.5234ZM11.4426 20.5234H9.13605H11.4426ZM11.4426 20.5234L10.2285 22.2815L11.4426 20.5234ZM11.4426 20.5234L12.7783 21.857L11.4426 20.5234ZM11.4426 20.5234H14.1138H11.4426ZM8.46811 10.762H4.58312H8.46811ZM8.46811 10.762L3.85449 5.42645L8.46811 10.762ZM6.22199 15.3093L8.28605 18.2193L6.22199 15.3093ZM6.22199 15.3093L4.70419 14.521L6.22199 15.3093ZM6.22199 15.3093L4.58312 10.762L6.22199 15.3093ZM8.28605 18.2193L10.6839 18.8256L8.28605 18.2193ZM8.28605 18.2193L9.13605 20.5234L8.28605 18.2193ZM8.28605 18.2193L6.58622 18.3406L8.28605 18.2193ZM9.13605 20.5234L10.2285 22.2815L9.13605 20.5234ZM9.13605 20.5234L6.58622 18.3406L9.13605 20.5234ZM10.2285 22.2815L12.0497 22.8879L10.2285 22.2815ZM10.2285 22.2815L6.58622 18.3406L10.2285 22.2815ZM12.7783 21.857L14.1138 20.5234L12.7783 21.857ZM12.7783 21.857L12.0497 22.8879L12.7783 21.857ZM12.7783 21.857L13.5067 22.8879L12.7783 21.857ZM12.0497 22.8879H13.5067H12.0497ZM6.58622 18.3406L4.70419 14.521L6.58622 18.3406ZM4.70419 14.521L4.58312 10.762L4.70419 14.521ZM4.58312 10.762L3.85449 5.42645L4.58312 10.762ZM15.5099 9.36735L17.0884 10.762L15.5099 9.36735ZM15.5099 9.36735L21.7018 5.42645L15.5099 9.36735ZM15.6314 17.2493L14.8726 18.8256L15.6314 17.2493ZM15.6314 17.2493L19.3345 15.3093L15.6314 17.2493ZM15.6314 17.2493L17.0884 10.762L15.6314 17.2493ZM14.1138 20.5234L14.8726 18.8256L14.1138 20.5234ZM14.1138 20.5234H16.4206H14.1138ZM14.1138 20.5234L15.328 22.2815L14.1138 20.5234ZM17.0884 10.762H20.9735H17.0884ZM17.0884 10.762L21.7018 5.42645L17.0884 10.762ZM19.3345 15.3093L17.2703 18.2193L19.3345 15.3093ZM19.3345 15.3093L20.8521 14.521L19.3345 15.3093ZM19.3345 15.3093L20.9735 10.762L19.3345 15.3093ZM17.2703 18.2193L14.8726 18.8256L17.2703 18.2193ZM17.2703 18.2193L16.4206 20.5234L17.2703 18.2193ZM17.2703 18.2193L18.9703 18.3406L17.2703 18.2193ZM16.4206 20.5234L15.328 22.2815L16.4206 20.5234ZM16.4206 20.5234L18.9703 18.3406L16.4206 20.5234ZM15.328 22.2815L13.5067 22.8879L15.328 22.2815ZM15.328 22.2815L18.9703 18.3406L15.328 22.2815ZM18.9703 18.3406L20.8521 14.521L18.9703 18.3406ZM20.8521 14.521L20.9735 10.762L20.8521 14.521ZM20.9735 10.762L21.7018 5.42645L20.9735 10.762Z" fill="#030303"/>
<path fill-rule="evenodd" clip-rule="evenodd" d="M3.90048 5.35413L10.0714 9.28162H15.4849L21.6558 5.35413L21.7018 5.42644L21.7867 5.43803L21.059 10.7692L20.9378 14.5237L20.8521 14.5209L20.929 14.5588L19.0471 18.3785L18.9702 18.3406L19.0332 18.3988L15.3909 22.3397L15.328 22.2815L15.355 22.3628L13.5337 22.9692L13.5066 22.8879V22.9736H12.0496L12.0496 22.8879L12.0226 22.9692L10.2014 22.3628L10.2285 22.2815L10.1655 22.3397L6.52324 18.3988L6.58619 18.3406L6.5093 18.3785L4.62727 14.5588L4.70416 14.5209L4.61849 14.5237L4.49756 10.7692L3.76953 5.43803L3.85446 5.42644L3.90048 5.35413ZM4.30183 5.81277L9.90431 9.3785L8.47624 10.6404L4.30183 5.81277ZM8.28064 10.6763H4.65789L3.97844 5.70087L8.28064 10.6763ZM8.56281 10.7927L9.98233 17.1133L12.6694 15.4575L10.0157 9.50886L8.56281 10.7927ZM12.6403 15.6768L10.0358 17.2817L10.7611 18.7885L10.6839 18.8256L10.7621 18.7907L11.4219 20.267L12.6403 15.6768ZM10.5271 18.6976L9.86011 17.312L6.4984 15.5509L8.33766 18.1439L10.5271 18.6976ZM8.12798 18.1446L6.16404 15.3758L4.89653 14.7174L6.63759 18.251L8.12798 18.1446ZM6.29128 15.2488L4.70509 10.8477H8.39947L9.80083 17.0874L6.29128 15.2488ZM4.6862 11.3009L6.06703 15.1322L4.78821 14.468L4.6862 11.3009ZM8.42275 18.3423L10.6226 18.8985L11.3103 20.4376H9.19575L8.42275 18.3423ZM12.7783 15.2807L10.1785 9.45305H15.3778L12.7783 15.2807ZM15.6519 9.3785L21.2545 5.81276L17.0802 10.6404L15.6519 9.3785ZM16.9936 10.7927L15.5406 9.50886L12.8871 15.4575L15.5741 17.1133L16.9936 10.7927ZM15.6963 17.312L15.0293 18.6976L17.2186 18.1439L19.058 15.5509L15.6963 17.312ZM19.3924 15.3758L20.6597 14.7175L18.9188 18.251L17.4283 18.1446L19.3924 15.3758ZM17.1335 18.3423L14.9338 18.8985L14.2459 20.4376H16.3608L17.1335 18.3423ZM14.8725 18.8256L14.7953 18.7885L15.5206 17.2817L12.9162 15.6768L14.1344 20.267L14.7943 18.7907L14.8725 18.8256ZM15.7556 17.0874L19.2651 15.2488L20.8515 10.8477H17.1569L15.7556 17.0874ZM17.2758 10.6763H20.8987L21.5778 5.70086L17.2758 10.6763ZM20.8703 11.301L19.4894 15.1322L20.7681 14.468L20.8703 11.301ZM9.68107 21.563L7.64439 19.3593L9.0702 20.5798L9.68107 21.563ZM9.29018 20.6091L10.2322 22.1252L11.2792 20.6091H9.29018ZM12.2152 22.8022H13.3411L12.7783 22.0055L12.2152 22.8022ZM12.89 21.8666L14.1016 20.6566L15.1925 22.2363L13.5399 22.7865L12.89 21.8666ZM15.3242 22.1252L14.2771 20.6091H16.2663L15.3242 22.1252ZM16.4863 20.5798L15.8755 21.5628L17.9118 19.3595L16.4863 20.5798ZM12.7783 15.8252L11.554 20.4376H14.0023L12.7783 15.8252ZM8.22789 18.3094L6.8005 18.4113L8.94165 20.2441L8.22789 18.3094ZM18.7559 18.4113L17.3284 18.3094L16.6148 20.2442L18.7559 18.4113ZM11.4547 20.6566L10.3639 22.2363L12.0164 22.7865L12.6666 21.8666L11.4547 20.6566ZM13.9066 20.6091H11.6497L12.7783 21.7359L13.9066 20.6091Z" fill="black"/>
</g>
<defs>
<clipPath id="clip0_353_4955">
<rect width="24" height="24" fill="white" transform="translate(0.581055 0.783569)"/>
</clipPath>
</defs>
</svg>
