<svg width="25" height="25" viewBox="0 0 25 25" fill="none" xmlns="http://www.w3.org/2000/svg">
<path d="M12.7657 24.4143C6.24026 24.4143 0.950306 19.1244 0.950306 12.5989C0.950306 6.07347 6.24026 0.783569 12.7657 0.783569C19.2911 0.783569 24.5811 6.07347 24.5811 12.5989C24.5811 19.1244 19.2911 24.4143 12.7657 24.4143Z" fill="white"/>
<path d="M3.61403 5.22882C4.43348 5.3908 5.21479 5.6195 5.85799 5.76241C7.3254 6.09116 8.6975 7.21554 8.99763 9.27369C9.26442 11.1127 8.64509 11.9036 8.91664 14.0427C9.39306 17.7779 12.9758 19.0642 14.6481 19.8456C15.6152 20.2934 17.964 21.3225 19.7744 22.1086C17.8115 23.5569 15.3913 24.4145 12.7662 24.4145C6.23911 24.4145 0.950779 19.1262 0.950779 12.5991C0.950779 9.81679 1.91318 7.25839 3.52349 5.24313C3.55207 5.23833 3.58065 5.23358 3.61403 5.22882Z" fill="url(#paint0_linear_353_4947)"/>
<path d="M14.0949 10.8647C13.1849 8.8971 13.5137 8.89234 12.8228 7.04382C11.951 4.69979 9.24012 5.36678 8.49216 5.46684C7.25821 5.63358 6.9342 5.19529 4.33295 4.77602C4.20431 4.75696 4.08043 4.73791 3.95655 4.72361C6.11956 2.30813 9.26395 0.783569 12.7657 0.783569C17.468 0.783569 21.5272 3.52778 23.4281 7.50593C19.5309 8.47308 15.3241 10.5741 14.0949 10.8647ZM16.6772 2.84173C16.3341 2.89413 14.6666 4.96659 14.3522 10.2883C14.3522 10.2883 16.4961 9.77371 16.9582 8.6684C17.3394 7.75845 16.8439 6.56259 16.6772 2.84173ZM3.54209 5.21907C3.53729 5.22863 3.52778 5.23339 3.52302 5.2429C3.5516 5.23814 3.58494 5.23814 3.61352 5.23339C3.5897 5.22388 3.56587 5.22387 3.54209 5.21907ZM24.5811 12.5989C24.5811 11.6556 24.4715 10.7409 24.2618 9.86425C23.8331 10.2215 23.3757 10.617 22.8897 11.0696C19.812 13.9234 14.8048 16.1769 12.9801 14.0806C12.9753 14.0854 12.9706 14.0854 12.9706 14.0901C13.3041 14.5285 14.5761 15.9149 17.0059 15.4861L20.8459 21.2175C23.1422 19.064 24.5811 16.0006 24.5811 12.5989Z" fill="url(#paint1_linear_353_4947)"/>
<defs>
<linearGradient id="paint0_linear_353_4947" x1="5.67049" y1="8.32342" x2="8.45798" y2="23.6799" gradientUnits="userSpaceOnUse">
<stop stop-color="#FF496A"/>
<stop offset="1" stop-color="#E42648"/>
</linearGradient>
<linearGradient id="paint1_linear_353_4947" x1="18.8781" y1="18.1883" x2="12.715" y2="0.783566" gradientUnits="userSpaceOnUse">
<stop offset="0.00181229" stop-color="#1158F1"/>
<stop offset="1" stop-color="#119BED"/>
</linearGradient>
</defs>
</svg>
