<svg width="25" height="25" viewBox="0 0 25 25" fill="none" xmlns="http://www.w3.org/2000/svg">
<circle cx="12.5811" cy="12.7836" r="12" fill="url(#paint0_linear_353_4951)"/>
<path fill-rule="evenodd" clip-rule="evenodd" d="M8.13185 8.07605C7.92602 6.96322 8.77176 5.93512 9.89304 5.93512C10.8825 5.93512 11.6847 6.74498 11.6847 7.74399V9.97405C11.9322 9.95642 12.1837 9.94737 12.4384 9.94737C12.6831 9.94737 12.9248 9.95572 13.1629 9.97201V7.74399C13.1629 6.74498 13.965 5.93512 14.9546 5.93512C16.0758 5.93512 16.9216 6.96322 16.7157 8.07605L16.2309 10.6974C17.8949 11.4308 19.1532 12.7047 19.1532 14.3055V15.274C19.1532 16.5904 18.2906 17.6925 17.0847 18.4366C15.8694 19.1864 14.2253 19.6321 12.4384 19.6321C10.6515 19.6321 9.0074 19.1864 7.7921 18.4366C6.58622 17.6925 5.72363 16.5904 5.72363 15.274V14.3055C5.72363 12.7132 6.96894 11.4442 8.61891 10.7093L8.13185 8.07605ZM15.6095 11.0418L16.1769 7.97446C16.3198 7.20209 15.7328 6.48854 14.9546 6.48854C14.2678 6.48854 13.7111 7.05062 13.7111 7.74399V10.5819C13.5311 10.5586 13.3483 10.5401 13.1629 10.5268C12.9253 10.5096 12.6835 10.5008 12.4384 10.5008C12.1832 10.5008 11.9317 10.5103 11.6847 10.5289C11.4993 10.5429 11.3165 10.5619 11.1365 10.5857V7.74399C11.1365 7.05062 10.5798 6.48854 9.89304 6.48854C9.11481 6.48854 8.52781 7.20209 8.67068 7.97446L9.23991 11.0519C7.4604 11.7193 6.27178 12.9268 6.27178 14.3055V15.274C6.27178 17.3753 9.03266 19.0787 12.4384 19.0787C15.8441 19.0787 18.605 17.3753 18.605 15.274V14.3055C18.605 12.9197 17.4042 11.707 15.6095 11.0418Z" fill="#633001"/>
<path d="M18.6047 15.2741C18.6047 17.3753 15.8438 19.0788 12.4381 19.0788C9.03237 19.0788 6.27148 17.3753 6.27148 15.2741V14.3055H18.6047V15.2741Z" fill="#FEDC90"/>
<path fill-rule="evenodd" clip-rule="evenodd" d="M8.67039 7.97433C8.52753 7.20196 9.11452 6.4884 9.89276 6.4884C10.5795 6.4884 11.1363 7.05049 11.1363 7.74386V10.5856C11.5559 10.5299 11.9915 10.5007 12.4381 10.5007C12.8744 10.5007 13.3001 10.5286 13.7108 10.5818V7.74386C13.7108 7.05049 14.2675 6.4884 14.9543 6.4884C15.7325 6.4884 16.3195 7.20196 16.1766 7.97433L15.6093 11.0416C17.4039 11.7069 18.6047 12.9196 18.6047 14.3054C18.6047 16.4067 15.8438 18.1101 12.4381 18.1101C9.03237 18.1101 6.27148 16.4067 6.27148 14.3054C6.27148 12.9266 7.46011 11.7192 9.23962 11.0518L8.67039 7.97433Z" fill="#D1884F"/>
<path d="M10.7258 14.0288C10.7258 14.602 10.4191 15.0665 10.0406 15.0665C9.66223 15.0665 9.35547 14.602 9.35547 14.0288C9.35547 13.4558 9.66223 12.9912 10.0406 12.9912C10.4191 12.9912 10.7258 13.4558 10.7258 14.0288Z" fill="#633001"/>
<path d="M15.4533 14.0288C15.4533 14.602 15.1466 15.0665 14.7682 15.0665C14.3898 15.0665 14.083 14.602 14.083 14.0288C14.083 13.4558 14.3898 12.9912 14.7682 12.9912C15.1466 12.9912 15.4533 13.4558 15.4533 14.0288Z" fill="#633001"/>
<defs>
<linearGradient id="paint0_linear_353_4951" x1="12.5811" y1="0.783569" x2="12.5811" y2="24.7836" gradientUnits="userSpaceOnUse">
<stop stop-color="#54DADE"/>
<stop offset="1" stop-color="#24C7D6"/>
</linearGradient>
</defs>
</svg>
