<svg width="78" height="49" viewBox="0 0 78 49" fill="none" xmlns="http://www.w3.org/2000/svg">
<g clip-path="url(#clip0_47_1502)">
<path d="M54.5402 47.3003C67.1066 47.3003 77.2937 37.1133 77.2937 24.5469C77.2937 11.9804 67.1066 1.79333 54.5402 1.79333C41.9737 1.79333 31.7866 11.9804 31.7866 24.5469C31.7866 37.1133 41.9737 47.3003 54.5402 47.3003Z" fill="white"/>
<path d="M72.1649 10.3535C70.5869 10.6655 69.0822 11.1059 67.8436 11.3811C65.0178 12.0142 62.3754 14.1794 61.7974 18.1429C61.2836 21.6843 62.4762 23.2075 61.9533 27.3268C61.0359 34.52 54.1365 36.9971 50.9161 38.5019C49.0536 39.3642 44.5304 41.346 41.0439 42.8599C44.824 45.6489 49.4848 47.3005 54.5402 47.3005C67.1096 47.3005 77.2935 37.1164 77.2935 24.5469C77.2935 19.1889 75.4403 14.262 72.3391 10.3811C72.2842 10.3719 72.2292 10.3627 72.1649 10.3535Z" fill="url(#paint0_linear_47_1502)"/>
<path d="M51.9804 21.2072C53.7328 17.418 53.0997 17.4089 54.43 13.849C56.109 9.33502 61.3295 10.6195 62.7699 10.8122C65.1462 11.1333 65.7702 10.2892 70.7796 9.48182C71.0272 9.44513 71.2657 9.40842 71.5045 9.38089C67.3391 4.72926 61.2836 1.79333 54.5402 1.79333C45.4846 1.79333 37.6677 7.07802 34.0069 14.739C41.5119 16.6015 49.6133 20.6476 51.9804 21.2072ZM47.0076 5.75685C47.6682 5.85776 50.8793 9.84881 51.4849 20.0971C51.4849 20.0971 47.3563 19.1062 46.4663 16.9776C45.7323 15.2253 46.6865 12.9224 47.0076 5.75685ZM72.3026 10.3351C72.3118 10.3534 72.33 10.3626 72.3393 10.3809C72.2842 10.3718 72.2201 10.3718 72.1649 10.3626C72.2108 10.3443 72.2567 10.3443 72.3026 10.3351ZM31.7866 24.5469C31.7866 22.7302 31.9976 20.9687 32.4013 19.2805C33.2271 19.9686 34.1078 20.7301 35.0437 21.6018C40.9706 27.0974 50.6133 31.437 54.1272 27.4002C54.1365 27.4093 54.1456 27.4093 54.1456 27.4186C53.5034 28.2625 51.0538 30.9325 46.3746 30.1067L38.9797 41.1441C34.5574 36.9971 31.7866 31.0976 31.7866 24.5469Z" fill="url(#paint1_linear_47_1502)"/>
</g>
<path d="M24.7536 48.072C37.7459 48.072 48.2786 37.5392 48.2786 24.5469C48.2786 11.5546 37.7459 1.02187 24.7536 1.02187C11.7612 1.02187 1.2285 11.5546 1.2285 24.5469C1.2285 37.5392 11.7612 48.072 24.7536 48.072Z" fill="#24A980" stroke="#6563EE" stroke-width="1.543"/>
<path d="M27.578 26.8149L24.7979 26.8883C23.3343 26.8883 22.3468 26.8515 21.9806 26.8149C16.457 26.5953 12.2865 25.6076 12.2865 24.4737C12.2865 23.3031 16.4204 22.3521 21.9806 22.0958V25.8634C22.3468 25.9002 23.3709 25.9368 24.8339 25.9368C26.5533 25.9368 27.4314 25.8634 27.578 25.8634V22.0958C33.1382 22.3521 37.272 23.3031 37.272 24.4737C37.272 25.6076 33.1382 26.5953 27.578 26.8149ZM27.578 21.6936V18.3281H35.333V13.1701H14.2622V18.3281H22.0172V21.6936C15.7252 21.986 11.0066 23.2299 11.0066 24.7301C11.0066 26.2301 15.7252 27.4734 22.0172 27.7664V38.5946H27.6146V27.766C33.9062 27.4734 38.6252 26.2295 38.6252 24.7295C38.5886 23.2299 33.8699 21.986 27.578 21.693V21.6936Z" fill="#FFFDFA"/>
<defs>
<linearGradient id="paint0_linear_47_1502" x1="68.2046" y1="16.313" x2="62.8367" y2="45.886" gradientUnits="userSpaceOnUse">
<stop stop-color="#FF496A"/>
<stop offset="1" stop-color="#E42648"/>
</linearGradient>
<linearGradient id="paint1_linear_47_1502" x1="42.7691" y1="35.3106" x2="54.6378" y2="1.79333" gradientUnits="userSpaceOnUse">
<stop offset="0.00181229" stop-color="#1158F1"/>
<stop offset="1" stop-color="#119BED"/>
</linearGradient>
<clipPath id="clip0_47_1502">
<rect width="45.5071" height="45.5071" fill="white" transform="translate(31.7866 1.79333)"/>
</clipPath>
</defs>
</svg>
