<svg width="78" height="50" viewBox="0 0 78 50" fill="none" xmlns="http://www.w3.org/2000/svg">
<g clip-path="url(#clip0_47_1834)">
<path d="M54.5402 47.5467C67.1066 47.5467 77.2937 37.3597 77.2937 24.7933C77.2937 12.2269 67.1066 2.03976 54.5402 2.03976C41.9737 2.03976 31.7866 12.2269 31.7866 24.7933C31.7866 37.3597 41.9737 47.5467 54.5402 47.5467Z" fill="white"/>
<path d="M72.1649 10.6C70.5869 10.9119 69.0822 11.3523 67.8436 11.6275C65.0178 12.2606 62.3754 14.4259 61.7974 18.3894C61.2836 21.9308 62.4762 23.4539 61.9533 27.5733C61.0359 34.7664 54.1365 37.2435 50.9161 38.7483C49.0536 39.6106 44.5304 41.5925 41.0439 43.1063C44.824 45.8954 49.4848 47.5469 54.5402 47.5469C67.1096 47.5469 77.2935 37.3628 77.2935 24.7933C77.2935 19.4353 75.4403 14.5084 72.3391 10.6275C72.2842 10.6183 72.2292 10.6092 72.1649 10.6Z" fill="url(#paint0_linear_47_1834)"/>
<path d="M51.9804 21.4537C53.7328 17.6645 53.0997 17.6553 54.43 14.0955C56.109 9.58145 61.3295 10.8659 62.7699 11.0586C65.1462 11.3797 65.7702 10.5356 70.7796 9.72825C71.0272 9.69156 71.2657 9.65485 71.5045 9.62732C67.3391 4.97569 61.2836 2.03976 54.5402 2.03976C45.4846 2.03976 37.6677 7.32445 34.0069 14.9854C41.5119 16.8479 49.6133 20.894 51.9804 21.4537ZM47.0076 6.00328C47.6682 6.10419 50.8793 10.0952 51.4849 20.3435C51.4849 20.3435 47.3563 19.3526 46.4663 17.2241C45.7323 15.4717 46.6865 13.1688 47.0076 6.00328ZM72.3026 10.5815C72.3118 10.5999 72.33 10.609 72.3393 10.6274C72.2842 10.6182 72.2201 10.6182 72.1649 10.609C72.2108 10.5907 72.2567 10.5907 72.3026 10.5815ZM31.7866 24.7933C31.7866 22.9766 31.9976 21.2151 32.4013 19.5269C33.2271 20.215 34.1078 20.9766 35.0437 21.8483C40.9706 27.3438 50.6133 31.6835 54.1272 27.6466C54.1365 27.6557 54.1456 27.6557 54.1456 27.665C53.5034 28.509 51.0538 31.1789 46.3746 30.3532L38.9797 41.3905C34.5574 37.2435 31.7866 31.3441 31.7866 24.7933Z" fill="url(#paint1_linear_47_1834)"/>
</g>
<path d="M24.7536 48.3184C37.7459 48.3184 48.2786 37.7857 48.2786 24.7934C48.2786 11.801 37.7459 1.26829 24.7536 1.26829C11.7612 1.26829 1.2285 11.801 1.2285 24.7934C1.2285 37.7857 11.7612 48.3184 24.7536 48.3184Z" fill="#24A980" stroke="#DF4247" stroke-width="1.543"/>
<path d="M27.578 27.0613L24.7979 27.1347C23.3343 27.1347 22.3468 27.0979 21.9806 27.0613C16.457 26.8417 12.2865 25.854 12.2865 24.7202C12.2865 23.5495 16.4204 22.5986 21.9806 22.3422V26.1098C22.3468 26.1466 23.3709 26.1832 24.8339 26.1832C26.5533 26.1832 27.4314 26.1098 27.578 26.1098V22.3422C33.1382 22.5986 37.272 23.5495 37.272 24.7202C37.272 25.854 33.1382 26.8417 27.578 27.0613ZM27.578 21.94V18.5746H35.333V13.4166H14.2622V18.5746H22.0172V21.94C15.7252 22.2324 11.0066 23.4763 11.0066 24.9765C11.0066 26.4765 15.7252 27.7198 22.0172 28.0128V38.841H27.6146V28.0124C33.9062 27.7198 38.6252 26.476 38.6252 24.9759C38.5886 23.4763 33.8699 22.2324 27.578 21.9395V21.94Z" fill="#FFFDFA"/>
<defs>
<linearGradient id="paint0_linear_47_1834" x1="68.2046" y1="16.5594" x2="62.8367" y2="46.1324" gradientUnits="userSpaceOnUse">
<stop stop-color="#FF496A"/>
<stop offset="1" stop-color="#E42648"/>
</linearGradient>
<linearGradient id="paint1_linear_47_1834" x1="42.7691" y1="35.5571" x2="54.6378" y2="2.03975" gradientUnits="userSpaceOnUse">
<stop offset="0.00181229" stop-color="#1158F1"/>
<stop offset="1" stop-color="#119BED"/>
</linearGradient>
<clipPath id="clip0_47_1834">
<rect width="45.5071" height="45.5071" fill="white" transform="translate(31.7866 2.03976)"/>
</clipPath>
</defs>
</svg>
