<svg width="78" height="50" viewBox="0 0 78 50" fill="none" xmlns="http://www.w3.org/2000/svg">
<g clip-path="url(#clip0_47_1872)">
<path d="M55.0402 47.5467C67.6066 47.5467 77.7937 37.3598 77.7937 24.7934C77.7937 12.2269 67.6066 2.03983 55.0402 2.03983C42.4737 2.03983 32.2866 12.2269 32.2866 24.7934C32.2866 37.3598 42.4737 47.5467 55.0402 47.5467Z" fill="white"/>
<path d="M72.6649 10.6C71.0869 10.912 69.5822 11.3524 68.3436 11.6276C65.5178 12.2607 62.8754 14.4259 62.2974 18.3894C61.7836 21.9308 62.9762 23.454 62.4533 27.5733C61.5359 34.7665 54.6365 37.2436 51.4161 38.7483C49.5536 39.6107 45.0304 41.5925 41.5439 43.1064C45.324 45.8954 49.9848 47.547 55.0402 47.547C67.6096 47.547 77.7935 37.3628 77.7935 24.7934C77.7935 19.4354 75.9403 14.5085 72.8391 10.6275C72.7842 10.6184 72.7292 10.6092 72.6649 10.6Z" fill="url(#paint0_linear_47_1872)"/>
<path d="M52.4804 21.4537C54.2328 17.6645 53.5997 17.6553 54.93 14.0955C56.609 9.58151 61.8295 10.866 63.2699 11.0587C65.6462 11.3798 66.2702 10.5357 71.2796 9.72831C71.5272 9.69162 71.7657 9.65491 72.0045 9.62738C67.8391 4.97575 61.7836 2.03983 55.0402 2.03983C45.9846 2.03983 38.1677 7.32451 34.5069 14.9855C42.0119 16.848 50.1133 20.894 52.4804 21.4537ZM47.5076 6.00334C48.1682 6.10426 51.3793 10.0953 51.9849 20.3436C51.9849 20.3436 47.8563 19.3527 46.9663 17.2241C46.2323 15.4717 47.1865 13.1689 47.5076 6.00334ZM72.8026 10.5816C72.8118 10.5999 72.83 10.6091 72.8393 10.6274C72.7842 10.6183 72.7201 10.6183 72.6649 10.6091C72.7108 10.5907 72.7567 10.5907 72.8026 10.5816ZM32.2866 24.7934C32.2866 22.9767 32.4976 21.2152 32.9013 19.527C33.7271 20.2151 34.6078 20.9766 35.5437 21.8483C41.4706 27.3439 51.1133 31.6835 54.6272 27.6467C54.6365 27.6558 54.6456 27.6558 54.6456 27.6651C54.0034 28.509 51.5538 31.179 46.8746 30.3532L39.4797 41.3906C35.0574 37.2436 32.2866 31.3441 32.2866 24.7934Z" fill="url(#paint1_linear_47_1872)"/>
</g>
<path d="M25.2536 48.3185C38.2459 48.3185 48.7786 37.7857 48.7786 24.7934C48.7786 11.8011 38.2459 1.26836 25.2536 1.26836C12.2612 1.26836 1.7285 11.8011 1.7285 24.7934C1.7285 37.7857 12.2612 48.3185 25.2536 48.3185Z" fill="#24A980" stroke="#DF4247" stroke-width="1.543"/>
<path d="M28.078 27.0614L25.2979 27.1347C23.8343 27.1347 22.8468 27.098 22.4806 27.0614C16.957 26.8418 12.7865 25.8541 12.7865 24.7202C12.7865 23.5495 16.9204 22.5986 22.4806 22.3423V26.1099C22.8468 26.1467 23.8709 26.1833 25.3339 26.1833C27.0533 26.1833 27.9314 26.1099 28.078 26.1099V22.3423C33.6382 22.5986 37.772 23.5495 37.772 24.7202C37.772 25.8541 33.6382 26.8418 28.078 27.0614ZM28.078 21.9401V18.5746H35.833V13.4166H14.7622V18.5746H22.5172V21.9401C16.2252 22.2325 11.5066 23.4764 11.5066 24.9766C11.5066 26.4766 16.2252 27.7199 22.5172 28.0128V38.8411H28.1146V28.0125C34.4062 27.7199 39.1252 26.476 39.1252 24.976C39.0886 23.4764 34.3699 22.2325 28.078 21.9395V21.9401Z" fill="#FFFDFA"/>
<defs>
<linearGradient id="paint0_linear_47_1872" x1="68.7046" y1="16.5595" x2="63.3367" y2="46.1324" gradientUnits="userSpaceOnUse">
<stop stop-color="#FF496A"/>
<stop offset="1" stop-color="#E42648"/>
</linearGradient>
<linearGradient id="paint1_linear_47_1872" x1="43.2691" y1="35.5571" x2="55.1378" y2="2.03982" gradientUnits="userSpaceOnUse">
<stop offset="0.00181229" stop-color="#1158F1"/>
<stop offset="1" stop-color="#119BED"/>
</linearGradient>
<clipPath id="clip0_47_1872">
<rect width="45.5071" height="45.5071" fill="white" transform="translate(32.2866 2.03983)"/>
</clipPath>
</defs>
</svg>
