<svg width="78" height="50" viewBox="0 0 78 50" fill="none" xmlns="http://www.w3.org/2000/svg">
<circle cx="54.755" cy="24.7623" r="22.755" fill="#6866F6"/>
<g clip-path="url(#clip0_203_5716)">
<path d="M46.9095 39.084L46.8877 27.1479L54.7039 31.2713C55.838 31.8708 55.896 33.4696 54.8082 34.149L46.9093 39.084H46.9095Z" fill="white"/>
<path d="M46.8664 15.8466L46.8555 9.82764L72.2559 23.2483L69.0125 25.2747C67.7921 26.0372 66.2558 26.0908 64.9851 25.4152L46.8664 15.8466Z" fill="white" fill-opacity="0.6"/>
<path d="M60.4624 31.5146L43 22.4032V16.3862L57.8981 24.1328C60.9589 25.7964 60.641 27.177 60.4624 31.5144V31.5146Z" fill="white"/>
</g>
<path d="M24.7536 48.2859C37.7459 48.2859 48.2786 37.7532 48.2786 24.7609C48.2786 11.7686 37.7459 1.23582 24.7536 1.23582C11.7612 1.23582 1.2285 11.7686 1.2285 24.7609C1.2285 37.7532 11.7612 48.2859 24.7536 48.2859Z" fill="#24A980" stroke="#DF4247" stroke-width="1.543"/>
<path d="M27.5783 27.029L24.7981 27.1024C23.3345 27.1024 22.347 27.0656 21.9809 27.029C16.4572 26.8094 12.2868 25.8217 12.2868 24.6879C12.2868 23.5172 16.4206 22.5663 21.9809 22.3099V26.0775C22.347 26.1143 23.3711 26.1509 24.8342 26.1509C26.5536 26.1509 27.4317 26.0775 27.5783 26.0775V22.3099C33.1385 22.5663 37.2722 23.5172 37.2722 24.6879C37.2722 25.8217 33.1385 26.8094 27.5783 27.029ZM27.5783 21.9078V18.5423H35.3332V13.3843H14.2624V18.5423H22.0175V21.9078C15.7254 22.2001 11.0068 23.444 11.0068 24.9442C11.0068 26.4442 15.7254 27.6875 22.0175 27.9805V38.8087H27.6148V27.9801C33.9064 27.6875 38.6255 26.4437 38.6255 24.9437C38.5889 23.444 33.8702 22.2001 27.5783 21.9072V21.9078Z" fill="#FFFDFA"/>
<defs>
<clipPath id="clip0_203_5716">
<rect width="29.2564" height="29.2564" fill="white" transform="translate(43 9.82764)"/>
</clipPath>
</defs>
</svg>
