<svg width="31" height="31" viewBox="0 0 31 31" fill="none" xmlns="http://www.w3.org/2000/svg">
<path d="M15.6888 30.4126C7.53201 30.4126 0.919571 23.8003 0.919571 15.6435C0.919571 7.48665 7.53201 0.874268 15.6888 0.874268C23.8456 0.874268 30.458 7.48665 30.458 15.6435C30.458 23.8003 23.8456 30.4126 15.6888 30.4126Z" fill="white"/>
<path d="M4.24874 6.43085C5.27305 6.63332 6.24969 6.91919 7.05369 7.09783C8.88795 7.50877 10.6031 8.91425 10.9782 11.4869C11.3117 13.7857 10.5376 14.7743 10.877 17.4482C11.4725 22.1172 15.9509 23.7251 18.0413 24.7018C19.2502 25.2616 22.1862 26.5479 24.4492 27.5306C21.9956 29.341 18.9703 30.413 15.6889 30.413C7.53009 30.413 0.919674 23.8025 0.919674 15.6437C0.919674 12.1658 2.12267 8.96781 4.13556 6.44874C4.17129 6.44274 4.20702 6.43679 4.24874 6.43085Z" fill="url(#paint0_linear_377_4854)"/>
<path d="M17.3504 13.4757C16.2129 11.0162 16.6238 11.0102 15.7602 8.69958C14.6704 5.76954 11.2818 6.60329 10.3469 6.72836C8.80445 6.93678 8.39944 6.38892 5.14788 5.86483C4.98708 5.84101 4.83223 5.81719 4.67737 5.79932C7.38114 2.77997 11.3116 0.874268 15.6888 0.874268C21.5667 0.874268 26.6406 4.30453 29.0168 9.27721C24.1454 10.4862 18.8868 13.1125 17.3504 13.4757ZM20.5781 3.44697C20.1494 3.51247 18.065 6.10304 17.6719 12.7551C17.6719 12.7551 20.3518 12.1119 20.9295 10.7303C21.4059 9.59287 20.7866 8.09805 20.5781 3.44697ZM4.1593 6.41865C4.1533 6.43059 4.14141 6.43654 4.13547 6.44843C4.17119 6.44249 4.21287 6.44249 4.24859 6.43654C4.21881 6.42465 4.18903 6.42465 4.1593 6.41865ZM30.458 15.6435C30.458 14.4643 30.321 13.3209 30.059 12.2251C29.523 12.6717 28.9513 13.166 28.3439 13.7318C24.4967 17.299 18.2377 20.1159 15.9568 17.4956C15.9508 17.5015 15.9449 17.5015 15.9449 17.5075C16.3618 18.0554 17.9518 19.7884 20.989 19.2524L25.789 26.4167C28.6595 23.7248 30.458 19.8956 30.458 15.6435Z" fill="url(#paint1_linear_377_4854)"/>
<defs>
<linearGradient id="paint0_linear_377_4854" x1="6.81931" y1="10.2991" x2="10.3037" y2="29.4947" gradientUnits="userSpaceOnUse">
<stop stop-color="#FF496A"/>
<stop offset="1" stop-color="#E42648"/>
</linearGradient>
<linearGradient id="paint1_linear_377_4854" x1="23.3294" y1="22.6302" x2="15.6255" y2="0.874263" gradientUnits="userSpaceOnUse">
<stop offset="0.00181229" stop-color="#1158F1"/>
<stop offset="1" stop-color="#119BED"/>
</linearGradient>
</defs>
</svg>
