<svg width="181" height="184" viewBox="0 0 181 184" fill="none" xmlns="http://www.w3.org/2000/svg">
<g filter="url(#filter0_bd_20_588)">
<path d="M141.672 122.89C141.106 123.217 140.409 123.469 139.633 123.611L114.622 128.205C107.523 129.507 101.145 130.05 95.1215 129.871C81.9426 129.483 69.5731 126.359 60.2956 121.067L29.7488 103.656C23.4079 100.189 24.63 91.6718 26.8283 89.0355L47.2605 72.3282C48.4163 70.9203 50.4119 69.7579 52.8604 69.0591L93.429 57.4003C97.9647 56.0921 103.386 56.5669 106.903 58.576L137.473 76.0002C146.741 81.2818 152.984 81.8849 153.829 89.4813C155.019 96.917 152.672 103.142 150.508 107.24L142.891 121.704C142.658 122.155 142.235 122.56 141.672 122.89Z" fill="#05D536" shape-rendering="crispEdges"/>
<path d="M141.801 122.964L141.802 122.963L52.7792 68.965C50.2997 69.6727 48.2773 70.8491 47.1027 72.2749L26.6795 88.9749C26.6737 88.9797 26.6685 88.9847 26.6642 88.9899C25.547 90.3297 24.6914 93.1374 24.9044 96.0387C25.1172 98.938 26.3996 101.969 29.6221 103.731C29.6226 103.732 29.6231 103.732 29.6235 103.732L60.1676 121.142C60.1676 121.142 60.1677 121.142 60.1677 121.142C69.4774 126.452 81.8893 129.587 95.1123 129.976C101.162 130.156 107.562 129.61 114.677 128.305L114.677 128.305L139.688 123.712C140.493 123.564 141.215 123.302 141.801 122.964ZM93.3476 57.3062L52.7797 68.9649L107.031 58.5012C103.457 56.4594 97.9508 55.9786 93.3476 57.3062ZM137.6 75.9254L107.031 58.5013L142.891 121.704L143.065 121.735L143.066 121.735C143.066 121.735 143.066 121.735 143.066 121.734L150.682 107.27C152.85 103.165 155.203 96.9261 154.011 89.4731C153.585 85.6548 151.8 83.5814 148.943 81.8013C147.529 80.9199 145.854 80.1116 143.967 79.2007L143.936 79.1859C142.034 78.2679 139.912 77.2424 137.6 75.9254Z" stroke="url(#paint0_linear_20_588)" stroke-width="0.297426" stroke-linecap="round" stroke-linejoin="round" shape-rendering="crispEdges"/>
</g>
<g filter="url(#filter1_b_20_588)">
<mask id="path-3-outside-1_20_588" maskUnits="userSpaceOnUse" x="9.15048" y="39.2701" width="173.209" height="99.9935" fill="black">
<rect fill="white" x="9.15048" y="39.2701" width="173.209" height="99.9935"/>
<path d="M141.672 115.392C141.105 115.719 140.408 115.971 139.632 116.114L114.622 120.707C107.522 122.009 101.145 122.552 95.1211 122.373C81.9421 121.985 69.5726 118.861 60.2952 113.569L29.7483 96.1581C26.2221 94.149 25.3404 91.0275 27.5387 88.3912L47.2601 64.8304C48.4158 63.4225 50.4115 62.2601 52.8599 61.5613L93.4285 49.9025C97.9642 48.5943 103.386 49.0691 106.903 51.0782L137.472 68.5024C146.741 73.784 152.307 80.8764 153.153 88.4728C153.539 91.9577 152.671 95.6439 150.507 99.7417L142.891 114.207C142.657 114.657 142.234 115.062 141.672 115.392Z"/>
</mask>
<path d="M141.672 115.392C141.105 115.719 140.408 115.971 139.632 116.114L114.622 120.707C107.522 122.009 101.145 122.552 95.1211 122.373C81.9421 121.985 69.5726 118.861 60.2952 113.569L29.7483 96.1581C26.2221 94.149 25.3404 91.0275 27.5387 88.3912L47.2601 64.8304C48.4158 63.4225 50.4115 62.2601 52.8599 61.5613L93.4285 49.9025C97.9642 48.5943 103.386 49.0691 106.903 51.0782L137.472 68.5024C146.741 73.784 152.307 80.8764 153.153 88.4728C153.539 91.9577 152.671 95.6439 150.507 99.7417L142.891 114.207C142.657 114.657 142.234 115.062 141.672 115.392Z" fill="url(#paint1_linear_20_588)"/>
<path d="M142.36 115.789C142.74 115.57 142.74 115.214 142.36 114.995C141.98 114.775 141.364 114.775 140.984 114.995L142.36 115.789ZM139.632 116.114L139.337 115.578L139.337 115.578L139.632 116.114ZM114.622 120.707L114.916 121.242L114.917 121.242L114.622 120.707ZM95.1211 122.373L95.171 121.812L95.1706 121.812L95.1211 122.373ZM60.2952 113.569L60.979 113.17L60.9787 113.17L60.2952 113.569ZM29.7483 96.1581L30.4319 95.7584L30.4317 95.7583L29.7483 96.1581ZM27.5387 88.3912L26.6626 88.1469L26.662 88.1476L27.5387 88.3912ZM47.2601 64.8304L48.1361 65.0747L48.1392 65.0709L47.2601 64.8304ZM52.8599 61.5613L53.2911 62.0648L53.2935 62.0641L52.8599 61.5613ZM93.4285 49.9025L93.8621 50.4053L93.8633 50.4049L93.4285 49.9025ZM106.903 51.0782L106.218 51.4774L106.219 51.4779L106.903 51.0782ZM137.472 68.5024L136.788 68.9021L136.789 68.9021L137.472 68.5024ZM153.153 88.4728L154.124 88.4369L154.124 88.4368L153.153 88.4728ZM150.507 99.7417L149.576 99.5779L149.576 99.5784L150.507 99.7417ZM142.891 114.207L141.96 114.043L141.959 114.046L142.891 114.207ZM140.979 114.998C140.602 115.219 140.607 115.574 140.989 115.792C141.372 116.01 141.988 116.007 142.365 115.786L140.979 114.998ZM140.984 114.995C140.522 115.261 139.958 115.464 139.337 115.578L139.927 116.649C140.859 116.478 141.689 116.176 142.36 115.789L140.984 114.995ZM139.337 115.578L114.327 120.172L114.917 121.242L139.927 116.649L139.337 115.578ZM114.327 120.172C107.314 121.458 101.055 121.987 95.171 121.812L95.0711 122.934C101.235 123.117 107.73 122.56 114.916 121.242L114.327 120.172ZM95.1706 121.812C82.2267 121.431 70.084 118.363 60.979 113.17L59.6113 113.969C69.0612 119.359 81.6575 122.539 95.0715 122.934L95.1706 121.812ZM60.9787 113.17L30.4319 95.7584L29.0647 96.5578L59.6116 113.969L60.9787 113.17ZM30.4317 95.7583C27.2118 93.9237 26.391 91.0626 28.4153 88.6349L26.662 88.1476C24.2898 90.9925 25.2324 94.3742 29.0649 96.5578L30.4317 95.7583ZM28.4147 88.6356L48.1361 65.0747L46.3841 64.586L26.6626 88.1469L28.4147 88.6356ZM48.1392 65.0709C49.1995 63.7795 51.0353 62.7086 53.2911 62.0648L52.4287 61.0578C49.7876 61.8116 47.6322 63.0656 46.3809 64.5898L48.1392 65.0709ZM53.2935 62.0641L93.8621 50.4053L92.9949 49.3997L52.4263 61.0585L53.2935 62.0641ZM93.8633 50.4049C98.038 49.2009 103.007 49.6428 106.218 51.4774L107.587 50.679C103.764 48.4953 97.8904 47.9877 92.9937 49.4L93.8633 50.4049ZM106.219 51.4779L136.788 68.9021L138.156 68.1027L107.586 50.6785L106.219 51.4779ZM136.789 68.9021C145.885 74.0856 151.352 81.048 152.182 88.5088L154.124 88.4368C153.263 80.7049 147.596 73.4825 138.156 68.1027L136.789 68.9021ZM152.182 88.5087C152.56 91.9126 151.714 95.5303 149.576 99.5779L151.438 99.9055C153.628 95.7575 154.519 92.0027 154.124 88.4369L152.182 88.5087ZM149.576 99.5784L141.96 114.043L143.822 114.37L151.438 99.9051L149.576 99.5784ZM141.959 114.046C141.772 114.406 141.433 114.731 140.979 114.998L142.365 115.786C143.036 115.393 143.543 114.908 143.823 114.367L141.959 114.046Z" fill="url(#paint2_linear_20_588)" mask="url(#path-3-outside-1_20_588)"/>
</g>
<g filter="url(#filter2_d_20_588)">
<path d="M31.1493 62.4246L32.9774 61.3693C64.2597 43.3101 116.336 46.2751 140.905 67.5141L135.1 78.2809C134.14 80.0606 132.234 81.6206 129.652 82.7395L97.2933 87.6171C94.9073 87.9767 92.3931 87.9363 90.0455 87.5006L58.6876 81.6804L31.1493 62.4246Z" fill="#27F171"/>
</g>
<g filter="url(#filter3_b_20_588)">
<path d="M133.473 83.4062L133.474 83.4056L44.4506 29.4072C41.9711 30.115 39.9487 31.2913 38.7741 32.7172L18.3509 49.4172C18.345 49.4219 18.3399 49.427 18.3355 49.4322C17.2184 50.7719 16.3628 53.5796 16.5757 56.481C16.7886 59.3803 18.071 62.4112 21.2935 64.1737C21.294 64.174 21.2944 64.1742 21.2949 64.1745L51.839 81.5842C51.839 81.5842 51.8391 81.5842 51.8391 81.5842C61.1488 86.8946 73.5607 90.0289 86.7836 90.4183C92.8337 90.5978 99.2329 90.0522 106.349 88.7473L106.349 88.7473L131.359 84.1539C132.164 84.006 132.886 83.7447 133.473 83.4062ZM85.0189 17.7485L44.4511 29.4071L98.7025 18.9434C95.1282 16.9017 89.6222 16.4208 85.0189 17.7485ZM129.272 36.3676L98.7027 18.9435L134.563 82.1466L134.737 82.1772L134.737 82.177C134.737 82.1769 134.737 82.1768 134.737 82.1767L142.353 67.7124C144.522 63.6068 146.874 57.3684 145.682 49.9154C145.257 46.0971 143.471 44.0237 140.615 42.2435C139.2 41.3622 137.526 40.5538 135.638 39.643L135.608 39.6282C133.706 38.7102 131.583 37.6847 129.272 36.3676Z" fill="white" fill-opacity="0.5" stroke="url(#paint3_linear_20_588)" stroke-width="0.297426" stroke-linecap="round" stroke-linejoin="round"/>
</g>
<g filter="url(#filter4_b_20_588)">
<mask id="path-7-outside-2_20_588" maskUnits="userSpaceOnUse" x="0.822599" y="-0.287467" width="173.209" height="99.9935" fill="black">
<rect fill="white" x="0.822599" y="-0.287467" width="173.209" height="99.9935"/>
<path d="M133.344 75.8342C132.777 76.1614 132.08 76.4135 131.304 76.5561L106.294 81.1494C99.1942 82.4514 92.817 82.9944 86.7932 82.8157C73.6142 82.4276 61.2448 79.3038 51.9673 74.0118L21.4204 56.6005C17.8942 54.5914 17.0125 51.47 19.2108 48.8337L38.9322 25.2728C40.088 23.865 42.0836 22.7026 44.532 22.0038L85.1006 10.3449C89.6363 9.03673 95.0577 9.5115 98.5748 11.5206L129.144 28.9448C138.413 34.2265 143.98 41.3189 144.825 48.9153C145.212 52.4001 144.343 56.0863 142.179 60.1842L134.563 74.649C134.33 75.0995 133.906 75.5044 133.344 75.8342Z"/>
</mask>
<path d="M133.344 75.8342C132.777 76.1614 132.08 76.4135 131.304 76.5561L106.294 81.1494C99.1942 82.4514 92.817 82.9944 86.7932 82.8157C73.6142 82.4276 61.2448 79.3038 51.9673 74.0118L21.4204 56.6005C17.8942 54.5914 17.0125 51.47 19.2108 48.8337L38.9322 25.2728C40.088 23.865 42.0836 22.7026 44.532 22.0038L85.1006 10.3449C89.6363 9.03673 95.0577 9.5115 98.5748 11.5206L129.144 28.9448C138.413 34.2265 143.98 41.3189 144.825 48.9153C145.212 52.4001 144.343 56.0863 142.179 60.1842L134.563 74.649C134.33 75.0995 133.906 75.5044 133.344 75.8342Z" fill="white" fill-opacity="0.5"/>
<path d="M134.032 76.2314C134.412 76.012 134.412 75.6564 134.032 75.437C133.652 75.2177 133.036 75.2177 132.656 75.437L134.032 76.2314ZM131.304 76.5561L131.009 76.0208L131.009 76.0208L131.304 76.5561ZM106.294 81.1494L106.588 81.6848L106.589 81.6847L106.294 81.1494ZM86.7932 82.8157L86.8431 82.2548L86.8427 82.2547L86.7932 82.8157ZM51.9673 74.0118L52.6511 73.6122L52.6509 73.6121L51.9673 74.0118ZM21.4204 56.6005L22.104 56.2008L22.1038 56.2008L21.4204 56.6005ZM19.2108 48.8337L18.3348 48.5893L18.3341 48.5901L19.2108 48.8337ZM38.9322 25.2728L39.8082 25.5172L39.8114 25.5134L38.9322 25.2728ZM44.532 22.0038L44.9632 22.5073L44.9656 22.5066L44.532 22.0038ZM85.1006 10.3449L85.5342 10.8477L85.5354 10.8474L85.1006 10.3449ZM98.5748 11.5206L97.8905 11.9199L97.8913 11.9203L98.5748 11.5206ZM129.144 28.9448L128.461 29.3445L128.461 29.3446L129.144 28.9448ZM144.825 48.9153L145.796 48.8793L145.796 48.8792L144.825 48.9153ZM142.179 60.1842L141.249 60.0203L141.248 60.0208L142.179 60.1842ZM134.563 74.649L133.632 74.4856L133.631 74.4881L134.563 74.649ZM132.651 75.4402C132.274 75.6613 132.279 76.0169 132.662 76.2345C133.045 76.4521 133.661 76.4493 134.037 76.2282L132.651 75.4402ZM132.656 75.437C132.194 75.7039 131.63 75.9068 131.009 76.0208L131.599 77.0913C132.531 76.9202 133.361 76.6189 134.032 76.2314L132.656 75.437ZM131.009 76.0208L105.999 80.6142L106.589 81.6847L131.599 77.0913L131.009 76.0208ZM105.999 80.6141C98.9861 81.9002 92.7271 82.4294 86.8431 82.2548L86.7432 83.3766C92.907 83.5595 99.4022 83.0025 106.588 81.6848L105.999 80.6141ZM86.8427 82.2547C73.8988 81.8736 61.7562 78.8059 52.6511 73.6122L51.2835 74.4113C60.7334 79.8017 73.3296 82.9816 86.7436 83.3766L86.8427 82.2547ZM52.6509 73.6121L22.104 56.2008L20.7368 57.0002L51.2837 74.4114L52.6509 73.6121ZM22.1038 56.2008C18.8839 54.3662 18.0631 51.505 20.0874 49.0773L18.3341 48.5901C15.9619 51.435 16.9045 54.8167 20.737 57.0003L22.1038 56.2008ZM20.0868 49.0781L39.8082 25.5172L38.0562 25.0284L18.3348 48.5893L20.0868 49.0781ZM39.8114 25.5134C40.8716 24.2219 42.7074 23.1511 44.9632 22.5073L44.1009 21.5003C41.4597 22.254 39.3043 23.508 38.053 25.0322L39.8114 25.5134ZM44.9656 22.5066L85.5342 10.8477L84.667 9.8421L44.0985 21.5009L44.9656 22.5066ZM85.5354 10.8474C89.7101 9.6433 94.6789 10.0853 97.8905 11.9199L99.2592 11.1214C95.4365 8.93771 89.5625 8.43015 84.6658 9.84246L85.5354 10.8474ZM97.8913 11.9203L128.461 29.3445L129.828 28.5452L99.2584 11.121L97.8913 11.9203ZM128.461 29.3446C137.557 34.528 143.024 41.4904 143.854 48.9513L145.796 48.8792C144.935 41.1474 139.269 33.9249 129.828 28.5451L128.461 29.3446ZM143.854 48.9512C144.232 52.355 143.386 55.9727 141.249 60.0203L143.11 60.348C145.301 56.1999 146.191 52.4452 145.796 48.8793L143.854 48.9512ZM141.248 60.0208L133.632 74.4856L135.494 74.8123L143.11 60.3475L141.248 60.0208ZM133.631 74.4881C133.444 74.8483 133.105 75.1737 132.651 75.4402L134.037 76.2282C134.708 75.8351 135.215 75.3508 135.495 74.8098L133.631 74.4881Z" fill="url(#paint4_linear_20_588)" mask="url(#path-7-outside-2_20_588)"/>
</g>
<g filter="url(#filter5_i_20_588)">
<path d="M74.6466 56.0667L74.6466 56.0665C74.6626 54.6098 76.7236 53.4051 79.2477 53.376C79.2477 53.376 79.2477 53.376 79.2477 53.376L91.453 53.2367L91.6393 53.2346L91.6406 53.127L91.8539 35.7062C91.8742 34.2466 93.9357 33.0422 96.4546 33.0156C98.9798 32.9889 101.006 34.1444 100.982 35.5932L100.982 35.5935L100.737 55.7656L100.737 55.7657C100.729 56.4961 100.211 57.1588 99.3761 57.6455C98.541 58.1325 97.4013 58.4416 96.1359 58.4561L79.1694 58.6471C76.6488 58.6712 74.6264 57.5183 74.6466 56.0667Z" fill="#26F172" stroke="url(#paint5_linear_20_588)" stroke-width="0.312546"/>
</g>
<defs>
<filter id="filter0_bd_20_588" x="0.895369" y="49.3191" width="177.413" height="134.332" filterUnits="userSpaceOnUse" color-interpolation-filters="sRGB">
<feFlood flood-opacity="0" result="BackgroundImageFix"/>
<feGaussianBlur in="BackgroundImageFix" stdDeviation="3.56911"/>
<feComposite in2="SourceAlpha" operator="in" result="effect1_backgroundBlur_20_588"/>
<feColorMatrix in="SourceAlpha" type="matrix" values="0 0 0 0 0 0 0 0 0 0 0 0 0 0 0 0 0 0 127 0" result="hardAlpha"/>
<feOffset dy="29.7426"/>
<feGaussianBlur stdDeviation="11.897"/>
<feComposite in2="hardAlpha" operator="out"/>
<feColorMatrix type="matrix" values="0 0 0 0 0.343982 0 0 0 0 1 0 0 0 0 0.448945 0 0 0 0.5 0"/>
<feBlend mode="normal" in2="effect1_backgroundBlur_20_588" result="effect2_dropShadow_20_588"/>
<feBlend mode="normal" in="SourceGraphic" in2="effect2_dropShadow_20_588" result="shape"/>
</filter>
<filter id="filter1_b_20_588" x="18.2304" y="41.47" width="143.123" height="88.6363" filterUnits="userSpaceOnUse" color-interpolation-filters="sRGB">
<feFlood flood-opacity="0" result="BackgroundImageFix"/>
<feGaussianBlur in="BackgroundImageFix" stdDeviation="3.56911"/>
<feComposite in2="SourceAlpha" operator="in" result="effect1_backgroundBlur_20_588"/>
<feBlend mode="normal" in="SourceGraphic" in2="effect1_backgroundBlur_20_588" result="shape"/>
</filter>
<filter id="filter2_d_20_588" x="19.4986" y="46.8595" width="133.057" height="61.6542" filterUnits="userSpaceOnUse" color-interpolation-filters="sRGB">
<feFlood flood-opacity="0" result="BackgroundImageFix"/>
<feColorMatrix in="SourceAlpha" type="matrix" values="0 0 0 0 0 0 0 0 0 0 0 0 0 0 0 0 0 0 127 0" result="hardAlpha"/>
<feOffset dy="9.0029"/>
<feGaussianBlur stdDeviation="5.82541"/>
<feComposite in2="hardAlpha" operator="out"/>
<feColorMatrix type="matrix" values="0 0 0 0 0 0 0 0 0 0.824769 0 0 0 0 0.300654 0 0 0 1 0"/>
<feBlend mode="normal" in2="BackgroundImageFix" result="effect1_dropShadow_20_588"/>
<feBlend mode="normal" in="SourceGraphic" in2="effect1_dropShadow_20_588" result="shape"/>
</filter>
<filter id="filter3_b_20_588" x="11.065" y="11.6038" width="140.416" height="84.2488" filterUnits="userSpaceOnUse" color-interpolation-filters="sRGB">
<feFlood flood-opacity="0" result="BackgroundImageFix"/>
<feGaussianBlur in="BackgroundImageFix" stdDeviation="2.64791"/>
<feComposite in2="SourceAlpha" operator="in" result="effect1_backgroundBlur_20_588"/>
<feBlend mode="normal" in="SourceGraphic" in2="effect1_backgroundBlur_20_588" result="shape"/>
</filter>
<filter id="filter4_b_20_588" x="6.44913" y="-1.54099" width="150.029" height="95.5431" filterUnits="userSpaceOnUse" color-interpolation-filters="sRGB">
<feFlood flood-opacity="0" result="BackgroundImageFix"/>
<feGaussianBlur in="BackgroundImageFix" stdDeviation="5.29582"/>
<feComposite in2="SourceAlpha" operator="in" result="effect1_backgroundBlur_20_588"/>
<feBlend mode="normal" in="SourceGraphic" in2="effect1_backgroundBlur_20_588" result="shape"/>
</filter>
<filter id="filter5_i_20_588" x="74.4551" y="32.9046" width="26.718" height="26.4525" filterUnits="userSpaceOnUse" color-interpolation-filters="sRGB">
<feFlood flood-opacity="0" result="BackgroundImageFix"/>
<feBlend mode="normal" in="SourceGraphic" in2="BackgroundImageFix" result="shape"/>
<feColorMatrix in="SourceAlpha" type="matrix" values="0 0 0 0 0 0 0 0 0 0 0 0 0 0 0 0 0 0 127 0" result="hardAlpha"/>
<feOffset dy="1.3928"/>
<feGaussianBlur stdDeviation="0.299564"/>
<feComposite in2="hardAlpha" operator="arithmetic" k2="-1" k3="1"/>
<feColorMatrix type="matrix" values="0 0 0 0 1 0 0 0 0 1 0 0 0 0 1 0 0 0 1 0"/>
<feBlend mode="normal" in2="shape" result="effect1_innerShadow_20_588"/>
</filter>
<linearGradient id="paint0_linear_20_588" x1="34.0208" y1="91.7135" x2="156.654" y2="98.0543" gradientUnits="userSpaceOnUse">
<stop stop-color="white" stop-opacity="0.25"/>
<stop offset="1" stop-color="white" stop-opacity="0"/>
</linearGradient>
<linearGradient id="paint1_linear_20_588" x1="49.7903" y1="62.8057" x2="95.5272" y2="142.031" gradientUnits="userSpaceOnUse">
<stop stop-color="#24EF7F"/>
<stop offset="1" stop-color="#26F16D"/>
</linearGradient>
<linearGradient id="paint2_linear_20_588" x1="89.6684" y1="79.9591" x2="93.5409" y2="126.331" gradientUnits="userSpaceOnUse">
<stop stop-color="white" stop-opacity="0.43"/>
<stop offset="0.846595" stop-color="white"/>
<stop offset="1" stop-color="white" stop-opacity="0"/>
</linearGradient>
<linearGradient id="paint3_linear_20_588" x1="25.6921" y1="52.1557" x2="148.325" y2="58.4966" gradientUnits="userSpaceOnUse">
<stop stop-color="white" stop-opacity="0.25"/>
<stop offset="1" stop-color="white" stop-opacity="0"/>
</linearGradient>
<linearGradient id="paint4_linear_20_588" x1="103.438" y1="85.5198" x2="111.078" y2="21.4643" gradientUnits="userSpaceOnUse">
<stop stop-color="white" stop-opacity="0.79"/>
<stop offset="1" stop-color="white" stop-opacity="0"/>
</linearGradient>
<linearGradient id="paint5_linear_20_588" x1="71.5096" y1="49.425" x2="104.277" y2="64.2496" gradientUnits="userSpaceOnUse">
<stop stop-color="white" stop-opacity="0.25"/>
<stop offset="1" stop-color="white" stop-opacity="0"/>
</linearGradient>
</defs>
</svg>
