<svg width="41" height="25" viewBox="0 0 41 25" fill="none" xmlns="http://www.w3.org/2000/svg">
<path d="M28.9844 24.0234C35.6117 24.0234 40.9844 18.6507 40.9844 12.0234C40.9844 5.39613 35.6117 0.0234375 28.9844 0.0234375C22.3571 0.0234375 16.9844 5.39613 16.9844 12.0234C16.9844 18.6507 22.3571 24.0234 28.9844 24.0234Z" fill="#24A980"/>
<path d="M30.474 13.2195L29.0078 13.2582C28.2359 13.2582 27.7151 13.2388 27.522 13.2195C24.6089 13.1037 22.4094 12.5828 22.4094 11.9848C22.4094 11.3674 24.5895 10.8659 27.522 10.7307V12.7177C27.7151 12.7371 28.2552 12.7564 29.0268 12.7564C29.9336 12.7564 30.3967 12.7177 30.474 12.7177V10.7307C33.4064 10.8659 35.5865 11.3674 35.5865 11.9848C35.5865 12.5828 33.4064 13.1037 30.474 13.2195ZM30.474 10.5186V8.74372H34.5639V6.02344H23.4513V8.74372H27.5413V10.5186C24.2229 10.6728 21.7344 11.3288 21.7344 12.12C21.7344 12.9111 24.2229 13.5668 27.5413 13.7213V19.432H30.4933V13.7211C33.8114 13.5668 36.3002 12.9108 36.3002 12.1197C36.2809 11.3288 33.7923 10.6728 30.474 10.5183V10.5186Z" fill="#FFFDFA"/>
<g clip-path="url(#clip0_67_1076)">
<path d="M12 24.0233C18.6274 24.0233 24 18.6508 24 12.0234C24 5.39601 18.6274 0.0234375 12 0.0234375C5.37258 0.0234375 0 5.39601 0 12.0234C0 18.6508 5.37258 24.0233 12 24.0233Z" fill="white"/>
<path d="M21.2947 4.53809C20.4625 4.7026 19.6689 4.93486 19.0157 5.08002C17.5254 5.41389 16.1318 6.55582 15.827 8.64614C15.556 10.5138 16.185 11.3171 15.9092 13.4896C15.4254 17.2832 11.7867 18.5896 10.0883 19.3832C9.10603 19.838 6.72055 20.8832 4.88184 21.6816C6.87539 23.1525 9.33345 24.0235 11.9996 24.0235C18.6286 24.0235 23.9995 18.6525 23.9995 12.0235C23.9995 9.19775 23.0221 6.59937 21.3866 4.5526C21.3576 4.54776 21.3286 4.54293 21.2947 4.53809Z" fill="url(#paint0_linear_67_1076)"/>
<path d="M10.65 10.2621C11.5742 8.26375 11.2403 8.25891 11.9419 6.38149C12.8274 4.00085 15.5806 4.67827 16.3403 4.77988C17.5935 4.94924 17.9226 4.50408 20.5645 4.07827C20.6951 4.05892 20.8209 4.03956 20.9468 4.02504C18.75 1.57182 15.5564 0.0234375 12 0.0234375C7.22419 0.0234375 3.10161 2.81053 1.17097 6.85085C5.12903 7.8331 9.4016 9.96697 10.65 10.2621ZM8.02741 2.11376C8.3758 2.16698 10.0693 4.27182 10.3887 9.67665C10.3887 9.67665 8.21128 9.15407 7.74193 8.03149C7.35483 7.1073 7.85806 5.89278 8.02741 2.11376ZM21.3677 4.52827C21.3726 4.53795 21.3822 4.54279 21.3871 4.55246C21.358 4.54762 21.3242 4.54762 21.2951 4.54279C21.3193 4.53311 21.3435 4.53311 21.3677 4.52827ZM0 12.0234C0 11.0653 0.11129 10.1363 0.324193 9.246C0.759677 9.6089 1.22419 10.0105 1.71774 10.4702C4.84354 13.3685 9.92902 15.6572 11.7822 13.5282C11.7871 13.533 11.7919 13.533 11.7919 13.5379C11.4532 13.983 10.1613 15.3911 7.69354 14.9556L3.79354 20.7766C1.46129 18.5895 0 15.4782 0 12.0234Z" fill="url(#paint1_linear_67_1076)"/>
</g>
<defs>
<linearGradient id="paint0_linear_67_1076" x1="19.2061" y1="7.68104" x2="16.3751" y2="23.2775" gradientUnits="userSpaceOnUse">
<stop stop-color="#FF496A"/>
<stop offset="1" stop-color="#E42648"/>
</linearGradient>
<linearGradient id="paint1_linear_67_1076" x1="5.79203" y1="17.7001" x2="12.0515" y2="0.0234325" gradientUnits="userSpaceOnUse">
<stop offset="0.00181229" stop-color="#1158F1"/>
<stop offset="1" stop-color="#119BED"/>
</linearGradient>
<clipPath id="clip0_67_1076">
<rect width="24" height="24" fill="white" transform="translate(0 0.0234375)"/>
</clipPath>
</defs>
</svg>
