<svg width="64" height="40" viewBox="0 0 64 40" fill="none" xmlns="http://www.w3.org/2000/svg">
<path d="M62.5934 24.8383C59.9223 35.5527 49.0703 42.0733 38.3547 39.4015C27.6435 36.7303 21.1229 25.8777 23.7953 15.1642C26.4652 4.44863 37.3172 -2.07243 48.0295 0.598713C58.7444 3.26986 65.2646 14.1237 62.5931 24.8385L62.5933 24.8383H62.5934Z" fill="#F3BA2F"/>
<path fill-rule="evenodd" clip-rule="evenodd" d="M43.1956 12.6937L38.0167 17.8725L38.0168 17.8723L35.0036 14.859L43.1956 6.66699L51.3902 14.8614L48.3769 17.8748L43.1956 12.6937ZM32.8757 16.9865L29.8623 20.0004L32.8755 23.0132L35.889 19.9997L32.8757 16.9865ZM38.0167 22.1284L43.1956 27.307L48.3768 22.126L51.3918 25.1377L51.3903 25.1393L43.1956 33.3337L35.0036 25.1417L34.9993 25.1374L38.0167 22.1284ZM53.5157 16.9881L50.5023 20.0016L53.5156 23.0148L56.5289 20.0013L53.5157 16.9881Z" fill="white"/>
<path d="M46.2522 19.9986H46.2535L43.196 16.9409L40.9361 19.2002L40.6765 19.46L40.141 19.9955L40.1367 19.9997L40.141 20.0041L43.196 23.0595L46.2537 20.0018L46.2552 20.0001L46.2525 19.9986" fill="white"/>
<path d="M39.5339 24.8383C36.8627 35.5527 26.0108 42.0733 15.2951 39.4015C4.58394 36.7303 -1.93663 25.8777 0.735689 15.1642C3.40566 4.44863 14.2576 -2.07243 24.9699 0.598713C35.6848 3.26986 42.205 14.1237 39.5336 24.8385L39.5338 24.8383H39.5339Z" fill="#50AF95"/>
<path fill-rule="evenodd" clip-rule="evenodd" d="M22.6676 22.2679C22.5262 22.2785 21.7955 22.3221 20.1657 22.3221C18.8693 22.3221 17.9489 22.2832 17.626 22.2679C12.6163 22.0475 8.87695 21.1754 8.87695 20.1313C8.87695 19.0872 12.6163 18.2163 17.626 17.9924V21.3993C17.9536 21.4229 18.8917 21.4783 20.188 21.4783C21.7436 21.4783 22.5226 21.4135 22.6629 21.4005V17.9947C27.662 18.2174 31.3931 19.0895 31.3931 20.1313C31.3931 21.1731 27.6632 22.0452 22.6629 22.2667L22.6676 22.2679ZM22.6676 17.6422V14.5935H29.6442V9.94434H10.6494V14.5935H17.6248V17.641C11.9552 17.9015 7.69141 19.0246 7.69141 20.3704C7.69141 21.7162 11.9552 22.8381 17.6248 23.0998V32.8694H22.6664V23.0962C28.3231 22.8358 32.5798 21.7139 32.5798 20.3692C32.5798 19.0246 28.3267 17.9026 22.6664 17.641L22.6676 17.6422Z" fill="white"/>
</svg>
