<svg width="42" height="25" viewBox="0 0 42 25" fill="none" xmlns="http://www.w3.org/2000/svg">
<path d="M29.4844 24.8446C36.1117 24.8446 41.4844 19.4719 41.4844 12.8446C41.4844 6.21729 36.1117 0.844604 29.4844 0.844604C22.8571 0.844604 17.4844 6.21729 17.4844 12.8446C17.4844 19.4719 22.8571 24.8446 29.4844 24.8446Z" fill="#24A980"/>
<path d="M30.9745 14.0407L29.5083 14.0794C28.7364 14.0794 28.2156 14.06 28.0225 14.0407C25.1093 13.9249 22.9099 13.404 22.9099 12.806C22.9099 12.1886 25.09 11.6871 28.0225 11.5519V13.5389C28.2156 13.5583 28.7557 13.5776 29.5273 13.5776C30.4341 13.5776 30.8972 13.5389 30.9745 13.5389V11.5519C33.9069 11.6871 36.087 12.1886 36.087 12.806C36.087 13.404 33.9069 13.9249 30.9745 14.0407ZM30.9745 11.3398V9.56488H35.0644V6.8446H23.9518V9.56488H28.0418V11.3398C24.7234 11.494 22.2349 12.15 22.2349 12.9412C22.2349 13.7323 24.7234 14.388 28.0418 14.5425V20.2532H30.9938V14.5423C34.3119 14.388 36.8007 13.732 36.8007 12.9409C36.7814 12.15 34.2928 11.494 30.9745 11.3395V11.3398Z" fill="#FFFDFA"/>
<circle cx="12.5" cy="12.8446" r="12" fill="#6866F6"/>
<g clip-path="url(#clip0_15_1229)">
<path d="M8.46512 20.3972L8.45361 14.1027L12.5756 16.2771C13.1736 16.5933 13.2042 17.4364 12.6305 17.7947L8.46502 20.3972H8.46512Z" fill="white"/>
<path d="M8.44228 8.14279L8.43652 4.96863L21.8316 12.0461L20.1212 13.1148C19.4776 13.5168 18.6674 13.5451 17.9973 13.1888L8.44228 8.14279Z" fill="white" fill-opacity="0.6"/>
<path d="M15.6122 16.4055L6.40332 11.6006V8.42749L14.2599 12.5127C15.8741 13.39 15.7064 14.1181 15.6122 16.4054V16.4055Z" fill="white"/>
</g>
<defs>
<clipPath id="clip0_15_1229">
<rect width="15.4286" height="15.4286" fill="white" transform="translate(6.40332 4.96863)"/>
</clipPath>
</defs>
</svg>
