<svg width="42" height="25" viewBox="0 0 42 25" fill="none" xmlns="http://www.w3.org/2000/svg">
<path d="M29.6455 24.0233C36.2728 24.0233 41.6455 18.6506 41.6455 12.0233C41.6455 5.39601 36.2728 0.0233154 29.6455 0.0233154C23.0182 0.0233154 17.6455 5.39601 17.6455 12.0233C17.6455 18.6506 23.0182 24.0233 29.6455 24.0233Z" fill="#24A980"/>
<path d="M31.1351 13.2194L29.6689 13.2581C28.897 13.2581 28.3762 13.2387 28.1831 13.2194C25.27 13.1036 23.0705 12.5827 23.0705 11.9847C23.0705 11.3673 25.2507 10.8658 28.1831 10.7306V12.7176C28.3762 12.737 28.9163 12.7563 29.6879 12.7563C30.5947 12.7563 31.0578 12.7176 31.1351 12.7176V10.7306C34.0675 10.8658 36.2476 11.3673 36.2476 11.9847C36.2476 12.5827 34.0675 13.1036 31.1351 13.2194ZM31.1351 10.5185V8.74359H35.225V6.02332H24.1125V8.74359H28.2024V10.5185C24.8841 10.6727 22.3955 11.3287 22.3955 12.1199C22.3955 12.911 24.8841 13.5667 28.2024 13.7212V19.4319H31.1544V13.721C34.4725 13.5667 36.9613 12.9107 36.9613 12.1196C36.942 11.3287 34.4534 10.6727 31.1351 10.5182V10.5185Z" fill="#FFFDFA"/>
<g clip-path="url(#clip0_353_5199)">
<path d="M12.6611 24.0232C19.2885 24.0232 24.6611 18.6507 24.6611 12.0233C24.6611 5.39589 19.2885 0.0233154 12.6611 0.0233154C6.03371 0.0233154 0.661133 5.39589 0.661133 12.0233C0.661133 18.6507 6.03371 24.0232 12.6611 24.0232Z" fill="white"/>
<path d="M21.9558 4.53784C21.1236 4.70235 20.33 4.93461 19.6768 5.07977C18.1865 5.41364 16.7929 6.55557 16.4881 8.64589C16.2171 10.5136 16.8461 11.3169 16.5703 13.4894C16.0865 17.283 12.4478 18.5894 10.7494 19.383C9.76716 19.8378 7.38168 20.883 5.54297 21.6814C7.53652 23.1523 9.99458 24.0233 12.6607 24.0233C19.2897 24.0233 24.6606 18.6523 24.6606 12.0233C24.6606 9.1975 23.6832 6.59912 22.0477 4.55235C22.0187 4.54751 21.9897 4.54268 21.9558 4.53784Z" fill="url(#paint0_linear_353_5199)"/>
<path d="M11.3111 10.262C12.2353 8.26363 11.9014 8.25879 12.603 6.38137C13.4885 4.00073 16.2417 4.67815 17.0014 4.77976C18.2546 4.94912 18.5837 4.50396 21.2256 4.07815C21.3562 4.0588 21.482 4.03944 21.6079 4.02492C19.4111 1.5717 16.2175 0.0233154 12.6611 0.0233154C7.88532 0.0233154 3.76274 2.81041 1.8321 6.85073C5.79016 7.83298 10.0627 9.96685 11.3111 10.262ZM8.68854 2.11364C9.03693 2.16686 10.7304 4.2717 11.0498 9.67653C11.0498 9.67653 8.87241 9.15395 8.40306 8.03137C8.01596 7.10718 8.51919 5.89266 8.68854 2.11364ZM22.0288 4.52815C22.0337 4.53783 22.0433 4.54267 22.0482 4.55234C22.0191 4.5475 21.9853 4.5475 21.9562 4.54267C21.9804 4.53299 22.0046 4.53299 22.0288 4.52815ZM0.661133 12.0233C0.661133 11.0652 0.772423 10.1362 0.985326 9.24588C1.42081 9.60878 1.88532 10.0104 2.37887 10.4701C5.50467 13.3684 10.5902 15.6571 12.4433 13.5281C12.4482 13.5329 12.453 13.5329 12.453 13.5378C12.1143 13.9829 10.8224 15.391 8.35467 14.9555L4.45467 20.7765C2.12242 18.5894 0.661133 15.4781 0.661133 12.0233Z" fill="url(#paint1_linear_353_5199)"/>
</g>
<defs>
<linearGradient id="paint0_linear_353_5199" x1="19.8672" y1="7.68079" x2="17.0362" y2="23.2773" gradientUnits="userSpaceOnUse">
<stop stop-color="#FF496A"/>
<stop offset="1" stop-color="#E42648"/>
</linearGradient>
<linearGradient id="paint1_linear_353_5199" x1="6.45316" y1="17.7" x2="12.7126" y2="0.0233104" gradientUnits="userSpaceOnUse">
<stop offset="0.00181229" stop-color="#1158F1"/>
<stop offset="1" stop-color="#119BED"/>
</linearGradient>
<clipPath id="clip0_353_5199">
<rect width="24" height="24" fill="white" transform="translate(0.661133 0.0233154)"/>
</clipPath>
</defs>
</svg>
